<svg width="63" height="14" viewBox="0 0 63 14" fill="none" xmlns="http://www.w3.org/2000/svg">
<g clip-path="url(#clip0_2608_1120)">
<path d="M11.7835 4.21753C12.2929 5.07929 12.5649 6.06521 12.5649 7.09129C12.5649 10.2097 10.029 12.7475 6.90871 12.7475C3.78847 12.7475 1.2543 10.2097 1.2543 7.09129C1.2543 6.06521 1.52634 5.08112 2.03573 4.21935L1.1265 3.31012C0.39254 4.42566 0 5.72744 0 7.09129C0 10.9017 3.10016 14 6.90871 14C10.7173 14 13.8174 10.9017 13.8174 7.09129C13.8174 5.72744 13.4249 4.42384 12.6927 3.30829L11.7835 4.21753Z" fill="white"/>
<path d="M12.4643 2.68023L12.3584 2.55243C12.2233 2.38811 12.0809 2.23292 11.9239 2.0759C10.5819 0.737611 8.8018 0 6.90848 0C5.62131 0 4.36336 0.346896 3.26972 1.00235C3.17113 1.0626 3.07437 1.12285 2.97395 1.18858C2.87901 1.2543 2.78224 1.32003 2.69278 1.38758C2.5595 1.48435 2.42622 1.59207 2.28016 1.71622C2.1414 1.83672 2.01542 1.9554 1.89309 2.07773C1.73243 2.23839 1.59002 2.39541 1.45856 2.55425L1.35449 2.68206L6.90666 8.23422L12.4625 2.68023H12.4643ZM4.43274 2.20736C5.2945 1.771 6.27311 1.56651 7.23529 1.62676C7.29737 1.63041 7.35762 1.63406 7.43065 1.64137C8.20295 1.72353 8.95882 1.95905 9.63435 2.34429C9.81693 2.44836 9.99586 2.56155 10.162 2.68936L6.90483 5.94653L3.65496 2.69118C3.89961 2.50678 4.1607 2.34611 4.43456 2.20736H4.43274Z" fill="white"/>
<path d="M23.273 1.37298C20.1199 1.37298 17.5547 3.93818 17.5547 7.09129C17.5547 10.2444 20.1199 12.8096 23.273 12.8096C26.4261 12.8096 28.9913 10.2444 28.9913 7.09129C28.9913 3.93818 26.4261 1.37298 23.273 1.37298ZM23.273 11.5589C20.81 11.5589 18.8072 9.55425 18.8072 7.09129C18.8072 4.62832 20.81 2.62546 23.273 2.62546C25.736 2.62546 27.7388 4.62832 27.7388 7.09129C27.7388 9.55425 25.736 11.5589 23.273 11.5589Z" fill="white"/>
<path d="M45.7828 1.37298C42.6297 1.37298 40.0645 3.93818 40.0645 7.09129C40.0645 10.2444 42.6297 12.8096 45.7828 12.8096C48.9359 12.8096 51.5011 10.2444 51.5011 7.09129C51.5011 3.93818 48.9359 1.37298 45.7828 1.37298ZM45.7828 11.5589C43.3198 11.5589 41.3169 9.55425 41.3169 7.09129C41.3169 4.62832 43.3198 2.62546 45.7828 2.62546C48.2457 2.62546 50.2486 4.62832 50.2486 7.09129C50.2486 9.55425 48.2457 11.5589 45.7828 11.5589Z" fill="white"/>
<path d="M37.9172 6.87402C38.5453 6.29343 38.9433 5.46635 38.9433 4.54617C38.9433 2.79525 37.5192 1.37298 35.7701 1.37298H30.1924V12.8096H36.3653C38.1144 12.8096 39.5367 11.3873 39.5367 9.63824C39.5367 8.45331 38.883 7.4181 37.9172 6.87402ZM31.4449 2.62546H35.7701C36.8291 2.62546 37.6908 3.48722 37.6908 4.54617C37.6908 5.60511 36.8291 6.46505 35.7701 6.46505H31.4449V2.62546ZM36.3653 11.5589H31.4449V7.71753H36.3653C37.4224 7.71753 38.2842 8.57929 38.2842 9.63824C38.2842 10.6972 37.4224 11.5589 36.3653 11.5589Z" fill="white"/>
<path d="M57.353 1.46609H55.9143L51.0322 12.8224H52.3942L53.7508 9.66927H59.5202L60.8768 12.8224H62.237L57.353 1.46609ZM54.2876 8.4168L56.6337 2.9614L58.9798 8.4168H54.2876Z" fill="white"/>
</g>
<defs>
<clipPath id="clip0_2608_1120">
<rect width="62.2368" height="14" fill="white"/>
</clipPath>
</defs>
</svg>
