<svg width="1920" height="947" viewBox="0 0 1920 947" fill="none" xmlns="http://www.w3.org/2000/svg">
<g filter="url(#filter0_f_2686_1285)">
<path fill-rule="evenodd" clip-rule="evenodd" d="M1376 293.5C1454.67 327.922 1386.91 474.189 1446.75 535.762C1486.22 576.371 1571.68 499.017 1613.2 537.53C1648.4 570.19 1602.98 630.141 1600.18 678.083C1597.04 731.828 1632.07 796.524 1595.75 836.26C1559.18 876.26 1489.94 841.542 1437.67 855.862C1386.85 869.784 1340.68 946.29 1295.98 918.388C1245.08 886.614 1282.03 801.721 1260.95 745.545C1249.64 715.406 1221.97 696.762 1203.04 670.72C1165.63 619.227 1082.21 579.973 1095.4 517.705C1107.31 461.513 1205.02 485.474 1249.89 449.619C1303.24 406.996 1313.45 266.127 1376 293.5Z" fill="#8C03CC"/>
<path fill-rule="evenodd" clip-rule="evenodd" d="M1025.2 -256.121C1080.87 -297.623 1164.75 -339.524 1223.83 -303.039C1282.52 -266.79 1241.47 -168.573 1269.23 -105.418C1296.36 -43.6969 1388.79 -9.74063 1382.24 57.3608C1375.77 123.709 1292.06 150.445 1240.18 192.305C1197.63 226.641 1159 267.878 1105.78 280.429C1053.92 292.657 988.202 298.215 950.445 260.631C910.209 220.581 941.627 149.257 920.901 96.4049C909.683 67.7996 872.416 57.8605 859.92 29.7902C845 -3.7254 822.366 -47.0393 843.782 -76.8264C866.515 -108.446 927.558 -75.4384 955.257 -102.813C996.035 -143.112 979.24 -221.854 1025.2 -256.121Z" fill="#12A2DF"/>
<path fill-rule="evenodd" clip-rule="evenodd" d="M637.354 -412.313C693.796 -400.605 726.611 -344.537 776.459 -315.591C829.641 -284.709 928.793 -297.614 939.244 -237.009C951.021 -168.716 833.399 -140.759 818.271 -73.1292C805.137 -14.4138 895.082 45.8389 864.397 97.5928C835.96 145.556 752.863 98.6446 702.384 122.331C636.833 153.09 600.64 281.094 534.077 252.591C463.108 222.202 515.009 102.695 487.803 30.4463C473.128 -8.52304 429.082 -28.2802 413.735 -66.9893C395.448 -113.112 385.487 -162.005 391.998 -211.191C400.141 -272.706 407.469 -342.84 455.458 -382.177C503.971 -421.944 575.933 -425.053 637.354 -412.313Z" fill="#CD3D82"/>
</g>
<defs>
<filter id="filter0_f_2686_1285" x="-410" y="-1219" width="2836.51" height="2943.46" filterUnits="userSpaceOnUse" color-interpolation-filters="sRGB">
<feFlood flood-opacity="0" result="BackgroundImageFix"/>
<feBlend mode="normal" in="SourceGraphic" in2="BackgroundImageFix" result="shape"/>
<feGaussianBlur stdDeviation="400" result="effect1_foregroundBlur_2686_1285"/>
</filter>
</defs>
</svg>
