<svg width="29" height="39" viewBox="0 0 29 39" fill="none" xmlns="http://www.w3.org/2000/svg">
<path d="M9.15918 37.4354C10.7181 38.0943 12.3746 38.4619 14.0539 38.5219C16.3128 38.6064 18.5589 38.1307 20.6102 37.1334C18.2489 36.1572 16.0814 34.7274 14.2187 32.917C13.0233 34.9283 11.255 36.5168 9.15918 37.4354Z" fill="#FF9100"/>
<path d="M14.2184 32.9176C10.0085 28.8264 7.45432 22.9051 7.6703 16.4102C7.67717 16.1995 7.68794 15.9888 7.70019 15.778C5.83056 15.2685 3.86564 15.29 2.00654 15.8405C0.846517 17.9727 0.198892 20.3699 0.119792 22.8245C-0.0980379 29.3853 3.68046 35.1178 9.15871 37.436C11.2503 36.5174 13.0184 34.9384 14.2184 32.9176Z" fill="#FFC400"/>
<path d="M14.219 32.9169C15.1976 31.271 15.7911 29.3414 15.8602 27.2626C16.042 21.7941 12.5432 17.0899 7.7008 15.7773C7.68836 15.9881 7.67777 16.1988 7.6709 16.4095C7.45493 22.9044 10.0091 28.8257 14.219 32.9169Z" fill="#FF9100"/>
<path d="M15.3189 0.40625C12.561 2.72781 10.3831 5.78888 9.06551 9.31532C8.29358 11.3824 7.83248 13.5631 7.69873 15.7791C12.5411 17.0917 16.04 21.7959 15.8582 27.2644C15.7931 29.2679 15.227 31.218 14.2169 32.9186C16.0791 34.7297 18.2467 36.1597 20.6083 37.135C25.3975 34.809 28.7955 29.8035 28.9922 23.8831C29.1198 20.0472 27.7172 16.6285 25.7351 13.7428C23.6421 10.6911 15.3189 0.40625 15.3189 0.40625Z" fill="#DD2C00"/>
</svg>
