<svg width="41" height="41" viewBox="0 0 41 41" fill="none" xmlns="http://www.w3.org/2000/svg">
<path fill-rule="evenodd" clip-rule="evenodd" d="M25.3444 31.9755V35.8865C25.9801 36.2125 26.7321 36.4569 27.6002 36.6198C28.9024 36.8642 29.3833 36.8643 30.3451 36.8643C31.2825 36.8643 32.1731 36.7746 33.0167 36.5954C33.8604 36.4161 34.6001 36.1208 35.2359 35.7093C35.8717 35.2978 36.375 34.76 36.7459 34.096C37.3022 33.0999 37.3022 32.6111 37.3022 31.6333C37.3022 30.9245 37.1963 30.3032 36.9844 29.7695C36.6665 28.9689 36.4668 28.7612 36.0673 28.3457C35.6679 27.9301 35.1891 27.5573 34.6307 27.2273C33.7931 26.7323 33.4426 26.5857 32.7416 26.2924C32.2281 26.0805 31.7675 25.8748 31.36 25.6752C30.9524 25.4755 30.606 25.2718 30.3207 25.0641C30.0354 24.8563 29.8153 24.6363 29.6604 24.4041C29.5056 24.1719 29.4282 23.9091 29.4281 23.6157C29.4281 23.3469 29.4974 23.1045 29.636 22.8886C29.8439 22.5646 29.9702 22.4873 30.2229 22.3325C30.4756 22.1777 30.7853 22.0575 31.1521 21.9719C31.5189 21.8864 31.9265 21.8436 32.3748 21.8436C32.7009 21.8436 33.0452 21.8681 33.408 21.9169C33.7707 21.9659 34.1355 22.0412 34.5023 22.143C34.868 22.2445 35.2256 22.3732 35.5722 22.528C35.9186 22.6829 36.2385 22.8621 36.5319 23.0658V19.4114C35.9369 19.1833 35.2869 19.0143 34.5818 18.9043C33.5241 18.7393 33.0676 18.7393 32.1547 18.7393C31.2255 18.7393 30.3451 18.8391 29.5137 19.0387C28.2666 19.3382 27.9508 19.55 27.319 19.9736C26.6872 20.3974 26.188 20.9372 25.8212 21.5931C25.4544 22.249 25.271 23.0332 25.271 23.9457C25.271 25.1109 25.6072 26.105 26.2797 26.9279C26.9521 27.7508 27.9731 28.4475 29.3426 29.0179C29.8806 29.2379 30.3819 29.4538 30.8465 29.6656C31.5433 29.9833 31.7126 30.0975 32.0508 30.3256C32.389 30.5537 32.656 30.8022 32.8517 31.0711C33.0473 31.3399 33.1451 31.6455 33.1451 31.9878C33.1451 32.2404 33.084 32.4746 32.9617 32.6905C32.7783 33.0143 32.654 33.0938 32.4054 33.2527C32.1568 33.4116 31.847 33.5358 31.4762 33.6254C31.1053 33.7151 30.6712 33.7599 30.174 33.7599C29.3263 33.7599 28.4867 33.6112 27.6552 33.3138C26.8238 33.0164 26.0535 32.5704 25.3444 31.9755ZM18.7694 22.3394H23.7866V19.1299H9.80225V22.3394H14.7949L14.7949 36.6299H18.7694V22.3394Z" fill="white"/>
</svg>
