<svg width="40" height="41" viewBox="0 0 40 41" fill="none" xmlns="http://www.w3.org/2000/svg">
<path d="M29.2343 29.2632C29.491 27.1431 29.412 26.8318 30.9982 27.1758L31.3997 27.2119C32.6173 27.2676 34.2134 27.0153 35.1513 26.5827C37.1686 25.6521 38.3632 24.0956 36.3755 24.5052C31.8374 25.4358 31.5281 23.9089 31.5281 23.9089C36.3195 16.8309 38.3204 7.84594 36.5927 5.6472C31.8802 -0.352633 23.7188 2.48508 23.5806 2.55717L23.5378 2.56373C22.6427 2.37695 21.639 2.26881 20.5103 2.24915C18.4568 2.21638 16.9002 2.78655 15.7188 3.67784C15.7188 3.67784 1.15998 -2.29578 1.8379 11.1883C1.9827 14.0555 5.96793 32.8906 10.7199 27.202C12.4575 25.1213 14.1359 23.3616 14.1359 23.3616C14.9684 23.9121 15.9689 24.1939 17.0154 24.0924L17.0976 24.0235C17.0713 24.2824 17.0845 24.5347 17.1305 24.8329C15.9063 26.1961 16.265 26.4353 13.8199 26.9366C11.3419 27.4445 12.7998 28.3489 13.7475 28.5849C14.8993 28.8732 17.5616 29.2763 19.365 26.7695L19.2926 27.0546C19.7731 27.438 19.7402 29.8038 19.8093 31.4947C19.8784 33.1855 19.9903 34.7649 20.3391 35.6955C20.6847 36.6261 21.0927 39.0215 24.3112 38.3366C26.9998 37.7632 29.0566 36.9374 29.2442 29.2566" fill="#040000"/>
<path d="M28.3914 0.145647C31.3489 0.180902 35.1434 1.07638 37.9208 4.61222L37.995 4.70982C38.7408 5.73357 38.9104 7.16457 38.8904 8.45863C38.8682 9.8923 38.6017 11.5801 38.138 13.3681C37.3513 16.4019 35.9565 19.8766 34.0216 23.1227C34.5018 23.1088 35.1571 23.0404 36.0353 22.8603C36.3566 22.7941 36.698 22.7488 37.0332 22.7601C37.3314 22.7702 37.8531 22.8307 38.3264 23.1886C38.9189 23.6367 39.1287 24.3082 39.0723 24.8968C39.0261 25.3782 38.815 25.7525 38.6709 25.9691C38.3666 26.4261 37.9175 26.8306 37.4805 27.1547C37.0764 27.4544 36.602 27.7447 36.0845 27.9995L35.8602 28.1064C34.6175 28.6794 32.7371 28.9541 31.322 28.8894L31.2851 28.8875L31.2481 28.8843L30.9801 28.86C30.9718 28.9297 30.9632 29.0029 30.9541 29.0811C30.946 29.15 30.9373 29.2221 30.9284 29.2971L30.9303 29.2974C30.835 33.2003 30.2724 35.7595 29.0956 37.4273C27.8258 39.2268 26.0619 39.6807 24.6645 39.9787H24.6635C23.6588 40.1925 22.7386 40.1946 21.9129 39.957C21.0701 39.7144 20.4359 39.2536 19.9728 38.7211C19.1599 37.7865 18.8228 36.4549 18.757 36.2776V36.2773C18.5095 35.6145 18.3771 34.823 18.2929 34.0645C18.206 33.2817 18.1588 32.4164 18.1239 31.5627C18.1013 31.0101 18.0897 30.469 18.0725 29.9483C16.1464 30.7832 14.2038 30.43 13.3383 30.2136V30.2139C12.9719 30.1227 12.5674 29.9719 12.2013 29.7726C11.9684 29.6458 11.5815 29.4099 11.2668 29.0302C10.6413 29.5503 9.90419 29.9065 9.05121 29.9425C7.8396 29.9936 6.86608 29.3788 6.17202 28.707C4.83058 27.4086 3.77711 25.1735 2.96826 22.9828C2.1304 20.7136 1.45121 18.1921 0.972849 16.067C0.531885 14.108 0.236049 12.3732 0.164596 11.4468L0.153348 11.2724V11.2721C-0.0302398 7.62042 0.805105 4.95102 2.49552 3.1719C4.17139 1.40808 6.41497 0.808605 8.43256 0.699569C10.4527 0.590406 12.4395 0.958478 13.8773 1.32933C14.5229 1.49588 15.0753 1.66842 15.4928 1.80901C16.8624 1.00071 18.5347 0.538031 20.5371 0.569968H20.5397L20.9915 0.582448C21.8619 0.615441 22.6757 0.69971 23.4372 0.834289C23.4592 0.827624 23.4817 0.820391 23.505 0.813489C23.7898 0.729086 24.1814 0.624367 24.6571 0.523248C25.6044 0.321874 26.9131 0.12803 28.3914 0.145647ZM28.351 3.50438C27.1827 3.49046 26.1306 3.64459 25.3615 3.80806C24.9791 3.88936 24.6735 3.97156 24.4672 4.0327C24.3777 4.0592 24.3089 4.08121 24.2624 4.0967L24.1143 4.17446L23.8369 4.2167L23.7942 4.22342L23.4915 4.26982L23.1919 4.2071C22.4161 4.0452 21.5196 3.94616 20.4805 3.92806V3.92774C18.7815 3.90112 17.5991 4.36608 16.7372 5.01638L15.9681 5.59654L15.076 5.23046V5.23014H15.0753C15.0716 5.22865 15.0645 5.22559 15.0541 5.2215C15.0335 5.21332 14.9997 5.20018 14.9539 5.18278C14.8622 5.14795 14.7225 5.09636 14.5419 5.03398C14.1796 4.9089 13.6572 4.74196 13.0314 4.58054C11.7606 4.25274 10.1502 3.97025 8.61542 4.05318C7.07816 4.13625 5.80919 4.57164 4.94599 5.48006C4.09734 6.37323 3.36702 8.01366 3.5223 11.1038L3.53002 11.2212C3.58232 11.8679 3.82737 13.3913 4.26435 15.3326C4.72244 17.3676 5.36358 19.7369 6.1341 21.8238C6.93366 23.9893 7.77638 25.5758 8.52319 26.2987C8.73364 26.5024 8.8606 26.5637 8.91012 26.5812C8.97254 26.5559 9.14579 26.4601 9.42336 26.1278C10.3119 25.0638 11.1825 24.0851 11.8295 23.3739C12.1534 23.0178 12.4225 22.7274 12.6114 22.5252C12.7058 22.4241 12.7806 22.3449 12.8318 22.2907C12.8575 22.2635 12.8773 22.2426 12.891 22.2283C12.8978 22.2211 12.903 22.2155 12.9067 22.2116C12.9086 22.2097 12.9099 22.2079 12.9109 22.2068L12.9125 22.2052H12.9128C12.9152 22.2073 12.9609 22.2505 13.8676 23.1079L12.9128 22.2049L13.8885 21.1822L15.0686 21.9623C15.47 22.2278 15.919 22.3879 16.3862 22.4247L19.1941 20.0766L18.7756 24.1924C18.7674 24.2736 18.7667 24.3784 18.7975 24.5774L18.9183 25.3611L18.3877 25.9521C18.3832 25.9571 18.3787 25.9622 18.3742 25.9672L19.6809 26.5713L20.3472 25.7438C20.7173 26.0392 20.9056 26.4057 20.9992 26.6225C21.1031 26.8631 21.1694 27.108 21.2149 27.3176C21.3059 27.7371 21.3554 28.2156 21.3874 28.6657C21.4497 29.5418 21.4635 30.6694 21.4945 31.4264C21.5287 32.2634 21.572 33.0332 21.6455 33.6955C21.712 34.2944 21.795 34.7225 21.8817 34.9989L21.919 35.108L21.9209 35.1131C21.9784 35.2679 22.0387 35.457 22.0794 35.5803C22.127 35.7248 22.1712 35.8538 22.2208 35.9784C22.322 36.2329 22.4216 36.4063 22.5225 36.5224C22.6069 36.6194 22.6998 36.6873 22.8494 36.7304C23.0161 36.7784 23.3538 36.8226 23.9578 36.6942L24.1921 36.643C25.3246 36.3866 25.8879 36.1307 26.3356 35.4961C26.9061 34.6875 27.4659 32.9932 27.5581 29.2155L29.1647 29.2542L27.5597 29.0619C27.6179 28.581 27.6695 28.0906 27.731 27.7201C27.7859 27.3895 27.8919 26.8219 28.2356 26.3326C28.6977 25.6747 29.3715 25.4212 29.9822 25.3825C30.1603 25.3712 30.3412 25.3777 30.5183 25.3944C30.4438 25.3185 30.3755 25.2403 30.3133 25.1601C30.1711 24.9772 30.0712 24.7981 30.0018 24.6382C29.9674 24.5587 29.9405 24.4845 29.9199 24.4177C29.9096 24.3844 29.901 24.3528 29.8935 24.3233C29.8898 24.3085 29.8864 24.2942 29.8833 24.2804C29.8817 24.2736 29.8802 24.2669 29.8788 24.2603C29.878 24.257 29.8775 24.2536 29.8768 24.2503C29.8765 24.2487 29.8757 24.2464 29.8755 24.2455C29.8751 24.2432 29.8784 24.2399 31.528 23.9086L29.8746 24.2407L29.7351 23.5524L30.1294 22.97C32.4114 19.5992 34.0337 15.7609 34.8719 12.5284C35.2915 10.9106 35.5007 9.49736 35.5176 8.40679C35.526 7.8621 35.4857 7.43645 35.4186 7.12519C35.3856 6.97192 35.349 6.86078 35.317 6.7847C35.2871 6.71352 35.266 6.68431 35.2643 6.68198L35.264 6.68166C33.3289 4.21794 30.6867 3.53221 28.351 3.50438Z" fill="#040000"/>
<path d="M36.3788 24.5052C31.8407 25.4358 31.5313 23.9089 31.5313 23.9089C36.3228 16.8309 38.3237 7.84594 36.596 5.6472C31.8802 -0.352633 23.7188 2.48508 23.5806 2.55717L23.5378 2.56373C22.6427 2.37695 21.639 2.26881 20.5103 2.24915C18.4568 2.21638 16.9002 2.78655 15.7188 3.67784C15.7188 3.67784 1.15998 -2.2925 1.8379 11.1883C1.9827 14.0555 5.96793 32.8906 10.7199 27.202C12.4575 25.1213 14.1359 23.3616 14.1359 23.3616C14.9684 23.9121 15.9689 24.1939 17.0154 24.0924L17.0976 24.0235C17.0713 24.2824 17.0845 24.5347 17.1305 24.8329C15.9063 26.1961 16.265 26.4353 13.8199 26.9366C11.3419 27.4445 12.7998 28.3489 13.7475 28.5849C14.8993 28.8732 17.5649 29.2763 19.365 26.7695L19.2926 27.0546C19.7731 27.438 20.1088 29.5417 20.0528 31.4521C19.9969 33.3624 19.9574 34.6732 20.3358 35.6955C20.7143 36.7179 21.0894 39.0215 24.3079 38.3366C26.9965 37.7632 28.3886 36.2755 28.5827 33.795C28.7209 32.0321 29.0303 32.2909 29.05 30.7148L29.3001 29.9677C29.5864 27.5789 29.3462 26.8056 31.0015 27.166L31.403 27.202C32.6206 27.2578 34.2167 27.0054 35.1546 26.5729C37.1719 25.6423 38.3665 24.0858 36.3788 24.4954V24.5052Z" fill="#33638B"/>
<path d="M19.5681 25.3147C19.8788 25.3233 20.1238 25.581 20.1151 25.8904C20.0529 28.1033 20.0611 30.3214 20.1386 32.1173C20.1773 33.0156 20.2332 33.802 20.3051 34.4264C20.3789 35.0682 20.4641 35.4842 20.5419 35.6801H20.5422C20.7604 36.2225 21.0614 36.9035 21.6349 37.3848C22.1743 37.8374 23.0287 38.172 24.4926 37.8606L24.7291 37.8075C25.8832 37.5358 26.6091 37.1638 27.0992 36.6565C27.6209 36.1165 27.943 35.3534 28.1466 34.1781V34.1777L28.2076 33.8075C28.5289 31.7851 29.061 27.3377 29.1338 26.3921L29.1412 26.3352C29.1917 26.0557 29.4475 25.8541 29.738 25.8763C30.0285 25.8985 30.2503 26.1367 30.2573 26.4206L30.2561 26.4779C30.1808 27.4555 29.6448 31.9356 29.318 33.9915L29.2556 34.3685C29.0347 35.644 28.6556 36.6619 27.9104 37.4334C27.1661 38.2038 26.1242 38.6586 24.7284 38.9563H24.7281C22.9737 39.3296 21.7515 38.9483 20.9096 38.2417C20.1019 37.564 19.7169 36.6426 19.4974 36.0971L19.4968 36.0955C19.3576 35.7469 19.2605 35.1954 19.1867 34.5541C19.1107 33.8937 19.0535 33.0785 19.0141 32.1653C18.9353 30.3377 18.9272 28.0926 18.99 25.859C18.9987 25.5497 19.2575 25.306 19.5681 25.3147Z" fill="white"/>
<path d="M15.4826 4.10166V4.10198V4.10166C15.4824 4.10157 15.4818 4.10154 15.4813 4.10134C15.48 4.10084 15.478 4.09991 15.4752 4.09878C15.4693 4.09642 15.4598 4.09285 15.4472 4.0879C15.422 4.07799 15.3835 4.06286 15.3328 4.04374C15.2312 4.00546 15.0806 3.95026 14.888 3.88438C14.5025 3.75249 13.9506 3.57811 13.2902 3.40982C11.9629 3.07159 10.2258 2.76585 8.52805 2.86261C6.82948 2.95942 5.23375 3.45427 4.09824 4.65206C2.96767 5.84469 2.20194 7.83108 2.36668 11.1081L2.37568 11.2444C2.43436 11.9843 2.69613 13.5782 3.13444 15.5254C3.59929 17.5904 4.25333 20.0104 5.04629 22.158C5.84894 24.3319 6.76201 26.1343 7.70694 27.0489C8.17161 27.4987 8.57505 27.6674 8.92302 27.6528C9.26746 27.6382 9.71495 27.4371 10.2541 26.7916L10.58 26.4041C11.3342 25.5138 12.0387 24.7248 12.5754 24.1366C12.8823 23.8003 13.1348 23.5293 13.3107 23.342C13.3987 23.2484 13.4677 23.1755 13.5148 23.126C13.5382 23.1014 13.5562 23.0825 13.5685 23.0697C13.5746 23.0633 13.5794 23.0583 13.5826 23.055C13.5842 23.0534 13.5853 23.052 13.5861 23.0511C13.5866 23.0507 13.5872 23.0504 13.5874 23.0502V23.0499H13.5877C13.5894 23.0514 13.6144 23.0754 13.994 23.4374L14.4005 23.8249H14.4002C14.4 23.8251 14.3999 23.8255 14.3995 23.8259C14.3989 23.8266 14.3977 23.8276 14.3963 23.8291C14.3935 23.832 14.3892 23.8365 14.3835 23.8425C14.3719 23.8546 14.3545 23.873 14.3317 23.8969C14.2862 23.9448 14.2187 24.0157 14.1325 24.1075C13.9598 24.2912 13.7112 24.5584 13.4084 24.8902C12.8027 25.554 11.9817 26.4758 11.1196 27.5081H11.1193C10.4706 28.2847 9.75416 28.7394 8.97058 28.7724C8.19055 28.8053 7.50189 28.4135 6.92247 27.8528C5.77916 26.7461 4.79568 24.7271 3.98994 22.5449C3.17451 20.3365 2.50792 17.8656 2.03631 15.7705C1.59665 13.8173 1.31787 12.1528 1.2528 11.3196L1.24284 11.1644V11.1641C1.06865 7.6992 1.8697 5.37046 3.28002 3.88278C4.68547 2.40026 6.60494 1.84951 8.46377 1.74357C10.3234 1.6376 12.186 1.97192 13.5691 2.32437C14.2639 2.50142 14.8452 2.68474 15.2537 2.82453C15.4581 2.89447 15.6198 2.95372 15.7313 2.99573C15.787 3.01673 15.8304 3.03363 15.8602 3.04533C15.875 3.05114 15.8865 3.05555 15.8946 3.05877C15.8986 3.06039 15.9019 3.06168 15.9042 3.06261C15.9054 3.06308 15.9064 3.06361 15.9071 3.06389L15.9077 3.06421C15.908 3.06434 15.9083 3.0646 15.6953 3.58326C15.6737 3.63589 15.6543 3.68317 15.6368 3.72566L15.9084 3.06453C16.196 3.18165 16.3339 3.50866 16.2163 3.7951C16.0986 4.08153 15.7702 4.21875 15.4826 4.10166ZM13.5877 23.0495C13.8027 22.8262 14.1591 22.8186 14.3835 23.0326C14.6079 23.2467 14.6155 23.6014 14.4005 23.8249L13.5877 23.0495Z" fill="white"/>
<path d="M31.9648 24.1633C31.791 24.4199 31.4412 24.4876 31.1835 24.3146C30.926 24.1416 30.8579 23.7936 31.0315 23.537L31.9648 24.1633ZM28.0373 1.20864C30.7949 1.18315 34.3028 1.92203 36.8837 5.09057L37.0061 5.24321L37.0572 5.31105C37.5755 6.02449 37.7562 7.13627 37.7369 8.38274C37.7166 9.70211 37.4689 11.2985 37.02 13.0298C36.1218 16.4934 34.3984 20.5683 31.9648 24.1633L31.0315 23.537C33.3893 20.0541 35.062 16.0975 35.9302 12.7495C36.3644 11.075 36.5929 9.57035 36.6115 8.36546C36.6306 7.12792 36.4257 6.32349 36.1195 5.93377C33.8208 3.00899 30.6471 2.30523 28.0475 2.32928C26.7487 2.3413 25.6092 2.5358 24.8258 2.71808C24.4347 2.80907 24.1352 2.89655 23.9523 2.95488C23.8893 2.97496 23.8423 2.99156 23.8112 3.00256C23.787 3.01413 23.762 3.02473 23.7357 3.03296L23.6807 3.04832C23.6739 3.04995 23.6625 3.05252 23.6486 3.05504C23.6393 3.05672 23.6071 3.0626 23.5657 3.064C23.5417 3.0643 23.4787 3.06017 23.4397 3.05408C23.3677 3.03526 23.178 2.92748 23.0814 2.81952C23.002 2.6461 23.0092 2.33616 23.0585 2.224C23.0924 2.1723 23.1553 2.10037 23.1807 2.07744C23.2225 2.04187 23.2606 2.02058 23.2681 2.01632C23.2825 2.00813 23.2944 2.00202 23.3012 1.99872C23.315 1.99195 23.3272 1.98687 23.334 1.984C23.3484 1.97783 23.3631 1.97206 23.3754 1.96736C23.4252 1.9484 23.5048 1.9205 23.6087 1.88736C23.8194 1.82018 24.1481 1.72496 24.5696 1.62688C25.4115 1.431 26.6356 1.22161 28.0373 1.20864ZM23.4194 1.9584C23.4096 1.96074 23.4021 1.96288 23.3989 1.96384L23.4217 1.95776C23.4209 1.95794 23.4201 1.95825 23.4194 1.9584Z" fill="white"/>
<path d="M11.8864 12.9531C11.4207 12.9652 11.4207 12.9652 11.4207 12.9649V12.9617C11.4207 12.9598 11.4205 12.9572 11.4204 12.954C11.4203 12.9476 11.4202 12.9386 11.4201 12.9272C11.4198 12.9041 11.4194 12.8708 11.4194 12.8283C11.4195 12.7432 11.4207 12.6204 11.4255 12.4654C11.4352 12.1557 11.4592 11.7161 11.5162 11.1902C11.6297 10.1415 11.8762 8.73356 12.4115 7.32171C12.9464 5.9111 13.7808 4.46818 15.0873 3.38538C16.4044 2.29376 18.166 1.59812 20.4895 1.63626L20.7042 1.64138C25.1918 1.78543 28.1668 4.10632 29.9656 6.39531C30.8772 7.55543 31.493 8.71393 31.8607 9.59372C32.044 10.0324 32.1698 10.4117 32.239 10.6955C32.2725 10.8332 32.2982 10.9704 32.3045 11.0894C32.3074 11.1434 32.3089 11.2336 32.2852 11.3307C32.2715 11.3871 32.1851 11.705 31.8305 11.779L31.6261 11.7838C29.3191 11.4157 28.262 11.806 27.8034 12.3288C27.3364 12.861 27.2734 13.7702 27.5787 14.9886C27.875 16.1709 28.4729 17.4595 29.0468 18.5563C29.3319 19.1014 29.6064 19.5904 29.8299 19.9899C30.0425 20.3698 30.2322 20.7087 30.3165 20.9121L30.3705 21.0376C30.644 21.6531 30.9743 22.0977 31.2729 22.4731C31.4258 22.6653 31.5955 22.8695 31.7254 23.0539C31.8526 23.2344 31.982 23.451 32.0436 23.7013C32.0476 23.7082 32.0533 23.7187 32.0628 23.731C32.0991 23.7776 32.1984 23.8822 32.4366 23.9803C32.9297 24.1834 34.0105 24.3548 36.2346 23.8971L36.4345 23.8603C36.629 23.8288 36.8078 23.8139 36.9686 23.8194C37.1705 23.8262 37.4171 23.8668 37.6203 24.0206C37.8633 24.2045 37.9513 24.4768 37.9269 24.7314C37.9059 24.9503 37.8062 25.144 37.7078 25.292C37.5056 25.596 37.1715 25.9105 36.7828 26.1992C36.3859 26.4941 35.8994 26.7858 35.3617 27.0347L35.3611 27.035C34.4384 27.4606 33.0118 27.7082 31.8205 27.7214C31.2237 27.7281 30.6363 27.6771 30.1741 27.5342C29.7657 27.408 29.176 27.1145 29.1393 26.4632L29.1332 26.3253C29.111 25.6454 29.22 25.1161 29.4446 24.7061C29.6906 24.2572 30.0427 24.0106 30.3689 23.8642C30.5267 23.7933 30.6784 23.7459 30.8005 23.7106C30.804 23.7095 30.8074 23.7083 30.8108 23.7074C30.8085 23.7041 30.8063 23.7007 30.804 23.6974C30.6991 23.5485 30.5682 23.3926 30.3904 23.1691C30.0475 22.7381 29.6189 22.1636 29.2769 21.3409L29.2762 21.3397C29.2245 21.2145 29.0794 20.9517 28.8465 20.5355C28.6242 20.1381 28.3422 19.6356 28.0486 19.0744C27.4647 17.9585 26.8161 16.5745 26.4867 15.26C26.1663 13.9814 26.0983 12.569 26.9559 11.5915C27.7246 10.7153 29.0695 10.3746 31.0309 10.5755C30.9767 10.4152 30.9077 10.2299 30.8217 10.0241C30.4881 9.22582 29.9211 8.15719 29.0792 7.08587C27.4255 4.98154 24.7355 2.89154 20.6657 2.76138L20.4709 2.75658C18.4029 2.72264 16.9066 3.33524 15.8071 4.24651C14.6969 5.16666 13.9558 6.42152 13.4643 7.71755C12.9734 9.01226 12.7424 10.32 12.6352 11.3102C12.5817 11.8037 12.5596 12.2146 12.5507 12.5003C12.5462 12.6431 12.5449 12.7544 12.5449 12.8289C12.5449 12.8661 12.5453 12.894 12.5455 12.9121C12.5456 12.9212 12.5454 12.9279 12.5455 12.932C12.5456 12.9339 12.5458 12.9354 12.5458 12.9361V12.9364C12.5539 13.2457 12.3085 13.5031 11.9979 13.5112C11.6873 13.5192 11.4289 13.2749 11.4207 12.9656L11.8864 12.9531ZM31.4436 24.6888C31.3374 24.7257 31.2003 24.7619 31.1145 24.7867C31.0101 24.8169 30.9176 24.8472 30.8313 24.8859C30.6693 24.9586 30.5332 25.0589 30.4325 25.2427C30.3282 25.4331 30.2333 25.7661 30.2609 26.3534C30.2885 26.3754 30.3561 26.417 30.5077 26.4638C30.8092 26.557 31.2634 26.6069 31.808 26.6008C32.8997 26.5887 34.1554 26.3563 34.888 26.0184C35.3586 25.8005 35.7778 25.5476 36.1099 25.301C36.2579 25.191 36.3824 25.0859 36.4846 24.9906L36.4628 24.9947C34.149 25.4709 32.8043 25.3444 32.0066 25.0158C31.7746 24.9203 31.5902 24.807 31.4436 24.6888ZM11.9902 12.9505C11.9879 12.9506 11.9855 12.9508 11.9831 12.9508C11.9488 12.9517 11.9166 12.9523 11.8864 12.9531L11.9902 12.9505Z" fill="white"/>
<path d="M17.8829 23.73C18.2807 23.6954 18.6106 23.8361 18.787 23.9089L18.7866 23.9092C19.3442 24.1387 19.7643 24.6627 19.9677 25.2094C20.173 25.7614 20.2025 26.4666 19.7861 27.0458L19.7864 27.0462C17.7692 29.859 14.7696 29.3782 13.5746 29.0791V29.0794C13.2945 29.0097 12.9802 28.8922 12.704 28.7418C12.4496 28.6033 12.1343 28.3875 11.9674 28.0801C11.8748 27.9094 11.817 27.6882 11.8733 27.4446C11.9282 27.2067 12.074 27.0248 12.2377 26.8919C12.5454 26.6422 13.0328 26.4692 13.6697 26.3386L14.0933 26.2481C14.9962 26.0445 15.3258 25.8951 15.5456 25.7207C15.6752 25.6179 15.7873 25.4896 15.963 25.2689C16.1344 25.0536 16.3546 24.7666 16.6746 24.4103L16.7167 24.3681C16.7171 24.3677 16.7175 24.3672 16.718 24.3668C17.0864 23.9725 17.4738 23.7656 17.8829 23.73ZM17.9809 24.8465C17.9152 24.8522 17.7613 24.8856 17.5162 25.1578C17.5079 25.1671 17.4985 25.1754 17.4896 25.1841C17.2107 25.4966 17.0219 25.7429 16.8449 25.9652C16.6672 26.1883 16.4865 26.4069 16.2471 26.5969C15.8211 26.935 15.2714 27.1335 14.3266 27.3447L13.8969 27.4362C13.6069 27.4957 13.389 27.5581 13.2294 27.6183C13.1797 27.6371 13.1376 27.6555 13.1019 27.6721C13.1426 27.6999 13.19 27.7291 13.2439 27.7585C13.4069 27.8472 13.5984 27.9228 13.7735 27.9726L13.8474 27.9921L13.8481 27.9924L14.0698 28.0446C15.2456 28.3017 17.3869 28.4636 18.8705 26.395L18.8712 26.394L18.8946 26.3582C19.0066 26.1739 19.0259 25.9039 18.9123 25.5985C18.7967 25.2878 18.5844 25.0568 18.3942 24.9617L18.3566 24.9447L18.356 24.9444C18.1672 24.8665 18.0726 24.8385 17.9809 24.8465Z" fill="white"/>
<path d="M14.8484 10.8688C15.6722 10.6797 16.6024 10.6189 17.4139 10.9309C18.2688 11.2596 18.9073 11.9696 19.158 13.1242L19.2114 13.376C19.743 15.9519 19.6733 17.7108 19.3676 19.0544C19.2104 19.7449 18.9941 20.3109 18.7817 20.8036C18.5599 21.3181 18.3748 21.6853 18.2238 22.089V22.0893C18.0101 22.659 17.8208 23.1469 17.6958 23.5949C17.571 24.0421 17.5283 24.3911 17.5717 24.6765C17.6183 24.9825 17.4069 25.2682 17.0996 25.3146C16.7924 25.361 16.5054 25.1505 16.4588 24.8445C16.4477 24.7716 16.4404 24.6984 16.4357 24.625C13.3261 24.5476 10.8535 21.546 11.3307 18.136L11.3618 17.9034C11.6639 15.5109 11.4172 13.5651 11.421 12.9507L11.4232 12.9011C11.4327 12.7883 11.4702 12.6984 11.4994 12.6416C11.5348 12.5726 11.5776 12.5144 11.6154 12.4688C11.6908 12.378 11.7844 12.2927 11.8792 12.216C12.0719 12.0602 12.3304 11.8917 12.6258 11.728C13.2176 11.4002 14.0142 11.0604 14.8484 10.8688ZM17.0084 11.9763C16.4978 11.7801 15.8259 11.7946 15.1013 11.961C14.3873 12.125 13.6891 12.4211 13.1728 12.7072C12.9142 12.8505 12.7153 12.9835 12.5888 13.0858C12.5747 13.0972 12.5623 13.1082 12.5512 13.1178C12.5843 13.7858 12.7623 15.7891 12.4776 18.049L12.4455 18.2906C12.0454 21.15 14.1418 23.4957 16.5565 23.505C16.5737 23.4347 16.592 23.3645 16.6115 23.2948C16.753 22.7878 16.9649 22.2419 17.169 21.6976L17.2327 21.5341C17.3873 21.1491 17.5833 20.7425 17.7475 20.3616C17.9446 19.9046 18.1332 19.4069 18.2697 18.8068C18.533 17.6498 18.6157 16.0554 18.1091 13.601L18.058 13.361C17.8792 12.538 17.4756 12.156 17.0084 11.9763Z" fill="white"/>
<path d="M15.643 12.872C15.6166 13.0555 15.9786 13.5438 16.4525 13.6093C16.9231 13.6749 17.3279 13.2915 17.3542 13.1112C17.3805 12.9277 17.0185 12.7279 16.5446 12.6623C16.0708 12.5968 15.6693 12.6918 15.643 12.8753V12.872Z" fill="white"/>
<path d="M15.8828 12.4939C16.0737 12.4488 16.3167 12.4425 16.5705 12.4776C16.8243 12.5127 17.0569 12.5845 17.2284 12.6795C17.3136 12.7267 17.3927 12.7847 17.4505 12.8546C17.5085 12.9248 17.5566 13.0227 17.5401 13.1378V13.1384C17.5264 13.2322 17.4719 13.3215 17.4145 13.3922C17.353 13.4677 17.2712 13.5426 17.1754 13.6072C16.985 13.7356 16.7199 13.8352 16.4266 13.7944V13.7941C16.1352 13.7537 15.8899 13.587 15.7244 13.4139C15.6406 13.3263 15.572 13.2317 15.5251 13.1413C15.4824 13.059 15.4423 12.9507 15.4573 12.8459H15.4583C15.4756 12.7332 15.5473 12.6534 15.6215 12.6021C15.6961 12.5505 15.788 12.5163 15.8828 12.4939ZM16.5191 12.8475C16.2991 12.8171 16.1045 12.8256 15.9696 12.8574C15.9016 12.8735 15.8585 12.8931 15.8356 12.909C15.8349 12.9094 15.8342 12.9098 15.8336 12.9102C15.8373 12.9224 15.8444 12.9421 15.8587 12.9698C15.8871 13.0245 15.9335 13.0907 15.9962 13.1563C16.1076 13.2728 16.2536 13.3713 16.4105 13.411L16.4786 13.4245L16.5448 13.4299C16.6985 13.4339 16.8457 13.3785 16.9649 13.2981C17.0323 13.2526 17.0861 13.2019 17.1227 13.157C17.1459 13.1283 17.1577 13.1074 17.1635 13.0955C17.1626 13.0944 17.162 13.093 17.1609 13.0917C17.1434 13.0705 17.1071 13.0398 17.0459 13.0059C16.9245 12.9387 16.7392 12.878 16.5191 12.8475Z" fill="white"/>
<path d="M30.0241 12.499C30.0504 12.6825 29.6884 13.1707 29.2146 13.2363C28.7407 13.3018 28.3392 12.9184 28.3129 12.7382C28.2865 12.5547 28.6518 12.3548 29.1224 12.2893C29.593 12.2237 29.9978 12.3188 30.0241 12.5023V12.499Z" fill="white"/>
<path d="M29.1091 12.1964C29.353 12.1625 29.584 12.1694 29.7612 12.2111C29.8495 12.232 29.9294 12.2624 29.9913 12.3049C30.0524 12.3469 30.1032 12.4066 30.1157 12.4854H30.1166C30.1274 12.5607 30.0986 12.6473 30.0585 12.7247C30.0162 12.8063 29.9531 12.8938 29.8747 12.9759C29.7186 13.1391 29.4913 13.2917 29.2271 13.3283C28.9613 13.365 28.7195 13.2756 28.5429 13.1561C28.4543 13.0962 28.3796 13.0272 28.3247 12.9593C28.2717 12.8938 28.2297 12.8205 28.2196 12.7513V12.751C28.208 12.6702 28.2416 12.5976 28.2896 12.5398C28.3376 12.4822 28.4061 12.4312 28.4854 12.3875C28.6446 12.2995 28.8654 12.2304 29.1091 12.1964ZM29.7178 12.3929C29.5685 12.3577 29.3618 12.3498 29.1352 12.3814C28.9083 12.413 28.7107 12.4764 28.5763 12.5507C28.5089 12.5879 28.4618 12.6254 28.4339 12.6588C28.4063 12.6921 28.4038 12.7134 28.4053 12.7244L28.4105 12.7439C28.4189 12.7671 28.4376 12.801 28.4709 12.8422C28.5134 12.8948 28.574 12.9513 28.6483 13.0015C28.7975 13.1024 28.9933 13.1721 29.2014 13.1433C29.411 13.1143 29.6018 12.9902 29.7387 12.847C29.8066 12.7759 29.8587 12.7026 29.8917 12.639C29.9246 12.5755 29.932 12.5336 29.9309 12.5151L29.928 12.5049C29.9232 12.4933 29.9116 12.4774 29.8846 12.4588C29.8485 12.434 29.7928 12.4106 29.7178 12.3929Z" fill="white"/>
<path d="M31.6817 10.6717C31.9725 10.6559 32.2239 10.8629 32.2682 11.1434L32.2743 11.2004L32.2807 11.3447C32.3063 12.0587 32.2264 12.6669 32.1377 13.2519C32.0424 13.88 31.9393 14.4698 31.9159 15.1943V15.1946C31.8993 15.7043 31.952 16.2436 32.0213 16.8334C32.0893 17.4112 32.1745 18.0437 32.2061 18.6842C32.2684 19.9448 32.129 21.3053 31.2594 22.6699L31.1729 22.802C31 23.0591 30.6505 23.128 30.3923 22.9559C30.134 22.7838 30.0649 22.4358 30.2377 22.1787L30.3075 22.0721C31.0105 20.9702 31.1377 19.8667 31.082 18.7393C31.0527 18.1474 30.9747 17.5675 30.9036 16.9636C30.834 16.3716 30.7715 15.7593 30.7911 15.1582C30.8171 14.3526 30.9333 13.6876 31.0248 13.0846C31.1054 12.5532 31.1687 12.06 31.1591 11.5041L31.1504 11.2618L31.1501 11.2045C31.1633 10.9208 31.3907 10.6876 31.6817 10.6717Z" fill="white"/>
</svg>
