<svg width="41" height="24" viewBox="0 0 41 24" fill="none" xmlns="http://www.w3.org/2000/svg">
<path d="M11.8559 8.90205C11.8559 9.38995 11.909 9.78562 12.0022 10.0756C12.1087 10.3658 12.2416 10.6822 12.4279 11.0251C12.4945 11.1306 12.521 11.2361 12.521 11.3284C12.521 11.4603 12.4412 11.5921 12.2682 11.724L11.4301 12.2779C11.3104 12.357 11.1906 12.3965 11.0842 12.3965C10.9511 12.3965 10.8182 12.3306 10.6851 12.2119C10.5058 12.0209 10.3455 11.8134 10.2061 11.5921C10.0731 11.3679 9.94001 11.1173 9.79373 10.814C8.75607 12.0272 7.45231 12.6338 5.88245 12.6338C4.76492 12.6338 3.87361 12.3174 3.22179 11.6844C2.56989 11.0514 2.2373 10.2075 2.2373 9.15252C2.2373 8.03159 2.63639 7.12175 3.44793 6.43605C4.25947 5.75035 5.337 5.40748 6.70731 5.40748C7.15958 5.40748 7.62525 5.44704 8.11748 5.51304C8.6097 5.579 9.1152 5.68448 9.64737 5.80315V4.84046C9.64737 3.83822 9.43447 3.1394 9.02206 2.73057C8.59638 2.32179 7.87798 2.12399 6.85358 2.12399C6.38795 2.12399 5.90905 2.17675 5.41682 2.29543C4.9246 2.41411 4.44561 2.55918 3.98006 2.74382C3.7672 2.83609 3.60756 2.88889 3.51443 2.91529C3.4213 2.94169 3.35479 2.95485 3.30157 2.95485C3.1153 2.95485 3.02221 2.82293 3.02221 2.54606V1.89984C3.02221 1.68881 3.0488 1.53057 3.1153 1.4383C3.18184 1.34606 3.30157 1.25366 3.4878 1.16143C3.95343 0.92405 4.51218 0.726229 5.16405 0.567967C5.81587 0.396533 6.50772 0.317416 7.2394 0.317416C8.82248 0.317416 9.97983 0.673443 10.7249 1.38554C11.4566 2.09764 11.829 3.17896 11.829 4.62951L11.829 8.90205H11.8559ZM6.45466 10.9064C6.8937 10.9064 7.34606 10.8273 7.82492 10.6691C8.30387 10.5108 8.72955 10.2207 9.08877 9.8251C9.30159 9.57446 9.46123 9.29759 9.54105 8.98113C9.62086 8.6647 9.67413 8.28219 9.67413 7.83384V7.27994C9.2884 7.18771 8.87591 7.1085 8.45023 7.05575C8.02455 7.00307 7.61214 6.97667 7.19974 6.97667C6.30834 6.97667 5.65653 7.14815 5.21749 7.50417C4.77849 7.8602 4.56563 8.36131 4.56563 9.0206C4.56563 9.64042 4.72526 10.1019 5.05785 10.4184C5.37704 10.7482 5.84267 10.9064 6.45466 10.9064ZM17.1374 12.3306C16.898 12.3306 16.7383 12.291 16.6318 12.1987C16.5254 12.1195 16.4323 11.9349 16.3525 11.6844L13.2261 1.49097C13.1464 1.22726 13.1065 1.05575 13.1065 0.963512C13.1065 0.752519 13.2129 0.633843 13.4257 0.633843L14.7294 0.633843C14.9822 0.633843 15.1551 0.673402 15.2483 0.765719C15.3547 0.844836 15.4345 1.02947 15.5143 1.28002L17.7493 10.0097L19.8247 1.28002C19.8913 1.01631 19.9711 0.844836 20.0775 0.765719C20.184 0.686602 20.3702 0.633843 20.6097 0.633843L21.6739 0.633843C21.9267 0.633843 22.0996 0.673402 22.206 0.765719C22.3125 0.844836 22.4056 1.02947 22.4588 1.28002L24.5608 10.1152L26.8624 1.28002C26.9422 1.01631 27.0354 0.844836 27.1285 0.765719C27.2349 0.686602 27.4078 0.633843 27.6473 0.633843H28.8846C29.0975 0.633843 29.2172 0.73936 29.2172 0.963512C29.2172 1.02947 29.2039 1.09539 29.1906 1.17451C29.1773 1.25362 29.1506 1.35914 29.0975 1.50426L25.8913 11.6977C25.8114 11.9614 25.7183 12.1328 25.6119 12.2119C25.4523 12.3306 25.3326 12.3439 25.1065 12.3439H23.9624C23.7095 12.3439 23.5366 12.3043 23.4302 12.2119C23.3238 12.1197 23.2307 11.9482 23.1774 11.6845L21.1153 3.17896L19.0664 11.6712C18.9999 11.9349 18.9201 12.1065 18.8136 12.1987C18.7072 12.291 18.5209 12.3306 18.2815 12.3306L17.1374 12.3306ZM34.2324 12.6866C33.5407 12.6866 32.8489 12.6075 32.1837 12.4493C31.5186 12.2911 30.9998 12.1196 30.6539 11.9219C30.4409 11.8032 30.2947 11.6713 30.2414 11.5526C30.1883 11.434 30.1616 11.302 30.1616 11.1834V10.5108C30.1616 10.234 30.2681 10.102 30.4676 10.102C30.5474 10.102 30.6272 10.1152 30.7071 10.1416C30.7869 10.168 30.9066 10.2207 31.0397 10.2735C31.492 10.4713 31.9842 10.6296 32.503 10.735C33.0352 10.8405 33.554 10.8932 34.0862 10.8932C34.9243 10.8932 35.5762 10.7482 36.0285 10.458C36.4809 10.1679 36.7202 9.74598 36.7202 9.20532C36.7202 8.83609 36.6006 8.53278 36.3611 8.28223C36.1216 8.03164 35.6693 7.80744 35.0173 7.59653L33.0883 7.00311C32.1171 6.69984 31.3987 6.25146 30.9598 5.65808C30.5207 5.07786 30.2946 4.43164 30.2946 3.74598C30.2946 3.19208 30.4143 2.70416 30.6538 2.28223C31.013 1.64933 31.2126 1.49102 31.6116 1.20091C32.0108 0.897636 32.463 0.673443 32.9952 0.515209C33.5274 0.356974 34.0861 0.291016 34.6715 0.291016C34.9641 0.291016 35.2701 0.304174 35.5628 0.343733C35.8688 0.383291 36.1482 0.436009 36.4276 0.488809C36.6936 0.554767 36.9464 0.620726 37.1859 0.699843C37.4253 0.77896 37.6116 0.858078 37.7446 0.937154C37.9309 1.04267 38.0639 1.14819 38.1438 1.26686C38.2236 1.37235 38.2635 1.51742 38.2635 1.70205V2.32187C38.2635 2.59874 38.1571 2.74382 37.9575 2.74382C37.8511 2.74382 37.6782 2.6911 37.452 2.58562C36.6937 2.24273 35.8423 2.07128 34.8977 2.07128C34.1394 2.07128 33.5407 2.18995 33.1283 2.44055C32.7159 2.69114 32.503 3.07353 32.503 3.61411C32.503 3.98337 32.6361 4.29984 32.9021 4.5504C33.1683 4.80099 33.6605 5.05146 34.3656 5.27565L36.2547 5.86907C37.2125 6.17234 37.9043 6.59433 38.3167 7.13499C38.7292 7.67565 38.9287 8.29543 38.9287 8.98117C38.9287 9.54819 38.8089 10.0625 38.5828 10.5108C38.3434 10.9592 38.024 11.3548 37.6116 11.6713C37.1992 12.001 36.707 12.2383 36.1349 12.4098C35.5363 12.5943 34.911 12.6866 34.2324 12.6866Z" fill="white"/>
<path d="M36.7468 19.0947C32.3699 22.299 26.0108 24.0002 20.5431 24.0002C12.8802 24.0002 5.97565 21.1914 0.760699 16.5233C0.348294 16.1541 0.720791 15.653 1.21301 15.9431C6.85373 19.1871 13.8115 21.1519 21.0087 21.1519C25.8645 21.1519 31.1992 20.1497 36.1083 18.0925C36.8399 17.7628 37.4652 18.5672 36.7468 19.0947Z" fill="#FF9900"/>
<path d="M38.5692 17.0372C38.0105 16.3251 34.8708 16.6943 33.4474 16.8658C33.0217 16.9184 32.9552 16.5493 33.3409 16.2723C35.842 14.5317 39.9528 15.0327 40.4317 15.6129C40.9107 16.2063 40.2986 20.281 37.9573 22.2327C37.5981 22.536 37.2521 22.3778 37.4119 21.9821C37.9439 20.6768 39.128 17.736 38.5692 17.0372Z" fill="#FF9900"/>
</svg>
