<svg width="41" height="25" viewBox="0 0 41 25" fill="none" xmlns="http://www.w3.org/2000/svg">
<path d="M20.3543 24.1452C20.2213 24.1454 20.0906 24.1112 19.9754 24.046L18.7692 23.3462C18.5883 23.2479 18.6787 23.2133 18.7366 23.1929C18.9269 23.1336 19.1091 23.0518 19.2791 22.9493C19.2935 22.9426 19.3094 22.9397 19.3253 22.941C19.3412 22.9422 19.3565 22.9475 19.3696 22.9564L20.2955 23.495C20.3125 23.5042 20.3317 23.5089 20.3511 23.5089C20.3705 23.5089 20.3897 23.5042 20.4067 23.495L24.0191 21.4523C24.036 21.4425 24.05 21.4285 24.0597 21.4117C24.0694 21.3949 24.0744 21.3759 24.0742 21.3566V17.2729C24.0744 17.2533 24.0693 17.2339 24.0594 17.2168C24.0496 17.1998 24.0354 17.1855 24.0182 17.1754L20.4076 15.138C20.3907 15.1284 20.3715 15.1234 20.352 15.1234C20.3325 15.1234 20.3133 15.1284 20.2964 15.138L16.6867 17.1754C16.6693 17.1852 16.6548 17.1992 16.6447 17.2162C16.6345 17.2331 16.6291 17.2523 16.6289 17.272V21.3557C16.629 21.375 16.6344 21.3939 16.6444 21.4106C16.6544 21.4272 16.6687 21.441 16.6858 21.4505L17.676 22.0103C18.2131 22.2761 18.5413 21.9643 18.5413 21.656V17.621C18.5413 17.6076 18.544 17.5942 18.5493 17.5818C18.5546 17.5694 18.5623 17.5581 18.5721 17.5487C18.5818 17.5392 18.5934 17.5317 18.6061 17.5266C18.6188 17.5216 18.6325 17.519 18.6462 17.5191H19.1046C19.1323 17.5191 19.1588 17.5298 19.1785 17.5489C19.1981 17.568 19.2093 17.5939 19.2095 17.621V21.6533C19.2095 22.3558 18.8189 22.758 18.1398 22.758C17.9309 22.758 17.7664 22.758 17.307 22.5365L16.3603 22.005C16.2449 21.9393 16.1492 21.8451 16.0827 21.7318C16.0162 21.6184 15.9813 21.49 15.9814 21.3592V17.2755C15.9814 17.1449 16.0163 17.0166 16.0828 16.9034C16.1493 16.7902 16.245 16.6962 16.3603 16.6306L19.9772 14.5852C20.0935 14.5229 20.2239 14.4902 20.3565 14.4902C20.4891 14.4902 20.6195 14.5229 20.7358 14.5852L24.3527 16.6306C24.4681 16.6961 24.564 16.7902 24.6306 16.9033C24.6973 17.0165 24.7324 17.1449 24.7325 17.2755V21.3592C24.7324 21.49 24.6972 21.6185 24.6306 21.7318C24.564 21.8451 24.4681 21.9393 24.3527 22.005L20.7358 24.0486C20.6196 24.1134 20.4879 24.1468 20.3543 24.1452Z" fill="#679E63"/>
<path d="M21.471 21.3313C19.8904 21.3313 19.5586 20.6227 19.5586 20.0247C19.5586 20.0113 19.5613 19.9979 19.5666 19.9855C19.5719 19.9731 19.5796 19.9618 19.5894 19.9524C19.5991 19.9429 19.6107 19.9354 19.6234 19.9303C19.6361 19.9253 19.6498 19.9227 19.6635 19.9228H20.1301C20.1554 19.9226 20.18 19.9315 20.1992 19.9478C20.2183 19.9642 20.2307 19.9868 20.234 20.0114C20.3046 20.4765 20.5153 20.7121 21.471 20.7121C22.2315 20.7121 22.5561 20.5429 22.5561 20.1479C22.5561 19.9202 22.4657 19.7501 21.2811 19.6367C20.2928 19.5411 19.6816 19.3276 19.6816 18.5525C19.6816 17.8385 20.2955 17.4133 21.3263 17.4133C22.4828 17.4133 23.0561 17.8066 23.1285 18.6534C23.1296 18.6676 23.1277 18.6818 23.123 18.6951C23.1183 18.7085 23.1109 18.7208 23.1011 18.7313C23.0914 18.7418 23.0795 18.7501 23.0664 18.756C23.0532 18.7618 23.0389 18.7649 23.0245 18.7651H22.5561C22.5324 18.7648 22.5095 18.7567 22.4911 18.7421C22.4727 18.7274 22.4599 18.7071 22.4548 18.6844C22.3427 18.1946 22.0687 18.0378 21.3272 18.0378C20.4963 18.0378 20.3995 18.3213 20.3995 18.5339C20.3995 18.7916 20.5135 18.866 21.6356 19.0122C22.7577 19.1584 23.2722 19.3595 23.2722 20.123C23.2722 20.8866 22.6149 21.3313 21.471 21.3313ZM26.6784 17.0483C26.6784 17.1832 26.6376 17.3151 26.5611 17.4273C26.4846 17.5394 26.3758 17.6269 26.2486 17.6785C26.1214 17.7301 25.9814 17.7436 25.8463 17.7173C25.7113 17.691 25.5872 17.626 25.4899 17.5306C25.3925 17.4352 25.3262 17.3137 25.2993 17.1814C25.2724 17.0491 25.2862 16.9119 25.3389 16.7873C25.3916 16.6626 25.4809 16.5561 25.5954 16.4812C25.7099 16.4062 25.8445 16.3662 25.9822 16.3662C26.1667 16.3667 26.3435 16.4387 26.474 16.5665C26.6044 16.6943 26.6779 16.8675 26.6784 17.0483ZM25.399 17.0483C25.3984 17.1617 25.4323 17.2727 25.4963 17.3672C25.5602 17.4617 25.6514 17.5355 25.7583 17.5791C25.8651 17.6228 25.9828 17.6343 26.0964 17.6123C26.2099 17.5903 26.3143 17.5358 26.3961 17.4556C26.478 17.3754 26.5337 17.2732 26.5561 17.1619C26.5786 17.0507 26.5668 16.9354 26.5222 16.8307C26.4777 16.7261 26.4024 16.6367 26.3059 16.574C26.2094 16.5114 26.0961 16.4782 25.9804 16.4787C25.8267 16.4794 25.6795 16.5394 25.5707 16.6457C25.4618 16.752 25.4001 16.896 25.399 17.0465V17.0483ZM25.7209 16.6674H25.9921C26.0825 16.6674 26.2634 16.6674 26.2634 16.8703C26.2666 16.9137 26.2533 16.9568 26.2261 16.9913C26.1989 17.0258 26.1597 17.0492 26.116 17.0572C26.2227 17.0651 26.2299 17.1333 26.2453 17.2343C26.2491 17.3031 26.2625 17.3711 26.2851 17.4363H26.1187C26.1187 17.4 26.0889 17.2051 26.0889 17.1945C26.0789 17.1511 26.0636 17.1298 26.0084 17.1298H25.8719V17.4363H25.7209V16.6674ZM25.8682 17.0031H25.9921C26.0074 17.005 26.0229 17.0035 26.0375 16.9988C26.0521 16.9942 26.0655 16.9864 26.0767 16.9761C26.088 16.9658 26.0967 16.9532 26.1024 16.9392C26.1081 16.9252 26.1106 16.9101 26.1097 16.8951C26.1097 16.7905 26.0355 16.7905 25.9957 16.7905H25.8701L25.8682 17.0031Z" fill="#679E63"/>
<path fill-rule="evenodd" clip-rule="evenodd" d="M9.16817 8.1668C9.16833 8.08696 9.14702 8.00849 9.10638 7.93929C9.06574 7.87009 9.00721 7.8126 8.93668 7.7726L5.1046 5.61382C5.04054 5.57709 4.9681 5.55668 4.89392 5.55446H4.85413C4.78 5.55702 4.70764 5.5774 4.64345 5.61382L0.814977 7.7726C0.744571 7.81273 0.686142 7.87026 0.645523 7.93943C0.604905 8.0086 0.583517 8.087 0.583496 8.1668L0.591634 13.9814C0.591345 14.0211 0.601933 14.0601 0.622293 14.0944C0.642653 14.1287 0.672037 14.157 0.707374 14.1763C0.741897 14.1972 0.781655 14.2082 0.82221 14.2082C0.862766 14.2082 0.902524 14.1972 0.937046 14.1763L3.21297 12.9016C3.28324 12.8615 3.34159 12.8042 3.3822 12.7352C3.42281 12.6662 3.44427 12.5879 3.44445 12.5083L3.44445 9.79054C3.44424 9.71093 3.46554 9.63269 3.5062 9.56376C3.54686 9.49484 3.60542 9.43768 3.67593 9.39811L4.64525 8.85155C4.71539 8.81114 4.79537 8.79002 4.87673 8.79043C4.95755 8.7899 5.03697 8.81104 5.10641 8.85155L6.07573 9.39811C6.14606 9.43789 6.20447 9.49509 6.2451 9.56397C6.28573 9.63285 6.30715 9.71099 6.30721 9.79054L6.30721 12.5065C6.30717 12.5865 6.32852 12.665 6.36913 12.7343C6.40975 12.8036 6.46822 12.8613 6.53869 12.9016L8.8119 14.1763C8.8466 14.1972 8.8865 14.2082 8.92719 14.2082C8.96788 14.2082 9.00778 14.1972 9.04248 14.1763C9.07746 14.1566 9.10651 14.1282 9.12667 14.094C9.14684 14.0598 9.15741 14.021 9.15731 13.9814L9.16817 8.1668ZM27.5953 0.173886C27.56 0.15477 27.5203 0.144996 27.48 0.145528C27.4397 0.146061 27.4003 0.156883 27.3656 0.176923C27.3309 0.196964 27.3021 0.22553 27.2822 0.259798C27.2622 0.294066 27.2517 0.332849 27.2517 0.372314V6.13026C27.2517 6.15816 27.2442 6.18557 27.23 6.20974C27.2158 6.2339 27.1953 6.25396 27.1706 6.26789C27.1459 6.28182 27.118 6.28912 27.0895 6.28906C27.061 6.28901 27.0331 6.28159 27.0084 6.26756L26.05 5.72632C25.9796 5.68651 25.8997 5.66555 25.8185 5.66555C25.7372 5.66555 25.6574 5.68651 25.587 5.72632L21.7558 7.89219C21.6856 7.93204 21.6272 7.98925 21.5866 8.05811C21.546 8.12698 21.5245 8.20508 21.5243 8.28462V12.6181C21.5245 12.6977 21.546 12.7758 21.5866 12.8446C21.6272 12.9135 21.6856 12.9707 21.7558 13.0106L25.587 15.1782C25.6573 15.2183 25.7372 15.2394 25.8185 15.2394C25.8998 15.2394 25.9797 15.2183 26.05 15.1782L29.8802 13.0106C29.9504 12.9707 30.0086 12.9134 30.0491 12.8446C30.0896 12.7757 30.1108 12.6976 30.1108 12.6181V1.81623C30.1114 1.73618 30.0904 1.6574 30.0499 1.58787C30.0094 1.51834 29.9509 1.46052 29.8802 1.42026L27.5953 0.173886ZM27.2399 11.1946C27.24 11.2144 27.2346 11.2339 27.2245 11.251C27.2143 11.2681 27.1997 11.2823 27.182 11.292L25.8673 12.0353C25.8497 12.0453 25.8298 12.0506 25.8094 12.0506C25.7891 12.0506 25.7691 12.0453 25.7516 12.0353L24.4359 11.292C24.4183 11.2823 24.4037 11.2681 24.3935 11.251C24.3833 11.2339 24.378 11.2144 24.3781 11.1946V9.70639C24.3779 9.68644 24.3832 9.66683 24.3934 9.64955C24.4036 9.63227 24.4183 9.61795 24.4359 9.60806L25.7516 8.86395C25.7691 8.85391 25.7891 8.84862 25.8094 8.84862C25.8298 8.84862 25.8497 8.85391 25.8673 8.86395L27.182 9.60806C27.1997 9.61795 27.2144 9.63227 27.2246 9.64955C27.2347 9.66683 27.24 9.68644 27.2399 9.70639V11.1946ZM40.3538 9.66741C40.4238 9.62734 40.4817 9.57003 40.522 9.50118C40.5623 9.43233 40.5835 9.35435 40.5835 9.27498V8.22526C40.5835 8.14591 40.5623 8.06795 40.5218 7.99921C40.4813 7.93048 40.4231 7.8734 40.3529 7.83372L36.5462 5.66785C36.4758 5.62804 36.3959 5.60709 36.3147 5.60709C36.2334 5.60709 36.1536 5.62804 36.0832 5.66785L32.2529 7.83372C32.1826 7.8735 32.1242 7.9307 32.0836 7.99958C32.0429 8.06846 32.0215 8.1466 32.0214 8.22615V12.5579C32.0215 12.638 32.0431 12.7167 32.0843 12.7859C32.1254 12.8552 32.1845 12.9125 32.2556 12.9521L36.0615 15.0781C36.1305 15.1161 36.2084 15.1361 36.2875 15.1361C36.3667 15.1361 36.4446 15.1161 36.5136 15.0781L38.8157 13.8246C38.8513 13.8047 38.8808 13.776 38.9013 13.7413C38.9218 13.7066 38.9326 13.6672 38.9326 13.6271C38.9326 13.587 38.9218 13.5476 38.9013 13.5129C38.8808 13.4783 38.8513 13.4495 38.8157 13.4296L34.9611 11.2628C34.9259 11.2428 34.8967 11.2141 34.8764 11.1796C34.8561 11.1451 34.8454 11.106 34.8453 11.0661V9.71259C34.8453 9.67287 34.856 9.63385 34.8764 9.59948C34.8967 9.56511 34.9259 9.5366 34.9611 9.51682L36.1646 8.83561C36.1997 8.81562 36.2397 8.80509 36.2803 8.80509C36.321 8.80509 36.3609 8.81562 36.3961 8.83561L37.596 9.51327C37.6311 9.53305 37.6603 9.56157 37.6806 9.59594C37.701 9.63031 37.7117 9.66932 37.7117 9.70904V10.7756C37.7115 10.8155 37.7221 10.8546 37.7424 10.8892C37.7627 10.9237 37.792 10.9524 37.8273 10.9723C37.8625 10.9922 37.9025 11.0026 37.9432 11.0024C37.9839 11.0022 38.0238 10.9915 38.0589 10.9714L40.3538 9.66741Z" fill="white"/>
<path fill-rule="evenodd" clip-rule="evenodd" d="M36.2584 9.46499C36.2722 9.45722 36.2878 9.45312 36.3037 9.45312C36.3195 9.45312 36.3351 9.45722 36.3489 9.46499L37.084 9.88045C37.0974 9.88821 37.1085 9.89922 37.1162 9.91241C37.124 9.9256 37.1281 9.94052 37.1283 9.95575V10.7875C37.1281 10.8028 37.124 10.8177 37.1162 10.8309C37.1085 10.8441 37.0974 10.8551 37.084 10.8628L36.3489 11.2783C36.3351 11.2861 36.3195 11.2902 36.3037 11.2902C36.2878 11.2902 36.2722 11.2861 36.2584 11.2783L35.5233 10.8646C35.5099 10.8569 35.4988 10.8458 35.4911 10.8327C35.4833 10.8195 35.4792 10.8045 35.479 10.7893V9.95752C35.4792 9.9423 35.4833 9.92737 35.4911 9.91418C35.4988 9.90099 35.5099 9.88999 35.5233 9.88222L36.2584 9.46499Z" fill="#679E63"/>
<path fill-rule="evenodd" clip-rule="evenodd" d="M15.5765 5.69031C15.5068 5.65073 15.4275 5.62988 15.3469 5.62988C15.2662 5.62988 15.187 5.65073 15.1172 5.69031L11.3068 7.84378C11.237 7.88349 11.179 7.94048 11.1387 8.00904C11.0984 8.07759 11.0772 8.15532 11.0771 8.23443V12.5476C11.0772 12.6267 11.0984 12.7044 11.1387 12.773C11.179 12.8415 11.237 12.8985 11.3068 12.9382L15.1163 15.0935C15.1864 15.1331 15.2659 15.154 15.3469 15.154C15.4278 15.154 15.5074 15.1331 15.5775 15.0935L19.386 12.9382C19.4559 12.8985 19.5139 12.8415 19.5542 12.773C19.5945 12.7044 19.6157 12.6267 19.6157 12.5476V8.23443C19.6157 8.15532 19.5945 8.07759 19.5542 8.00904C19.5139 7.94048 19.4559 7.88349 19.386 7.84378L15.5765 5.69031Z" fill="url(#paint0_linear_2839_1624)"/>
<mask id="mask0_2839_1624" style="mask-type:luminance" maskUnits="userSpaceOnUse" x="11" y="5" width="9" height="11">
<path d="M15.5765 5.69031C15.5068 5.65073 15.4275 5.62988 15.3469 5.62988C15.2662 5.62988 15.187 5.65073 15.1172 5.69031L11.3068 7.84378C11.237 7.88349 11.179 7.94048 11.1387 8.00904C11.0984 8.07759 11.0772 8.15532 11.0771 8.23443V12.5476C11.0772 12.6267 11.0984 12.7044 11.1387 12.773C11.179 12.8415 11.237 12.8985 11.3068 12.9382L15.1163 15.0935C15.1864 15.1331 15.2659 15.154 15.3469 15.154C15.4278 15.154 15.5074 15.1331 15.5775 15.0935L19.386 12.9382C19.4559 12.8985 19.5139 12.8415 19.5542 12.773C19.5945 12.7044 19.6157 12.6267 19.6157 12.5476V8.23443C19.6157 8.15532 19.5945 8.07759 19.5542 8.00904C19.5139 7.94048 19.4559 7.88349 19.386 7.84378L15.5765 5.69031Z" fill="white"/>
</mask>
<g mask="url(#mask0_2839_1624)">
<path d="M19.3915 7.84398L15.573 5.6905C15.5355 5.66974 15.4953 5.65395 15.4536 5.64355L11.1631 12.833C11.2001 12.8739 11.2434 12.9089 11.2915 12.9367L15.1181 15.0919C15.1715 15.1218 15.2304 15.141 15.2914 15.1484C15.3524 15.1559 15.4143 15.1514 15.4735 15.1353L19.4946 7.92193C19.4641 7.89132 19.4294 7.86507 19.3915 7.84398Z" fill="url(#paint1_linear_2839_1624)"/>
<path d="M19.3957 12.9366C19.5063 12.8736 19.5872 12.7705 19.6208 12.6496L15.4325 5.63816C15.3219 5.616 15.2069 5.63395 15.1088 5.68865L11.311 7.82972L15.4126 15.1476C15.4717 15.1395 15.5288 15.1206 15.5808 15.0918L19.3957 12.9366Z" fill="url(#paint2_linear_2839_1624)"/>
<path d="M19.3958 12.9362L15.5818 15.0915C15.5298 15.1203 15.4727 15.1392 15.4136 15.1473L15.4895 15.2828L19.7249 12.8804V12.8246L19.6209 12.6475C19.5877 12.7691 19.5068 12.8729 19.3958 12.9362Z" fill="url(#paint3_linear_2839_1624)"/>
<path d="M19.3958 12.9362L15.5818 15.0915C15.5298 15.1203 15.4727 15.1392 15.4136 15.1473L15.4895 15.2828L19.7249 12.8804V12.8246L19.6209 12.6475C19.5877 12.7691 19.5068 12.8729 19.3958 12.9362Z" fill="url(#paint4_linear_2839_1624)"/>
</g>
<defs>
<linearGradient id="paint0_linear_2839_1624" x1="16.8958" y1="7.29456" x2="13.566" y2="14.2272" gradientUnits="userSpaceOnUse">
<stop stop-color="#3F873F"/>
<stop offset="0.33" stop-color="#3F8B3D"/>
<stop offset="0.64" stop-color="#3E9637"/>
<stop offset="0.93" stop-color="#3DA92E"/>
<stop offset="1" stop-color="#3DAE2B"/>
</linearGradient>
<linearGradient id="paint1_linear_2839_1624" x1="14.7664" y1="10.8948" x2="24.2834" y2="3.7169" gradientUnits="userSpaceOnUse">
<stop offset="0.14" stop-color="#3F873F"/>
<stop offset="0.4" stop-color="#529F44"/>
<stop offset="0.71" stop-color="#63B649"/>
<stop offset="0.91" stop-color="#6ABF4B"/>
</linearGradient>
<linearGradient id="paint2_linear_2839_1624" x1="10.9421" y1="10.3889" x2="19.7501" y2="10.3889" gradientUnits="userSpaceOnUse">
<stop offset="0.09" stop-color="#6ABF4B"/>
<stop offset="0.29" stop-color="#63B649"/>
<stop offset="0.6" stop-color="#529F44"/>
<stop offset="0.86" stop-color="#3F873F"/>
</linearGradient>
<linearGradient id="paint3_linear_2839_1624" x1="10.9422" y1="13.9656" x2="19.7502" y2="13.9656" gradientUnits="userSpaceOnUse">
<stop offset="0.09" stop-color="#6ABF4B"/>
<stop offset="0.29" stop-color="#63B649"/>
<stop offset="0.6" stop-color="#529F44"/>
<stop offset="0.86" stop-color="#3F873F"/>
</linearGradient>
<linearGradient id="paint4_linear_2839_1624" x1="21.0342" y1="7.0906" x2="15.7793" y2="18.0328" gradientUnits="userSpaceOnUse">
<stop stop-color="#3F873F"/>
<stop offset="0.33" stop-color="#3F8B3D"/>
<stop offset="0.64" stop-color="#3E9637"/>
<stop offset="0.93" stop-color="#3DA92E"/>
<stop offset="1" stop-color="#3DAE2B"/>
</linearGradient>
</defs>
</svg>
