<svg width="38" height="40" viewBox="0 0 38 40" fill="none" xmlns="http://www.w3.org/2000/svg">
<path d="M22.4527 39.1841C21.471 40.4588 19.4807 39.7604 19.457 38.1328L19.1113 14.3271L34.634 14.3271C37.4454 14.3271 39.0135 17.6758 37.2652 19.9463L22.4527 39.1841Z" fill="url(#paint0_linear_2839_1626)"/>
<path d="M22.4527 39.1841C21.471 40.4588 19.4807 39.7604 19.457 38.1328L19.1113 14.3271L34.634 14.3271C37.4454 14.3271 39.0135 17.6758 37.2652 19.9463L22.4527 39.1841Z" fill="url(#paint1_linear_2839_1626)" fill-opacity="0.2"/>
<path d="M16.1396 0.878986C17.1214 -0.395705 19.1113 0.302702 19.135 1.93031L19.2867 25.736L3.95797 25.736C1.14658 25.736 -0.421826 22.3873 1.3268 20.1165L16.1396 0.878986Z" fill="#3ECF8E"/>
<defs>
<linearGradient id="paint0_linear_2839_1626" x1="19.1113" y1="19.6054" x2="33.0313" y2="25.2668" gradientUnits="userSpaceOnUse">
<stop stop-color="#249361"/>
<stop offset="1" stop-color="#3ECF8E"/>
</linearGradient>
<linearGradient id="paint1_linear_2839_1626" x1="12.9949" y1="10.9696" x2="19.5933" y2="23.0149" gradientUnits="userSpaceOnUse">
<stop/>
<stop offset="1" stop-opacity="0"/>
</linearGradient>
</defs>
</svg>
