<svg width="33" height="41" viewBox="0 0 33 41" fill="none" xmlns="http://www.w3.org/2000/svg">
<mask id="mask0_2839_1623" style="mask-type:luminance" maskUnits="userSpaceOnUse" x="0" y="0" width="33" height="41">
<path d="M32.8917 18.609L22.1247 29.3761L32.8917 40.1455L20.5835 40.1455L15.9694 35.5314L9.81408 29.3761L20.5835 18.609H32.8917ZM20.5835 0.145508L0.583496 20.1455L6.73879 26.3008L32.8917 0.145508L20.5835 0.145508Z" fill="white"/>
</mask>
<g mask="url(#mask0_2839_1623)">
<path d="M32.8912 18.6084L20.583 18.6084L9.81592 29.3778L15.9689 35.5307L32.8912 18.6084Z" fill="#54C5F8"/>
</g>
<mask id="mask1_2839_1623" style="mask-type:luminance" maskUnits="userSpaceOnUse" x="0" y="0" width="33" height="41">
<path d="M32.8917 18.609L22.1247 29.3761L32.8917 40.1455L20.5835 40.1455L15.9694 35.5314L9.81408 29.3761L20.5835 18.609H32.8917ZM20.5835 0.145508L0.583496 20.1455L6.73879 26.3008L32.8917 0.145508L20.5835 0.145508Z" fill="white"/>
</mask>
<g mask="url(#mask1_2839_1623)">
<path d="M6.73879 26.3008L0.583496 20.1455L20.5835 0.145508L32.8917 0.145508L6.73879 26.3008Z" fill="#54C5F8"/>
</g>
<mask id="mask2_2839_1623" style="mask-type:luminance" maskUnits="userSpaceOnUse" x="0" y="0" width="33" height="41">
<path d="M32.8917 18.609L22.1247 29.3761L32.8917 40.1455L20.5835 40.1455L15.9694 35.5314L9.81408 29.3761L20.5835 18.609H32.8917ZM20.5835 0.145508L0.583496 20.1455L6.73879 26.3008L32.8917 0.145508L20.5835 0.145508Z" fill="white"/>
</mask>
<g mask="url(#mask2_2839_1623)">
<path d="M15.9697 35.5309L20.5838 40.145H32.8921L22.1203 29.3779L15.9697 35.5309Z" fill="#01579B"/>
</g>
<mask id="mask3_2839_1623" style="mask-type:luminance" maskUnits="userSpaceOnUse" x="0" y="0" width="33" height="41">
<path d="M32.8917 18.609L22.1247 29.3761L32.8917 40.1455L20.5835 40.1455L15.9694 35.5314L9.81408 29.3761L20.5835 18.609H32.8917ZM20.5835 0.145508L0.583496 20.1455L6.73879 26.3008L32.8917 0.145508L20.5835 0.145508Z" fill="white"/>
</mask>
<g mask="url(#mask3_2839_1623)">
<path d="M15.9697 35.5309L25.0968 32.3709L22.1203 29.3779L15.9697 35.5309Z" fill="url(#paint0_linear_2839_1623)"/>
</g>
<mask id="mask4_2839_1623" style="mask-type:luminance" maskUnits="userSpaceOnUse" x="0" y="0" width="33" height="41">
<path d="M32.8917 18.609L22.1247 29.3761L32.8917 40.1455L20.5835 40.1455L15.9694 35.5314L9.81408 29.3761L20.5835 18.609H32.8917ZM20.5835 0.145508L0.583496 20.1455L6.73879 26.3008L32.8917 0.145508L20.5835 0.145508Z" fill="white"/>
</mask>
<g mask="url(#mask4_2839_1623)">
<path d="M9.81348 29.377L15.9661 23.2243L22.1188 29.377L15.9661 35.5296L9.81348 29.377Z" fill="#29B6F6"/>
</g>
<path d="M32.8917 18.609L22.1247 29.3761L32.8917 40.1455L20.5835 40.1455L15.9694 35.5314L9.81408 29.3761L20.5835 18.609H32.8917ZM20.5835 0.145508L0.583496 20.1455L6.73879 26.3008L32.8917 0.145508L20.5835 0.145508Z" fill="url(#paint1_radial_2839_1623)"/>
<defs>
<linearGradient id="paint0_linear_2839_1623" x1="17.765" y1="36.7185" x2="22.348" y2="32.135" gradientUnits="userSpaceOnUse">
<stop stop-color="#1A237E" stop-opacity="0.4"/>
<stop offset="1" stop-color="#1A237E" stop-opacity="0"/>
</linearGradient>
<radialGradient id="paint1_radial_2839_1623" cx="0" cy="0" r="1" gradientUnits="userSpaceOnUse" gradientTransform="translate(1.4935 2.87198) scale(48.9376 48.9376)">
<stop stop-color="white" stop-opacity="0.1"/>
<stop offset="1" stop-color="white" stop-opacity="0"/>
</radialGradient>
</defs>
</svg>
