<svg width="41" height="40" viewBox="0 0 41 40" fill="none" xmlns="http://www.w3.org/2000/svg">
<path d="M36.9995 2.89697C36.4435 4.19848 35.724 5.42749 34.8573 6.55573C33.0019 4.68228 30.7803 3.19108 28.3239 2.17039C25.8676 1.1497 23.2264 0.620241 20.5567 0.613349C17.8871 0.606458 15.2431 1.12227 12.7812 2.13027C10.3194 3.13826 8.08972 4.61796 6.22414 6.48182C4.35855 8.34567 2.89496 10.5558 1.91996 12.9815C0.944956 15.4071 0.478356 17.999 0.547764 20.6038C0.617172 23.2085 1.22118 25.7732 2.32405 28.1461C3.42691 30.519 5.00624 32.6519 6.96856 34.4186L7.71007 35.0619C10.524 37.3781 13.9398 38.889 17.5793 39.4273C21.2187 39.9655 24.9398 39.5101 28.3305 38.1114C31.7211 36.7128 34.6489 34.4255 36.7897 31.5029C38.9306 28.5803 40.2008 25.1364 40.4598 21.5526C41.0365 16.6475 39.5123 10.3753 36.9995 2.89697ZM9.85219 34.5794C9.64039 34.8335 9.35618 35.0205 9.03548 35.117C8.71479 35.2134 8.372 35.2149 8.05045 35.1212C7.72889 35.0276 7.44299 34.843 7.22889 34.5908C7.01478 34.3386 6.88208 34.0301 6.84755 33.7044C6.81302 33.3786 6.87821 33.0501 7.03489 32.7605C7.19157 32.4709 7.43269 32.2331 7.7278 32.0772C8.02291 31.9212 8.35874 31.8542 8.69287 31.8845C9.027 31.9148 9.34442 32.0411 9.60502 32.2475C9.94664 32.5299 10.1631 32.9303 10.2092 33.3649C10.2553 33.7996 10.1273 34.2348 9.85219 34.5794ZM36.8759 28.7495C31.9737 35.1423 21.4279 32.9712 14.7132 33.2928C14.7132 33.2928 13.5185 33.3733 12.3239 33.5341C12.3239 33.5341 12.777 33.3331 13.3537 33.132C18.0911 31.5238 20.3156 31.2021 23.1993 29.7547C28.5958 27.0609 33.9923 21.1506 35.0633 15.0392C33.0036 20.9093 26.742 25.9753 21.0571 28.0258C17.1436 29.4331 10.0994 30.8001 10.0994 30.8001L9.81099 30.6392C5.03242 28.3475 4.86764 18.2155 13.6009 14.9588C17.432 13.5114 21.0571 14.3155 25.2178 13.3506C29.6256 12.3454 34.7338 9.12893 36.7935 4.90728C39.1004 11.7021 41.9016 22.2361 36.8759 28.7495Z" fill="#6DB33F"/>
</svg>
