<svg width="41" height="41" viewBox="0 0 41 41" fill="none" xmlns="http://www.w3.org/2000/svg">
<g clip-path="url(#clip0_2839_1526)">
<path d="M20.5838 28.7171C31.1035 28.7171 39.6314 24.8795 39.6314 20.1456C39.6314 15.4118 31.1035 11.5742 20.5838 11.5742C10.064 11.5742 1.53613 15.4118 1.53613 20.1456C1.53613 24.8795 10.064 28.7171 20.5838 28.7171Z" stroke="#58C4DC" stroke-width="1.90476"/>
<path d="M13.1606 24.4304C18.4204 33.5408 26.0078 39.0074 30.1075 36.6404C34.2071 34.2735 33.2666 24.9693 28.0067 15.859C22.7469 6.74867 15.1595 1.28206 11.0598 3.649C6.96019 6.01593 7.90072 15.3201 13.1606 24.4304Z" stroke="#58C4DC" stroke-width="1.90476"/>
<path d="M13.1603 15.8589C7.90046 24.9692 6.95993 34.2734 11.0596 36.6403C15.1592 39.0072 22.7466 33.5406 28.0065 24.4303C33.2663 15.32 34.2068 6.01579 30.1072 3.64886C26.0075 1.28192 18.4202 6.74853 13.1603 15.8589Z" stroke="#58C4DC" stroke-width="1.90476"/>
<path d="M20.583 23.954C22.6869 23.954 24.3925 22.2484 24.3925 20.1445C24.3925 18.0405 22.6869 16.335 20.583 16.335C18.479 16.335 16.7734 18.0405 16.7734 20.1445C16.7734 22.2484 18.479 23.954 20.583 23.954Z" fill="#58C4DC"/>
</g>
<defs>
<clipPath id="clip0_2839_1526">
<rect width="40" height="40" fill="white" transform="translate(0.583496 0.145508)"/>
</clipPath>
</defs>
</svg>
