<svg width="41" height="9" viewBox="0 0 41 9" fill="none" xmlns="http://www.w3.org/2000/svg">
<g clip-path="url(#clip0_2839_1533)">
<path d="M27.1744 0.148437L34.1417 0.148437V1.43117L31.3779 1.43117V8.17942H29.9958V1.43117L27.1744 1.43117V0.148437ZM15.7158 0.148437V1.43117L10.1311 1.43117V3.49467L14.6223 3.49467V4.7774L10.1311 4.7774V6.89669L15.7158 6.89669V8.17953H8.74914L8.74914 1.43117H8.74854V0.148438L15.7158 0.148437ZM19.1948 0.151779L17.3863 0.151779L23.8641 8.18277H25.6779L22.4386 4.17001L25.6727 0.157855L23.8641 0.160691L21.5331 3.04839L19.1948 0.151779ZM21.0507 5.88839L20.145 4.76515L17.3811 8.18894H19.1948L21.0507 5.88839Z" fill="white"/>
<path fill-rule="evenodd" clip-rule="evenodd" d="M8.7974 8.17984L2.31091 0.145508L0.583496 0.145508L0.583496 8.17649H1.96543L1.96543 1.86217L7.06136 8.17984L8.7974 8.17984Z" fill="white"/>
<path d="M34.4521 8.1305C34.4041 8.13127 34.3563 8.12238 34.3118 8.10435C34.2672 8.08633 34.2267 8.05954 34.1928 8.02559C34.1207 7.95562 34.085 7.87096 34.086 7.7706C34.0851 7.67305 34.1207 7.5893 34.1928 7.51936C34.2267 7.48541 34.2672 7.45863 34.3118 7.4406C34.3563 7.42258 34.4041 7.41369 34.4521 7.41445C34.5495 7.41445 34.6347 7.44939 34.7068 7.51936C34.7799 7.58924 34.8163 7.67309 34.8173 7.7706C34.8172 7.8346 34.7993 7.89732 34.7658 7.95187C34.7328 8.0057 34.6867 8.05035 34.6318 8.08169C34.5776 8.11408 34.5154 8.13096 34.4521 8.1305ZM36.8108 4.74721H37.4232V7.10063C37.4223 7.31683 37.3754 7.50184 37.2837 7.65739C37.191 7.81293 37.0627 7.93162 36.8979 8.01536C36.7341 8.0982 36.5421 8.14063 36.3239 8.14063C36.1244 8.14063 35.9456 8.10468 35.7865 8.03471C35.6273 7.96483 35.5009 7.85992 35.4082 7.72179C35.3145 7.58377 35.2686 7.41172 35.2686 7.20554H35.882C35.8829 7.29567 35.9035 7.37395 35.9428 7.43926C35.9815 7.50386 36.0381 7.55593 36.1058 7.58924C36.1759 7.62428 36.2564 7.64179 36.3473 7.64179C36.4456 7.64179 36.5299 7.62154 36.5982 7.58002C36.6666 7.53952 36.719 7.47879 36.7556 7.39784C36.7911 7.31784 36.8099 7.2184 36.8108 7.10063V4.74721ZM39.9429 5.66762C39.928 5.52493 39.8624 5.41354 39.7482 5.33445C39.633 5.25452 39.4841 5.21462 39.3015 5.21476C39.1733 5.21476 39.0628 5.2341 38.971 5.27187C38.8793 5.31055 38.8081 5.362 38.7594 5.42741C38.7107 5.49273 38.6864 5.56726 38.6844 5.65101C38.6844 5.72098 38.7013 5.78164 38.7341 5.83228C38.7669 5.88392 38.8108 5.92716 38.868 5.9621C38.9267 5.99903 38.9896 6.029 39.0553 6.05141C39.1245 6.07531 39.1938 6.09557 39.2631 6.11217L39.5824 6.19035C39.7096 6.21919 39.8341 6.25925 39.9542 6.31005C40.0697 6.35775 40.1778 6.42158 40.2753 6.49962C40.3689 6.57481 40.4455 6.66888 40.5001 6.77567C40.5553 6.88341 40.5834 7.00949 40.5834 7.15491C40.5834 7.35096 40.5329 7.52301 40.4307 7.67217C40.3287 7.82033 40.1817 7.93628 39.9888 8.02002C39.7968 8.10286 39.5646 8.14519 39.2912 8.14519C39.0272 8.14519 38.7968 8.10468 38.603 8.02367C38.4083 7.94367 38.2565 7.82579 38.147 7.67126C38.0374 7.51673 37.9784 7.32797 37.97 7.1062H38.5768C38.5852 7.22205 38.6227 7.31876 38.6864 7.39693C38.7509 7.4742 38.8352 7.53131 38.9382 7.57C39.0422 7.60767 39.1582 7.62701 39.2866 7.62701C39.4205 7.62701 39.5384 7.60676 39.6405 7.56726C39.7416 7.52767 39.8212 7.47238 39.8783 7.40058C39.9364 7.32969 39.9654 7.24605 39.9664 7.15025C39.9654 7.06286 39.9392 6.99015 39.8886 6.93303C39.8372 6.87599 39.766 6.82816 39.6751 6.78954C39.5712 6.74674 39.4641 6.71197 39.3549 6.68554L38.9673 6.58792C38.6873 6.51703 38.4653 6.40939 38.3033 6.26488C38.1405 6.12038 38.0599 5.92898 38.0599 5.68868C38.0599 5.49182 38.1142 5.31876 38.2238 5.1706C38.3323 5.02245 38.4813 4.90731 38.6695 4.82549C38.8586 4.74265 39.0721 4.70215 39.3099 4.70215C39.5515 4.70215 39.7631 4.74265 39.9458 4.82549C40.1283 4.90741 40.2716 5.02154 40.3755 5.16696C40.4795 5.31238 40.5338 5.47886 40.5366 5.66762H39.9429Z" fill="white"/>
</g>
<defs>
<clipPath id="clip0_2839_1533">
<rect width="40" height="8" fill="white" transform="translate(0.583496 0.145508)"/>
</clipPath>
</defs>
</svg>
