<svg width="151" height="62" viewBox="0 0 151 62" fill="none" xmlns="http://www.w3.org/2000/svg">
<rect y="0.192627" width="151" height="61" rx="30.5" fill="#222222"/>
<rect x="8" y="8.19263" width="45" height="45" rx="22.5" fill="black"/>
<g clip-path="url(#clip0_2926_1811)">
<path d="M35.443 27.6951H40.6684V28.6571H38.5955V33.7183H37.559V28.6571H35.443V27.6951ZM26.849 27.6951V28.6571H22.6604V30.2047H26.0289V31.1668H22.6604V32.7563H26.849V33.7184H21.624V28.6571H21.6235V27.6951H26.849ZM29.4583 27.6976H28.1019L32.9602 33.7208H34.3205L31.8911 30.7112L34.3167 27.7021L32.9602 27.7043L31.212 29.87L29.4583 27.6976ZM30.8501 32L30.1709 31.1576L28.098 33.7254H29.4583L30.8501 32Z" fill="white"/>
<path fill-rule="evenodd" clip-rule="evenodd" d="M21.6604 33.7184L16.7956 27.6926H15.5V33.7159H16.5364V28.9801L20.3584 33.7184H21.6604Z" fill="white"/>
<path d="M40.9016 33.6816C40.8655 33.6822 40.8297 33.6755 40.7963 33.662C40.7629 33.6485 40.7325 33.6284 40.7071 33.6029C40.653 33.5505 40.6263 33.487 40.627 33.4117C40.6263 33.3385 40.653 33.2757 40.7071 33.2233C40.7325 33.1978 40.7629 33.1777 40.7963 33.1642C40.8297 33.1507 40.8655 33.144 40.9016 33.1446C40.9746 33.1446 41.0385 33.1708 41.0926 33.2233C41.1474 33.2757 41.1747 33.3386 41.1755 33.4117C41.1754 33.4597 41.162 33.5067 41.1368 33.5476C41.1121 33.588 41.0775 33.6215 41.0364 33.645C40.9957 33.6693 40.949 33.682 40.9016 33.6816ZM42.6706 31.1441H43.1299V32.9092C43.1292 33.0714 43.094 33.2101 43.0253 33.3268C42.9558 33.4434 42.8595 33.5325 42.736 33.5953C42.6131 33.6574 42.4691 33.6892 42.3054 33.6892C42.1558 33.6892 42.0217 33.6623 41.9023 33.6098C41.783 33.5574 41.6882 33.4787 41.6186 33.3751C41.5484 33.2716 41.5139 33.1425 41.5139 32.9879H41.974C41.9747 33.0555 41.9901 33.1142 42.0196 33.1632C42.0486 33.2116 42.0911 33.2507 42.1418 33.2757C42.1945 33.3019 42.2548 33.3151 42.323 33.3151C42.3967 33.3151 42.4599 33.2999 42.5112 33.2688C42.5624 33.2384 42.6018 33.1928 42.6292 33.1321C42.6558 33.0721 42.6699 32.9975 42.6706 32.9092V31.1441ZM45.0197 31.8345C45.0085 31.7274 44.9593 31.6439 44.8736 31.5846C44.7872 31.5246 44.6756 31.4947 44.5386 31.4948C44.4424 31.4948 44.3596 31.5093 44.2908 31.5376C44.2219 31.5667 44.1686 31.6052 44.132 31.6543C44.0955 31.7033 44.0773 31.7592 44.0758 31.822C44.0758 31.8745 44.0885 31.92 44.1131 31.9579C44.1377 31.9967 44.1706 32.0291 44.2135 32.0553C44.2575 32.083 44.3047 32.1055 44.354 32.1223C44.4059 32.1402 44.4579 32.1554 44.5098 32.1679L44.7493 32.2265C44.8447 32.2481 44.938 32.2782 45.0281 32.3163C45.1148 32.3521 45.1958 32.3999 45.269 32.4585C45.3392 32.5148 45.3966 32.5854 45.4375 32.6655C45.479 32.7463 45.5001 32.8409 45.5001 32.9499C45.5001 33.097 45.4621 33.226 45.3855 33.3379C45.309 33.449 45.1988 33.5359 45.0541 33.5988C44.9101 33.6609 44.736 33.6926 44.5309 33.6926C44.3329 33.6926 44.1601 33.6623 44.0148 33.6015C43.8687 33.5415 43.7549 33.4531 43.6727 33.3372C43.5906 33.2213 43.5463 33.0797 43.54 32.9134H43.9951C44.0014 33.0003 44.0295 33.0728 44.0773 33.1314C44.1257 33.1894 44.1889 33.2322 44.2662 33.2612C44.3441 33.2895 44.4312 33.304 44.5274 33.304C44.6279 33.304 44.7163 33.2888 44.7929 33.2592C44.8687 33.2295 44.9284 33.188 44.9713 33.1342C45.0148 33.081 45.0366 33.0183 45.0373 32.9464C45.0366 32.8809 45.0169 32.8264 44.9789 32.7835C44.9404 32.7407 44.887 32.7049 44.8188 32.6759C44.7409 32.6438 44.6606 32.6177 44.5787 32.5979L44.288 32.5247C44.078 32.4715 43.9115 32.3908 43.79 32.2824C43.6679 32.174 43.6074 32.0305 43.6074 31.8503C43.6074 31.7026 43.6481 31.5728 43.7304 31.4617C43.8118 31.3506 43.9235 31.2642 44.0646 31.2029C44.2065 31.1407 44.3666 31.1104 44.5449 31.1104C44.7262 31.1104 44.8848 31.1407 45.0218 31.2029C45.1587 31.2643 45.2662 31.3499 45.3441 31.459C45.4221 31.568 45.4628 31.6929 45.465 31.8345H45.0197Z" fill="white"/>
</g>
<path d="M65.0895 38.6926V23.4246H66.5415L67.1575 25.8226V38.6926H65.0895ZM75.6495 38.6926L66.2775 26.1746L66.5415 23.4246L75.9355 35.9206L75.6495 38.6926ZM75.6495 38.6926L75.0335 36.4266V23.4246H77.1015V38.6926H75.6495ZM84.3166 38.9126C83.2753 38.9126 82.3366 38.678 81.5006 38.2086C80.6646 37.7246 80.0046 37.072 79.5206 36.2506C79.0366 35.4293 78.7946 34.498 78.7946 33.4566C78.7946 32.43 79.0293 31.506 79.4986 30.6846C79.9826 29.8633 80.628 29.218 81.4346 28.7486C82.256 28.2646 83.1726 28.0226 84.1846 28.0226C85.1526 28.0226 86.0033 28.2426 86.7366 28.6826C87.4846 29.1226 88.064 29.7313 88.4746 30.5086C88.9 31.286 89.1126 32.166 89.1126 33.1486C89.1126 33.2953 89.1053 33.4566 89.0906 33.6326C89.076 33.794 89.0466 33.9846 89.0026 34.2046H80.1806V32.5546H87.9466L87.2206 33.1926C87.2206 32.4886 87.096 31.8946 86.8466 31.4106C86.5973 30.912 86.2453 30.5306 85.7906 30.2666C85.336 29.988 84.786 29.8486 84.1406 29.8486C83.466 29.8486 82.872 29.9953 82.3586 30.2886C81.8453 30.582 81.4493 30.9926 81.1706 31.5206C80.892 32.0486 80.7526 32.672 80.7526 33.3906C80.7526 34.124 80.8993 34.7693 81.1926 35.3266C81.486 35.8693 81.904 36.2946 82.4466 36.6026C82.9893 36.896 83.6126 37.0426 84.3166 37.0426C84.9033 37.0426 85.4386 36.94 85.9226 36.7346C86.4213 36.5293 86.8466 36.2213 87.1986 35.8106L88.4746 37.1086C87.976 37.6953 87.36 38.1426 86.6266 38.4506C85.908 38.7586 85.138 38.9126 84.3166 38.9126ZM96.9333 38.6926L93.6773 34.1166L93.3033 33.7646L89.1893 28.2426H91.5873L94.5573 32.3126L94.9313 32.6206L99.3313 38.6926H96.9333ZM88.9913 38.6926L93.3033 32.8846L94.4253 34.3366L91.3233 38.6926H88.9913ZM95.0853 33.7426L93.9413 32.3346L96.8233 28.2426H99.1333L95.0853 33.7426ZM101.43 38.6926V23.8646H103.41V38.6926H101.43ZM98.8561 30.0466V28.2426H105.984V30.0466H98.8561ZM108.03 38.9126C107.619 38.9126 107.274 38.7733 106.996 38.4946C106.732 38.2013 106.6 37.8566 106.6 37.4606C106.6 37.05 106.732 36.7126 106.996 36.4486C107.274 36.17 107.619 36.0306 108.03 36.0306C108.44 36.0306 108.778 36.17 109.042 36.4486C109.32 36.7126 109.46 37.05 109.46 37.4606C109.46 37.8566 109.32 38.2013 109.042 38.4946C108.778 38.7733 108.44 38.9126 108.03 38.9126ZM111.268 43.2906C110.593 43.2906 110.028 43.1806 109.574 42.9606C109.104 42.7406 108.686 42.4253 108.32 42.0146L109.596 40.7166C109.801 40.966 110.028 41.1493 110.278 41.2666C110.512 41.384 110.798 41.4426 111.136 41.4426C111.576 41.4426 111.957 41.3033 112.28 41.0246C112.602 40.7606 112.764 40.3573 112.764 39.8146V28.2426H114.744V39.7926C114.744 40.5553 114.582 41.1933 114.26 41.7066C113.937 42.22 113.512 42.6086 112.984 42.8726C112.456 43.1513 111.884 43.2906 111.268 43.2906ZM113.776 26.1526C113.424 26.1526 113.13 26.0353 112.896 25.8006C112.661 25.5513 112.544 25.2433 112.544 24.8766C112.544 24.5246 112.661 24.2313 112.896 23.9966C113.13 23.7473 113.424 23.6226 113.776 23.6226C114.142 23.6226 114.443 23.7473 114.678 23.9966C114.912 24.2313 115.03 24.5246 115.03 24.8766C115.03 25.2433 114.912 25.5513 114.678 25.8006C114.443 26.0353 114.142 26.1526 113.776 26.1526ZM120.1 38.9126C119.513 38.9126 118.956 38.8393 118.428 38.6926C117.914 38.5313 117.438 38.3113 116.998 38.0326C116.558 37.7393 116.176 37.3946 115.854 36.9986L117.13 35.7226C117.511 36.192 117.951 36.544 118.45 36.7786C118.948 36.9986 119.506 37.1086 120.122 37.1086C120.738 37.1086 121.214 37.006 121.552 36.8006C121.889 36.5806 122.058 36.28 122.058 35.8986C122.058 35.5173 121.918 35.224 121.64 35.0186C121.376 34.7986 121.031 34.6226 120.606 34.4906C120.18 34.344 119.726 34.2046 119.242 34.0726C118.772 33.926 118.325 33.7426 117.9 33.5226C117.474 33.3026 117.122 33.002 116.844 32.6206C116.58 32.2393 116.448 31.7333 116.448 31.1026C116.448 30.472 116.602 29.9293 116.91 29.4746C117.218 29.0053 117.643 28.646 118.186 28.3966C118.743 28.1473 119.41 28.0226 120.188 28.0226C121.009 28.0226 121.735 28.1693 122.366 28.4626C123.011 28.7413 123.539 29.1666 123.95 29.7386L122.674 31.0146C122.38 30.6333 122.014 30.34 121.574 30.1346C121.148 29.9293 120.664 29.8266 120.122 29.8266C119.55 29.8266 119.11 29.9293 118.802 30.1346C118.508 30.3253 118.362 30.5966 118.362 30.9486C118.362 31.3006 118.494 31.572 118.758 31.7626C119.022 31.9533 119.366 32.1146 119.792 32.2466C120.232 32.3786 120.686 32.518 121.156 32.6646C121.625 32.7966 122.072 32.98 122.498 33.2146C122.923 33.4493 123.268 33.7646 123.532 34.1606C123.81 34.5566 123.95 35.0773 123.95 35.7226C123.95 36.7053 123.598 37.4826 122.894 38.0546C122.204 38.6266 121.273 38.9126 120.1 38.9126Z" fill="white"/>
<defs>
<clipPath id="clip0_2926_1811">
<rect width="30" height="6" fill="white" transform="translate(15.5 27.6926)"/>
</clipPath>
</defs>
</svg>
