<svg width="135" height="62" viewBox="0 0 135 62" fill="none" xmlns="http://www.w3.org/2000/svg">
<rect x="0.580078" y="0.185547" width="134" height="61" rx="30.5" fill="#222222"/>
<rect x="8.58008" y="8.18555" width="45" height="45" rx="22.5" fill="black"/>
<g clip-path="url(#clip0_2926_3013)">
<path d="M24.5342 28.2527C24.5342 28.6186 24.5741 28.9154 24.644 29.1329C24.7238 29.3505 24.8235 29.5878 24.9633 29.845C25.0132 29.9241 25.0331 30.0032 25.0331 30.0724C25.0331 30.1714 24.9732 30.2702 24.8435 30.3692L24.2149 30.7846C24.1251 30.8439 24.0353 30.8736 23.9555 30.8736C23.8557 30.8736 23.756 30.8241 23.6561 30.7351C23.5217 30.5919 23.4014 30.4362 23.2969 30.2703C23.1971 30.1021 23.0973 29.9142 22.9876 29.6867C22.2094 30.5966 21.2316 31.0516 20.0542 31.0516C19.216 31.0516 18.5475 30.8142 18.0587 30.3395C17.5698 29.8647 17.3203 29.2318 17.3203 28.4406C17.3203 27.5999 17.6196 26.9175 18.2283 26.4032C18.8369 25.8889 19.6451 25.6318 20.6728 25.6318C21.012 25.6318 21.3613 25.6615 21.7304 25.711C22.0996 25.7604 22.4787 25.8395 22.8779 25.9285V25.2065C22.8779 24.4548 22.7182 23.9307 22.4089 23.6241C22.0896 23.3175 21.5508 23.1692 20.7825 23.1692C20.4333 23.1692 20.0741 23.2087 19.705 23.2977C19.3358 23.3868 18.9765 23.4956 18.6274 23.634C18.4677 23.7032 18.348 23.7428 18.2782 23.7626C18.2083 23.7824 18.1584 23.7923 18.1185 23.7923C17.9788 23.7923 17.909 23.6934 17.909 23.4857V23.0011C17.909 22.8428 17.9289 22.7241 17.9788 22.6549C18.0287 22.5857 18.1185 22.5164 18.2582 22.4472C18.6074 22.2692 19.0265 22.1208 19.5154 22.0021C20.0042 21.8736 20.5231 21.8142 21.0719 21.8142C22.2592 21.8142 23.1272 22.0813 23.686 22.6153C24.2348 23.1494 24.5141 23.9604 24.5141 25.0483V28.2527H24.5342ZM20.4833 29.756C20.8126 29.756 21.1519 29.6967 21.511 29.578C21.8702 29.4593 22.1895 29.2417 22.4589 28.945C22.6185 28.757 22.7383 28.5494 22.7981 28.312C22.858 28.0747 22.8979 27.7878 22.8979 27.4516V27.0361C22.6086 26.967 22.2993 26.9076 21.98 26.868C21.6607 26.8285 21.3514 26.8087 21.0421 26.8087C20.3736 26.8087 19.8847 26.9373 19.5554 27.2043C19.2262 27.4713 19.0666 27.8472 19.0666 28.3416C19.0666 28.8065 19.1863 29.1526 19.4357 29.3899C19.6751 29.6373 20.0243 29.756 20.4833 29.756ZM28.4954 30.8241C28.3158 30.8241 28.1961 30.7944 28.1162 30.7252C28.0364 30.6658 27.9666 30.5273 27.9067 30.3394L25.5619 22.6944C25.5021 22.4966 25.4722 22.368 25.4722 22.2988C25.4722 22.1406 25.552 22.0516 25.7116 22.0516H26.6894C26.879 22.0516 27.0087 22.0812 27.0785 22.1505C27.1583 22.2098 27.2182 22.3483 27.2781 22.5362L28.9543 29.0835L30.5109 22.5362C30.5608 22.3384 30.6206 22.2098 30.7005 22.1505C30.7803 22.0911 30.92 22.0516 31.0996 22.0516H31.8978C32.0874 22.0516 32.217 22.0812 32.2968 22.1505C32.3767 22.2098 32.4465 22.3483 32.4864 22.5362L34.063 29.1626L35.7891 22.5362C35.849 22.3384 35.9189 22.2098 35.9887 22.1505C36.0685 22.0911 36.1982 22.0516 36.3778 22.0516H37.3058C37.4654 22.0516 37.5552 22.1307 37.5552 22.2988C37.5552 22.3483 37.5453 22.3977 37.5353 22.4571C37.5253 22.5164 37.5053 22.5955 37.4654 22.7044L35.0608 30.3494C35.0009 30.5472 34.931 30.6758 34.8512 30.7351C34.7315 30.8241 34.6418 30.8341 34.4722 30.8341H33.6141C33.4245 30.8341 33.2948 30.8044 33.215 30.7351C33.1352 30.6659 33.0654 30.5373 33.0254 30.3395L31.4788 23.9604L29.9421 30.3296C29.8923 30.5274 29.8324 30.656 29.7526 30.7252C29.6728 30.7944 29.533 30.8241 29.3535 30.8241L28.4954 30.8241ZM41.3167 31.0912C40.7979 31.0912 40.279 31.0318 39.7801 30.9132C39.2813 30.7945 38.8922 30.6659 38.6328 30.5176C38.473 30.4286 38.3634 30.3296 38.3234 30.2407C38.2836 30.1516 38.2635 30.0527 38.2635 29.9637V29.4593C38.2635 29.2516 38.3434 29.1527 38.493 29.1527C38.5529 29.1527 38.6128 29.1626 38.6726 29.1824C38.7325 29.2021 38.8223 29.2417 38.9221 29.2813C39.2613 29.4296 39.6305 29.5483 40.0196 29.6274C40.4188 29.7066 40.8079 29.7461 41.207 29.7461C41.8356 29.7461 42.3245 29.6373 42.6637 29.4197C43.003 29.2021 43.1825 28.8857 43.1825 28.4802C43.1825 28.2032 43.0928 27.9758 42.9131 27.7878C42.7335 27.5999 42.3943 27.4318 41.9053 27.2736L40.4586 26.8285C39.7302 26.6011 39.1914 26.2648 38.8622 25.8197C38.5329 25.3846 38.3633 24.8999 38.3633 24.3857C38.3633 23.9702 38.4531 23.6043 38.6327 23.2878C38.9021 22.8132 39.0518 22.6944 39.351 22.4769C39.6504 22.2494 39.9896 22.0813 40.3888 21.9626C40.7879 21.8439 41.2069 21.7944 41.6459 21.7944C41.8654 21.7944 42.0949 21.8043 42.3145 21.834C42.544 21.8636 42.7535 21.9032 42.963 21.9428C43.1626 21.9922 43.3521 22.0417 43.5317 22.1011C43.7113 22.1604 43.851 22.2197 43.9508 22.279C44.0905 22.3582 44.1903 22.4373 44.2502 22.5263C44.31 22.6054 44.34 22.7142 44.34 22.8527V23.3176C44.34 23.5252 44.2602 23.634 44.1105 23.634C44.0307 23.634 43.901 23.5945 43.7314 23.5154C43.1626 23.2582 42.524 23.1296 41.8156 23.1296C41.2469 23.1296 40.7979 23.2186 40.4886 23.4066C40.1793 23.5945 40.0196 23.8813 40.0196 24.2868C40.0196 24.5637 40.1194 24.8011 40.3189 24.989C40.5185 25.1769 40.8877 25.3648 41.4165 25.5329L42.8334 25.978C43.5517 26.2054 44.0706 26.5219 44.3799 26.9274C44.6892 27.3329 44.8389 27.7977 44.8389 28.312C44.8389 28.7373 44.749 29.123 44.5794 29.4593C44.3999 29.7956 44.1603 30.0923 43.851 30.3296C43.5417 30.5769 43.1726 30.7549 42.7435 30.8835C42.2946 31.0219 41.8256 31.0912 41.3167 31.0912Z" fill="white"/>
<path d="M43.2025 35.8977C39.9199 38.3009 35.1505 39.5768 31.0498 39.5768C25.3026 39.5768 20.1242 37.4702 16.213 33.9691C15.9037 33.6922 16.183 33.3164 16.5522 33.534C20.7828 35.967 26.0011 37.4406 31.399 37.4406C35.0408 37.4406 39.0418 36.6889 42.7237 35.1461C43.2724 34.8987 43.7413 35.5021 43.2025 35.8977Z" fill="#FF9900"/>
<path d="M44.5691 34.3548C44.1501 33.8207 41.7953 34.0977 40.7278 34.2262C40.4085 34.2657 40.3586 33.9889 40.6479 33.7811C42.5237 32.4757 45.6068 32.8515 45.966 33.2866C46.3252 33.7317 45.8662 36.7877 44.1102 38.2515C43.8408 38.4789 43.5813 38.3602 43.7011 38.0635C44.1002 37.0845 44.9882 34.8789 44.5691 34.3548Z" fill="#FF9900"/>
</g>
<path d="M64.3852 38.6855L70.6332 23.4175H72.1292L78.3552 38.6855H76.1112L70.9852 25.7715H71.7552L66.5852 38.6855H64.3852ZM67.3552 35.2315V33.4275H75.3852V35.2315H67.3552ZM81.9705 38.6855L76.9765 23.4175H79.0445L83.0045 35.8695H82.4105L86.3045 23.4175H87.8005L91.6945 35.8695H91.1225L95.0825 23.4175H97.1285L92.1565 38.6855H90.6825L86.7665 26.2555H87.3385L83.4445 38.6855H81.9705ZM102.304 38.9055C101.101 38.9055 100.074 38.6855 99.2238 38.2455C98.3731 37.8055 97.6178 37.1675 96.9578 36.3315L98.3658 34.9235C98.8498 35.5982 99.4071 36.1115 100.038 36.4635C100.668 36.8009 101.446 36.9695 102.37 36.9695C103.279 36.9695 104.005 36.7715 104.548 36.3755C105.105 35.9795 105.384 35.4369 105.384 34.7475C105.384 34.1755 105.252 33.7135 104.988 33.3615C104.724 33.0095 104.364 32.7235 103.91 32.5035C103.47 32.2689 102.986 32.0635 102.458 31.8875C101.93 31.6969 101.402 31.4989 100.874 31.2935C100.346 31.0735 99.8618 30.8095 99.4218 30.5015C98.9818 30.1789 98.6225 29.7609 98.3438 29.2475C98.0798 28.7342 97.9478 28.0889 97.9478 27.3115C97.9478 26.4462 98.1531 25.7129 98.5638 25.1115C98.9891 24.4955 99.5611 24.0262 100.28 23.7035C101.013 23.3662 101.834 23.1975 102.744 23.1975C103.741 23.1975 104.636 23.3955 105.428 23.7915C106.22 24.1729 106.865 24.6789 107.364 25.3095L105.956 26.7175C105.501 26.1895 105.01 25.7935 104.482 25.5295C103.968 25.2655 103.374 25.1335 102.7 25.1335C101.878 25.1335 101.226 25.3169 100.742 25.6835C100.258 26.0355 100.016 26.5342 100.016 27.1795C100.016 27.6929 100.148 28.1109 100.412 28.4335C100.69 28.7415 101.05 29.0055 101.49 29.2255C101.93 29.4455 102.414 29.6509 102.942 29.8415C103.484 30.0175 104.02 30.2155 104.548 30.4355C105.076 30.6555 105.56 30.9342 106 31.2715C106.44 31.6089 106.792 32.0489 107.056 32.5915C107.334 33.1195 107.474 33.7869 107.474 34.5935C107.474 35.9429 107.004 36.9989 106.066 37.7615C105.142 38.5242 103.888 38.9055 102.304 38.9055Z" fill="white"/>
<defs>
<clipPath id="clip0_2926_3013">
<rect width="30" height="18" fill="white" transform="translate(16.0801 21.6855)"/>
</clipPath>
</defs>
</svg>
