<svg width="206" height="62" viewBox="0 0 206 62" fill="none" xmlns="http://www.w3.org/2000/svg">
<rect x="0.0874023" y="0.945801" width="205" height="61" rx="30.5" fill="#222222"/>
<rect x="8.0874" y="8.9458" width="45" height="45" rx="22.5" fill="black"/>
<g clip-path="url(#clip0_2926_2322)">
<path d="M30.5876 34.3029C32.1656 34.3029 33.4448 33.0237 33.4448 31.4458C33.4448 29.8678 32.1656 28.5886 30.5876 28.5886C29.0097 28.5886 27.7305 29.8678 27.7305 31.4458C27.7305 33.0237 29.0097 34.3029 30.5876 34.3029Z" fill="#58C4DC"/>
<path d="M30.5875 37.8742C38.4773 37.8742 44.8732 34.9961 44.8732 31.4457C44.8732 27.8953 38.4773 25.0171 30.5875 25.0171C22.6977 25.0171 16.3018 27.8953 16.3018 31.4457C16.3018 34.9961 22.6977 37.8742 30.5875 37.8742Z" stroke="#58C4DC" stroke-width="1.90476"/>
<path d="M25.02 34.66C28.9649 41.4927 34.6554 45.5927 37.7301 43.8175C40.8049 42.0423 40.0995 35.0642 36.1546 28.2314C32.2097 21.3987 26.5192 17.2987 23.4444 19.0739C20.3697 20.8491 21.0751 27.8272 25.02 34.66Z" stroke="#58C4DC" stroke-width="1.90476"/>
<path d="M25.0199 28.2316C21.075 35.0643 20.3696 42.0424 23.4443 43.8176C26.5191 45.5928 32.2096 41.4929 36.1545 34.6601C40.0994 27.8274 40.8048 20.8492 37.7301 19.074C34.6553 17.2988 28.9648 21.3988 25.0199 28.2316Z" stroke="#58C4DC" stroke-width="1.90476"/>
</g>
<path d="M66.5442 32.8018V31.0638H70.6802C71.5748 31.0638 72.2642 30.8365 72.7482 30.3818C73.2322 29.9271 73.4742 29.3111 73.4742 28.5338C73.4742 27.8005 73.2322 27.1918 72.7482 26.7078C72.2788 26.2238 71.5968 25.9818 70.7022 25.9818H66.5442V24.1778H70.7682C71.7362 24.1778 72.5795 24.3685 73.2982 24.7498C74.0168 25.1165 74.5668 25.6225 74.9482 26.2678C75.3442 26.9131 75.5422 27.6538 75.5422 28.4898C75.5422 29.3551 75.3442 30.1105 74.9482 30.7558C74.5668 31.4011 74.0168 31.9071 73.2982 32.2738C72.5795 32.6258 71.7362 32.8018 70.7682 32.8018H66.5442ZM65.1582 39.4458V24.1778H67.2262V39.4458H65.1582ZM73.9582 39.4458L68.4142 32.6038L70.3722 31.9218L76.5762 39.4458H73.9582ZM81.9791 39.6658C80.9377 39.6658 79.9991 39.4311 79.1631 38.9618C78.3271 38.4778 77.6671 37.8251 77.1831 37.0038C76.6991 36.1825 76.4571 35.2511 76.4571 34.2098C76.4571 33.1831 76.6917 32.2591 77.1611 31.4378C77.6451 30.6165 78.2904 29.9711 79.0971 29.5018C79.9184 29.0178 80.8351 28.7758 81.8471 28.7758C82.8151 28.7758 83.6657 28.9958 84.3991 29.4358C85.1471 29.8758 85.7264 30.4845 86.1371 31.2618C86.5624 32.0391 86.7751 32.9191 86.7751 33.9018C86.7751 34.0485 86.7677 34.2098 86.7531 34.3858C86.7384 34.5471 86.7091 34.7378 86.6651 34.9578H77.8431V33.3078H85.6091L84.8831 33.9458C84.8831 33.2418 84.7584 32.6478 84.5091 32.1638C84.2597 31.6651 83.9077 31.2838 83.4531 31.0198C82.9984 30.7411 82.4484 30.6018 81.8031 30.6018C81.1284 30.6018 80.5344 30.7485 80.0211 31.0418C79.5077 31.3351 79.1117 31.7458 78.8331 32.2738C78.5544 32.8018 78.4151 33.4251 78.4151 34.1438C78.4151 34.8771 78.5617 35.5225 78.8551 36.0798C79.1484 36.6225 79.5664 37.0478 80.1091 37.3558C80.6517 37.6491 81.2751 37.7958 81.9791 37.7958C82.5657 37.7958 83.1011 37.6931 83.5851 37.4878C84.0837 37.2825 84.5091 36.9745 84.8611 36.5638L86.1371 37.8618C85.6384 38.4485 85.0224 38.8958 84.2891 39.2038C83.5704 39.5118 82.8004 39.6658 81.9791 39.6658ZM92.498 39.6658C91.5446 39.6658 90.6793 39.4311 89.902 38.9618C89.1246 38.4778 88.5086 37.8251 88.054 37.0038C87.614 36.1825 87.394 35.2585 87.394 34.2318C87.394 33.2051 87.614 32.2811 88.054 31.4598C88.5086 30.6385 89.1173 29.9858 89.88 29.5018C90.6573 29.0178 91.53 28.7758 92.498 28.7758C93.29 28.7758 93.994 28.9445 94.61 29.2818C95.2406 29.6045 95.7466 30.0591 96.128 30.6458C96.5093 31.2178 96.722 31.8851 96.766 32.6478V35.7938C96.722 36.5418 96.5093 37.2091 96.128 37.7958C95.7613 38.3825 95.2626 38.8445 94.632 39.1818C94.016 39.5045 93.3046 39.6658 92.498 39.6658ZM92.828 37.7958C93.8106 37.7958 94.6026 37.4658 95.204 36.8058C95.8053 36.1311 96.106 35.2731 96.106 34.2318C96.106 33.5131 95.9666 32.8898 95.688 32.3618C95.424 31.8191 95.0426 31.4011 94.544 31.1078C94.0453 30.7998 93.466 30.6458 92.806 30.6458C92.146 30.6458 91.5593 30.7998 91.046 31.1078C90.5473 31.4158 90.1513 31.8411 89.858 32.3838C89.5793 32.9118 89.44 33.5205 89.44 34.2098C89.44 34.9138 89.5793 35.5371 89.858 36.0798C90.1513 36.6078 90.5546 37.0258 91.068 37.3338C91.5813 37.6418 92.168 37.7958 92.828 37.7958ZM95.974 39.4458V36.6298L96.348 34.0778L95.974 31.5478V28.9958H97.976V39.4458H95.974ZM104.753 39.6658C103.726 39.6658 102.795 39.4238 101.959 38.9398C101.137 38.4558 100.485 37.8031 100.001 36.9818C99.5313 36.1458 99.2967 35.2218 99.2967 34.2098C99.2967 33.1831 99.5313 32.2591 100.001 31.4378C100.485 30.6165 101.137 29.9711 101.959 29.5018C102.795 29.0178 103.726 28.7758 104.753 28.7758C105.559 28.7758 106.307 28.9298 106.997 29.2378C107.686 29.5311 108.28 29.9638 108.779 30.5358L107.459 31.8558C107.136 31.4745 106.74 31.1885 106.271 30.9978C105.816 30.7925 105.31 30.6898 104.753 30.6898C104.093 30.6898 103.506 30.8438 102.993 31.1518C102.479 31.4451 102.076 31.8558 101.783 32.3838C101.489 32.9118 101.343 33.5205 101.343 34.2098C101.343 34.8991 101.489 35.5078 101.783 36.0358C102.076 36.5638 102.479 36.9818 102.993 37.2898C103.506 37.5978 104.093 37.7518 104.753 37.7518C105.31 37.7518 105.816 37.6565 106.271 37.4658C106.74 37.2605 107.143 36.9671 107.481 36.5858L108.779 37.9058C108.295 38.4631 107.701 38.8958 106.997 39.2038C106.307 39.5118 105.559 39.6658 104.753 39.6658ZM111.339 39.4458V24.6178H113.319V39.4458H111.339ZM108.765 30.7998V28.9958H115.893V30.7998H108.765ZM121.001 39.4458V24.1778H122.453L123.069 26.5758V39.4458H121.001ZM131.561 39.4458L122.189 26.9278L122.453 24.1778L131.847 36.6738L131.561 39.4458ZM131.561 39.4458L130.945 37.1798V24.1778H133.013V39.4458H131.561ZM139.832 39.6658C138.879 39.6658 138.014 39.4311 137.236 38.9618C136.459 38.4778 135.843 37.8251 135.388 37.0038C134.948 36.1825 134.728 35.2585 134.728 34.2318C134.728 33.2051 134.948 32.2811 135.388 31.4598C135.843 30.6385 136.452 29.9858 137.214 29.5018C137.992 29.0178 138.864 28.7758 139.832 28.7758C140.624 28.7758 141.328 28.9445 141.944 29.2818C142.575 29.6045 143.081 30.0591 143.462 30.6458C143.844 31.2178 144.056 31.8851 144.1 32.6478V35.7938C144.056 36.5418 143.844 37.2091 143.462 37.7958C143.096 38.3825 142.597 38.8445 141.966 39.1818C141.35 39.5045 140.639 39.6658 139.832 39.6658ZM140.162 37.7958C141.145 37.7958 141.937 37.4658 142.538 36.8058C143.14 36.1311 143.44 35.2731 143.44 34.2318C143.44 33.5131 143.301 32.8898 143.022 32.3618C142.758 31.8191 142.377 31.4011 141.878 31.1078C141.38 30.7998 140.8 30.6458 140.14 30.6458C139.48 30.6458 138.894 30.7998 138.38 31.1078C137.882 31.4158 137.486 31.8411 137.192 32.3838C136.914 32.9118 136.774 33.5205 136.774 34.2098C136.774 34.9138 136.914 35.5371 137.192 36.0798C137.486 36.6078 137.889 37.0258 138.402 37.3338C138.916 37.6418 139.502 37.7958 140.162 37.7958ZM143.308 39.4458V36.6298L143.682 34.0778L143.308 31.5478V28.9958H145.31V39.4458H143.308ZM148.876 39.4458V24.6178H150.856V39.4458H148.876ZM146.302 30.7998V28.9958H153.43V30.7998H146.302ZM154.512 39.4458V28.9958H156.492V39.4458H154.512ZM155.502 26.9058C155.135 26.9058 154.834 26.7885 154.6 26.5538C154.365 26.3045 154.248 25.9965 154.248 25.6298C154.248 25.2778 154.365 24.9845 154.6 24.7498C154.834 24.5005 155.135 24.3758 155.502 24.3758C155.868 24.3758 156.169 24.5005 156.404 24.7498C156.638 24.9845 156.756 25.2778 156.756 25.6298C156.756 25.9965 156.638 26.3045 156.404 26.5538C156.169 26.7885 155.868 26.9058 155.502 26.9058ZM162.116 39.4458L157.32 28.9958H159.52L163.37 37.8178H162.094L165.966 28.9958H168.078L163.282 39.4458H162.116ZM173.318 39.6658C172.276 39.6658 171.338 39.4311 170.502 38.9618C169.666 38.4778 169.006 37.8251 168.522 37.0038C168.038 36.1825 167.796 35.2511 167.796 34.2098C167.796 33.1831 168.03 32.2591 168.5 31.4378C168.984 30.6165 169.629 29.9711 170.436 29.5018C171.257 29.0178 172.174 28.7758 173.186 28.7758C174.154 28.7758 175.004 28.9958 175.738 29.4358C176.486 29.8758 177.065 30.4845 177.476 31.2618C177.901 32.0391 178.114 32.9191 178.114 33.9018C178.114 34.0485 178.106 34.2098 178.092 34.3858C178.077 34.5471 178.048 34.7378 178.004 34.9578H169.182V33.3078H176.948L176.222 33.9458C176.222 33.2418 176.097 32.6478 175.848 32.1638C175.598 31.6651 175.246 31.2838 174.792 31.0198C174.337 30.7411 173.787 30.6018 173.142 30.6018C172.467 30.6018 171.873 30.7485 171.36 31.0418C170.846 31.3351 170.45 31.7458 170.172 32.2738C169.893 32.8018 169.754 33.4251 169.754 34.1438C169.754 34.8771 169.9 35.5225 170.194 36.0798C170.487 36.6225 170.905 37.0478 171.448 37.3558C171.99 37.6491 172.614 37.7958 173.318 37.7958C173.904 37.7958 174.44 37.6931 174.924 37.4878C175.422 37.2825 175.848 36.9745 176.2 36.5638L177.476 37.8618C176.977 38.4485 176.361 38.8958 175.628 39.2038C174.909 39.5118 174.139 39.6658 173.318 39.6658Z" fill="white"/>
<defs>
<clipPath id="clip0_2926_2322">
<rect width="30" height="30" fill="white" transform="translate(15.5874 16.4458)"/>
</clipPath>
</defs>
</svg>
