<svg width="177" height="62" viewBox="0 0 177 62" fill="none" xmlns="http://www.w3.org/2000/svg">
<rect x="0.533691" y="0.969482" width="176" height="61" rx="30.5" fill="#222222"/>
<rect x="8.53369" y="8.96948" width="45" height="45" rx="22.5" fill="black"/>
<g clip-path="url(#clip0_2926_2498)">
<path d="M33.7303 46.4999C32.9358 47.5062 31.3253 46.9549 31.3061 45.6699L31.0264 26.876H43.5875C45.8625 26.876 47.1314 29.5197 45.7166 31.3121L33.7303 46.4999Z" fill="url(#paint0_linear_2926_2498)"/>
<path d="M33.7303 46.4999C32.9358 47.5062 31.3253 46.9549 31.3061 45.6699L31.0264 26.876H43.5875C45.8625 26.876 47.1314 29.5197 45.7166 31.3121L33.7303 46.4999Z" fill="url(#paint1_linear_2926_2498)" fill-opacity="0.2"/>
<path d="M28.622 16.2587C29.4164 15.2524 31.0267 15.8037 31.0459 17.0887L31.1686 35.8826H18.7645C16.4895 35.8826 15.2203 33.239 16.6353 31.4462L28.622 16.2587Z" fill="#3ECF8E"/>
</g>
<path d="M68.3203 39.6895C67.7336 39.6895 67.1763 39.6161 66.6483 39.4695C66.135 39.3081 65.6583 39.0881 65.2183 38.8095C64.7783 38.5161 64.397 38.1715 64.0743 37.7755L65.3503 36.4995C65.7316 36.9688 66.1716 37.3208 66.6703 37.5555C67.169 37.7755 67.7263 37.8855 68.3423 37.8855C68.9583 37.8855 69.435 37.7828 69.7723 37.5775C70.1096 37.3575 70.2783 37.0568 70.2783 36.6755C70.2783 36.2941 70.139 36.0008 69.8603 35.7955C69.5963 35.5755 69.2516 35.3995 68.8263 35.2675C68.401 35.1208 67.9463 34.9815 67.4623 34.8495C66.993 34.7028 66.5456 34.5195 66.1203 34.2995C65.695 34.0795 65.343 33.7788 65.0643 33.3975C64.8003 33.0161 64.6683 32.5101 64.6683 31.8795C64.6683 31.2488 64.8223 30.7061 65.1303 30.2515C65.4383 29.7821 65.8636 29.4228 66.4063 29.1735C66.9636 28.9241 67.631 28.7995 68.4083 28.7995C69.2296 28.7995 69.9556 28.9461 70.5863 29.2395C71.2316 29.5181 71.7596 29.9435 72.1703 30.5155L70.8943 31.7915C70.601 31.4101 70.2343 31.1168 69.7943 30.9115C69.369 30.7061 68.885 30.6035 68.3423 30.6035C67.7703 30.6035 67.3303 30.7061 67.0223 30.9115C66.729 31.1021 66.5823 31.3735 66.5823 31.7255C66.5823 32.0775 66.7143 32.3488 66.9783 32.5395C67.2423 32.7301 67.587 32.8915 68.0123 33.0235C68.4523 33.1555 68.907 33.2948 69.3763 33.4415C69.8456 33.5735 70.293 33.7568 70.7183 33.9915C71.1436 34.2261 71.4883 34.5415 71.7523 34.9375C72.031 35.3335 72.1703 35.8541 72.1703 36.4995C72.1703 37.4821 71.8183 38.2595 71.1143 38.8315C70.425 39.4035 69.4936 39.6895 68.3203 39.6895ZM77.709 39.6895C76.8583 39.6895 76.0883 39.4988 75.399 39.1175C74.7243 38.7215 74.1963 38.1788 73.815 37.4895C73.4336 36.8001 73.243 36.0008 73.243 35.0915V29.0195H75.223V35.0035C75.223 35.5755 75.3183 36.0741 75.509 36.4995C75.7143 36.9101 76.0076 37.2255 76.389 37.4455C76.7703 37.6655 77.2176 37.7755 77.731 37.7755C78.5083 37.7755 79.117 37.5335 79.557 37.0495C79.997 36.5508 80.217 35.8688 80.217 35.0035V29.0195H82.197V35.0915C82.197 36.0008 82.0063 36.8001 81.625 37.4895C81.2436 38.1788 80.7156 38.7215 80.041 39.1175C79.381 39.4988 78.6036 39.6895 77.709 39.6895ZM89.4707 39.6895C88.6787 39.6895 87.9601 39.5281 87.3147 39.2055C86.6841 38.8681 86.1781 38.4061 85.7967 37.8195C85.4154 37.2328 85.2027 36.5655 85.1587 35.8175V32.6715C85.2027 31.9088 85.4154 31.2415 85.7967 30.6695C86.1927 30.0828 86.7061 29.6281 87.3367 29.3055C87.9821 28.9681 88.6934 28.7995 89.4707 28.7995C90.4241 28.7995 91.2821 29.0415 92.0447 29.5255C92.8221 30.0095 93.4307 30.6621 93.8707 31.4835C94.3107 32.3048 94.5307 33.2288 94.5307 34.2555C94.5307 35.2821 94.3107 36.2061 93.8707 37.0275C93.4307 37.8488 92.8221 38.5015 92.0447 38.9855C91.2821 39.4548 90.4241 39.6895 89.4707 39.6895ZM83.9707 43.8475V29.0195H85.9507V31.7695L85.5767 34.2995L85.9507 36.8515V43.8475H83.9707ZM89.1407 37.8195C89.8007 37.8195 90.3801 37.6655 90.8787 37.3575C91.3774 37.0495 91.7734 36.6315 92.0667 36.1035C92.3601 35.5608 92.5067 34.9375 92.5067 34.2335C92.5067 33.5441 92.3601 32.9281 92.0667 32.3855C91.7734 31.8428 91.3774 31.4248 90.8787 31.1315C90.3801 30.8235 89.8081 30.6695 89.1627 30.6695C88.5027 30.6695 87.9234 30.8235 87.4247 31.1315C86.9261 31.4248 86.5374 31.8428 86.2587 32.3855C85.9801 32.9281 85.8407 33.5515 85.8407 34.2555C85.8407 34.9448 85.9727 35.5608 86.2367 36.1035C86.5154 36.6315 86.9041 37.0495 87.4027 37.3575C87.9161 37.6655 88.4954 37.8195 89.1407 37.8195ZM100.339 39.6895C99.3861 39.6895 98.5208 39.4548 97.7434 38.9855C96.9661 38.5015 96.3501 37.8488 95.8954 37.0275C95.4554 36.2061 95.2354 35.2821 95.2354 34.2555C95.2354 33.2288 95.4554 32.3048 95.8954 31.4835C96.3501 30.6621 96.9588 30.0095 97.7214 29.5255C98.4988 29.0415 99.3714 28.7995 100.339 28.7995C101.131 28.7995 101.835 28.9681 102.451 29.3055C103.082 29.6281 103.588 30.0828 103.969 30.6695C104.351 31.2415 104.563 31.9088 104.607 32.6715V35.8175C104.563 36.5655 104.351 37.2328 103.969 37.8195C103.603 38.4061 103.104 38.8681 102.473 39.2055C101.857 39.5281 101.146 39.6895 100.339 39.6895ZM100.669 37.8195C101.652 37.8195 102.444 37.4895 103.045 36.8295C103.647 36.1548 103.947 35.2968 103.947 34.2555C103.947 33.5368 103.808 32.9135 103.529 32.3855C103.265 31.8428 102.884 31.4248 102.385 31.1315C101.887 30.8235 101.307 30.6695 100.647 30.6695C99.9874 30.6695 99.4008 30.8235 98.8874 31.1315C98.3888 31.4395 97.9928 31.8648 97.6994 32.4075C97.4208 32.9355 97.2814 33.5441 97.2814 34.2335C97.2814 34.9375 97.4208 35.5608 97.6994 36.1035C97.9928 36.6315 98.3961 37.0495 98.9094 37.3575C99.4228 37.6655 100.009 37.8195 100.669 37.8195ZM103.815 39.4695V36.6535L104.189 34.1015L103.815 31.5715V29.0195H105.817V39.4695H103.815ZM113.32 39.6895C112.528 39.6895 111.809 39.5281 111.164 39.2055C110.533 38.8681 110.027 38.4061 109.646 37.8195C109.265 37.2328 109.052 36.5655 109.008 35.8175V32.6715C109.052 31.9088 109.265 31.2415 109.646 30.6695C110.042 30.0828 110.555 29.6281 111.186 29.3055C111.831 28.9681 112.543 28.7995 113.32 28.7995C114.273 28.7995 115.131 29.0415 115.894 29.5255C116.671 30.0095 117.28 30.6621 117.72 31.4835C118.16 32.3048 118.38 33.2288 118.38 34.2555C118.38 35.2821 118.16 36.2061 117.72 37.0275C117.28 37.8488 116.671 38.5015 115.894 38.9855C115.131 39.4548 114.273 39.6895 113.32 39.6895ZM107.82 39.4695V23.7615H109.8V31.5715L109.426 34.1015L109.8 36.6535V39.4695H107.82ZM112.99 37.8195C113.65 37.8195 114.229 37.6655 114.728 37.3575C115.227 37.0495 115.623 36.6315 115.916 36.1035C116.209 35.5608 116.356 34.9375 116.356 34.2335C116.356 33.5441 116.209 32.9281 115.916 32.3855C115.623 31.8428 115.227 31.4248 114.728 31.1315C114.229 30.8235 113.657 30.6695 113.012 30.6695C112.352 30.6695 111.773 30.8235 111.274 31.1315C110.775 31.4248 110.387 31.8428 110.108 32.3855C109.829 32.9281 109.69 33.5515 109.69 34.2555C109.69 34.9448 109.822 35.5608 110.086 36.1035C110.365 36.6315 110.753 37.0495 111.252 37.3575C111.765 37.6655 112.345 37.8195 112.99 37.8195ZM124.189 39.6895C123.235 39.6895 122.37 39.4548 121.593 38.9855C120.815 38.5015 120.199 37.8488 119.745 37.0275C119.305 36.2061 119.085 35.2821 119.085 34.2555C119.085 33.2288 119.305 32.3048 119.745 31.4835C120.199 30.6621 120.808 30.0095 121.571 29.5255C122.348 29.0415 123.221 28.7995 124.189 28.7995C124.981 28.7995 125.685 28.9681 126.301 29.3055C126.931 29.6281 127.437 30.0828 127.819 30.6695C128.2 31.2415 128.413 31.9088 128.457 32.6715V35.8175C128.413 36.5655 128.2 37.2328 127.819 37.8195C127.452 38.4061 126.953 38.8681 126.323 39.2055C125.707 39.5281 124.995 39.6895 124.189 39.6895ZM124.519 37.8195C125.501 37.8195 126.293 37.4895 126.895 36.8295C127.496 36.1548 127.797 35.2968 127.797 34.2555C127.797 33.5368 127.657 32.9135 127.379 32.3855C127.115 31.8428 126.733 31.4248 126.235 31.1315C125.736 30.8235 125.157 30.6695 124.497 30.6695C123.837 30.6695 123.25 30.8235 122.737 31.1315C122.238 31.4395 121.842 31.8648 121.549 32.4075C121.27 32.9355 121.131 33.5441 121.131 34.2335C121.131 34.9375 121.27 35.5608 121.549 36.1035C121.842 36.6315 122.245 37.0495 122.759 37.3575C123.272 37.6655 123.859 37.8195 124.519 37.8195ZM127.665 39.4695V36.6535L128.039 34.1015L127.665 31.5715V29.0195H129.667V39.4695H127.665ZM134.991 39.6895C134.405 39.6895 133.847 39.6161 133.319 39.4695C132.806 39.3081 132.329 39.0881 131.889 38.8095C131.449 38.5161 131.068 38.1715 130.745 37.7755L132.021 36.4995C132.403 36.9688 132.843 37.3208 133.341 37.5555C133.84 37.7755 134.397 37.8855 135.013 37.8855C135.629 37.8855 136.106 37.7828 136.443 37.5775C136.781 37.3575 136.949 37.0568 136.949 36.6755C136.949 36.2941 136.81 36.0008 136.531 35.7955C136.267 35.5755 135.923 35.3995 135.497 35.2675C135.072 35.1208 134.617 34.9815 134.133 34.8495C133.664 34.7028 133.217 34.5195 132.791 34.2995C132.366 34.0795 132.014 33.7788 131.735 33.3975C131.471 33.0161 131.339 32.5101 131.339 31.8795C131.339 31.2488 131.493 30.7061 131.801 30.2515C132.109 29.7821 132.535 29.4228 133.077 29.1735C133.635 28.9241 134.302 28.7995 135.079 28.7995C135.901 28.7995 136.627 28.9461 137.257 29.2395C137.903 29.5181 138.431 29.9435 138.841 30.5155L137.565 31.7915C137.272 31.4101 136.905 31.1168 136.465 30.9115C136.04 30.7061 135.556 30.6035 135.013 30.6035C134.441 30.6035 134.001 30.7061 133.693 30.9115C133.4 31.1021 133.253 31.3735 133.253 31.7255C133.253 32.0775 133.385 32.3488 133.649 32.5395C133.913 32.7301 134.258 32.8915 134.683 33.0235C135.123 33.1555 135.578 33.2948 136.047 33.4415C136.517 33.5735 136.964 33.7568 137.389 33.9915C137.815 34.2261 138.159 34.5415 138.423 34.9375C138.702 35.3335 138.841 35.8541 138.841 36.4995C138.841 37.4821 138.489 38.2595 137.785 38.8315C137.096 39.4035 136.165 39.6895 134.991 39.6895ZM145.018 39.6895C143.977 39.6895 143.038 39.4548 142.202 38.9855C141.366 38.5015 140.706 37.8488 140.222 37.0275C139.738 36.2061 139.496 35.2748 139.496 34.2335C139.496 33.2068 139.731 32.2828 140.2 31.4615C140.684 30.6401 141.329 29.9948 142.136 29.5255C142.957 29.0415 143.874 28.7995 144.886 28.7995C145.854 28.7995 146.705 29.0195 147.438 29.4595C148.186 29.8995 148.765 30.5081 149.176 31.2855C149.601 32.0628 149.814 32.9428 149.814 33.9255C149.814 34.0721 149.807 34.2335 149.792 34.4095C149.777 34.5708 149.748 34.7615 149.704 34.9815H140.882V33.3315H148.648L147.922 33.9695C147.922 33.2655 147.797 32.6715 147.548 32.1875C147.299 31.6888 146.947 31.3075 146.492 31.0435C146.037 30.7648 145.487 30.6255 144.842 30.6255C144.167 30.6255 143.573 30.7721 143.06 31.0655C142.547 31.3588 142.151 31.7695 141.872 32.2975C141.593 32.8255 141.454 33.4488 141.454 34.1675C141.454 34.9008 141.601 35.5461 141.894 36.1035C142.187 36.6461 142.605 37.0715 143.148 37.3795C143.691 37.6728 144.314 37.8195 145.018 37.8195C145.605 37.8195 146.14 37.7168 146.624 37.5115C147.123 37.3061 147.548 36.9981 147.9 36.5875L149.176 37.8855C148.677 38.4721 148.061 38.9195 147.328 39.2275C146.609 39.5355 145.839 39.6895 145.018 39.6895Z" fill="white"/>
<defs>
<linearGradient id="paint0_linear_2926_2498" x1="31.0263" y1="31.043" x2="42.2102" y2="35.7053" gradientUnits="userSpaceOnUse">
<stop stop-color="#249361"/>
<stop offset="1" stop-color="#3ECF8E"/>
</linearGradient>
<linearGradient id="paint1_linear_2926_2498" x1="26.0769" y1="24.2253" x2="31.2162" y2="33.8417" gradientUnits="userSpaceOnUse">
<stop/>
<stop offset="1" stop-opacity="0"/>
</linearGradient>
<clipPath id="clip0_2926_2498">
<rect width="30" height="31.5789" fill="white" transform="translate(16.0337 15.6799)"/>
</clipPath>
</defs>
</svg>
