<svg width="144" height="62" viewBox="0 0 144 62" fill="none" xmlns="http://www.w3.org/2000/svg">
<rect x="0.90625" y="0.33374" width="143" height="61" rx="30.5" fill="#222222"/>
<rect x="8.90625" y="8.33374" width="45" height="45" rx="22.5" fill="black"/>
<g clip-path="url(#clip0_2926_1430)">
<path d="M31.4063 37.2627C39.2961 37.2627 45.692 34.3845 45.692 30.8341C45.692 27.2837 39.2961 24.4055 31.4063 24.4055C23.5165 24.4055 17.1206 27.2837 17.1206 30.8341C17.1206 34.3845 23.5165 37.2627 31.4063 37.2627Z" stroke="#58C4DC" stroke-width="1.90476"/>
<path d="M25.8388 34.0479C29.7837 40.8807 35.4742 44.9806 38.549 43.2054C41.6237 41.4302 40.9183 34.4521 36.9734 27.6194C33.0285 20.7866 27.338 16.6866 24.2633 18.4618C21.1885 20.237 21.8939 27.2152 25.8388 34.0479Z" stroke="#58C4DC" stroke-width="1.90476"/>
<path d="M25.8387 27.6192C21.8939 34.452 21.1885 41.4301 24.2632 43.2053C27.3379 44.9805 33.0285 40.8806 36.9734 34.0478C40.9182 27.2151 41.6236 20.2369 38.5489 18.4617C35.4742 16.6865 29.7836 20.7865 25.8387 27.6192Z" stroke="#58C4DC" stroke-width="1.90476"/>
<path d="M31.406 33.6906C32.9839 33.6906 34.2631 32.4114 34.2631 30.8335C34.2631 29.2555 32.9839 27.9763 31.406 27.9763C29.828 27.9763 28.5488 29.2555 28.5488 30.8335C28.5488 32.4114 29.828 33.6906 31.406 33.6906Z" fill="#58C4DC"/>
</g>
<path d="M67.5828 32.1897V30.4517H71.7188C72.6135 30.4517 73.3028 30.2244 73.7868 29.7697C74.2708 29.3151 74.5128 28.6991 74.5128 27.9217C74.5128 27.1884 74.2708 26.5797 73.7868 26.0957C73.3175 25.6117 72.6355 25.3697 71.7408 25.3697H67.5828V23.5657H71.8068C72.7748 23.5657 73.6181 23.7564 74.3368 24.1377C75.0555 24.5044 75.6055 25.0104 75.9868 25.6557C76.3828 26.3011 76.5808 27.0417 76.5808 27.8777C76.5808 28.7431 76.3828 29.4984 75.9868 30.1437C75.6055 30.7891 75.0555 31.2951 74.3368 31.6617C73.6181 32.0137 72.7748 32.1897 71.8068 32.1897H67.5828ZM66.1968 38.8337V23.5657H68.2648V38.8337H66.1968ZM74.9968 38.8337L69.4528 31.9917L71.4108 31.3097L77.6148 38.8337H74.9968ZM83.0177 39.0537C81.9764 39.0537 81.0377 38.8191 80.2017 38.3497C79.3657 37.8657 78.7057 37.2131 78.2217 36.3917C77.7377 35.5704 77.4957 34.6391 77.4957 33.5977C77.4957 32.5711 77.7304 31.6471 78.1997 30.8257C78.6837 30.0044 79.329 29.3591 80.1357 28.8897C80.957 28.4057 81.8737 28.1637 82.8857 28.1637C83.8537 28.1637 84.7044 28.3837 85.4377 28.8237C86.1857 29.2637 86.765 29.8724 87.1757 30.6497C87.601 31.4271 87.8137 32.3071 87.8137 33.2897C87.8137 33.4364 87.8064 33.5977 87.7917 33.7737C87.777 33.9351 87.7477 34.1257 87.7037 34.3457H78.8817V32.6957H86.6477L85.9217 33.3337C85.9217 32.6297 85.797 32.0357 85.5477 31.5517C85.2984 31.0531 84.9464 30.6717 84.4917 30.4077C84.037 30.1291 83.487 29.9897 82.8417 29.9897C82.167 29.9897 81.573 30.1364 81.0597 30.4297C80.5464 30.7231 80.1504 31.1337 79.8717 31.6617C79.593 32.1897 79.4537 32.8131 79.4537 33.5317C79.4537 34.2651 79.6004 34.9104 79.8937 35.4677C80.187 36.0104 80.605 36.4357 81.1477 36.7437C81.6904 37.0371 82.3137 37.1837 83.0177 37.1837C83.6044 37.1837 84.1397 37.0811 84.6237 36.8757C85.1224 36.6704 85.5477 36.3624 85.8997 35.9517L87.1757 37.2497C86.677 37.8364 86.061 38.2837 85.3277 38.5917C84.609 38.8997 83.839 39.0537 83.0177 39.0537ZM93.5366 39.0537C92.5833 39.0537 91.718 38.8191 90.9406 38.3497C90.1633 37.8657 89.5473 37.2131 89.0926 36.3917C88.6526 35.5704 88.4326 34.6464 88.4326 33.6197C88.4326 32.5931 88.6526 31.6691 89.0926 30.8477C89.5473 30.0264 90.156 29.3737 90.9186 28.8897C91.696 28.4057 92.5686 28.1637 93.5366 28.1637C94.3286 28.1637 95.0326 28.3324 95.6486 28.6697C96.2793 28.9924 96.7853 29.4471 97.1666 30.0337C97.548 30.6057 97.7606 31.2731 97.8046 32.0357V35.1817C97.7606 35.9297 97.548 36.5971 97.1666 37.1837C96.8 37.7704 96.3013 38.2324 95.6706 38.5697C95.0546 38.8924 94.3433 39.0537 93.5366 39.0537ZM93.8666 37.1837C94.8493 37.1837 95.6413 36.8537 96.2426 36.1937C96.844 35.5191 97.1446 34.6611 97.1446 33.6197C97.1446 32.9011 97.0053 32.2777 96.7266 31.7497C96.4626 31.2071 96.0813 30.7891 95.5826 30.4957C95.084 30.1877 94.5046 30.0337 93.8446 30.0337C93.1846 30.0337 92.598 30.1877 92.0846 30.4957C91.586 30.8037 91.19 31.2291 90.8966 31.7717C90.618 32.2997 90.4786 32.9084 90.4786 33.5977C90.4786 34.3017 90.618 34.9251 90.8966 35.4677C91.19 35.9957 91.5933 36.4137 92.1066 36.7217C92.62 37.0297 93.2066 37.1837 93.8666 37.1837ZM97.0126 38.8337V36.0177L97.3866 33.4657L97.0126 30.9357V28.3837H99.0146V38.8337H97.0126ZM105.791 39.0537C104.765 39.0537 103.833 38.8117 102.997 38.3277C102.176 37.8437 101.523 37.1911 101.039 36.3697C100.57 35.5337 100.335 34.6097 100.335 33.5977C100.335 32.5711 100.57 31.6471 101.039 30.8257C101.523 30.0044 102.176 29.3591 102.997 28.8897C103.833 28.4057 104.765 28.1637 105.791 28.1637C106.598 28.1637 107.346 28.3177 108.035 28.6257C108.725 28.9191 109.319 29.3517 109.817 29.9237L108.497 31.2437C108.175 30.8624 107.779 30.5764 107.309 30.3857C106.855 30.1804 106.349 30.0777 105.791 30.0777C105.131 30.0777 104.545 30.2317 104.031 30.5397C103.518 30.8331 103.115 31.2437 102.821 31.7717C102.528 32.2997 102.381 32.9084 102.381 33.5977C102.381 34.2871 102.528 34.8957 102.821 35.4237C103.115 35.9517 103.518 36.3697 104.031 36.6777C104.545 36.9857 105.131 37.1397 105.791 37.1397C106.349 37.1397 106.855 37.0444 107.309 36.8537C107.779 36.6484 108.182 36.3551 108.519 35.9737L109.817 37.2937C109.333 37.8511 108.739 38.2837 108.035 38.5917C107.346 38.8997 106.598 39.0537 105.791 39.0537ZM112.378 38.8337V24.0057H114.358V38.8337H112.378ZM109.804 30.1877V28.3837L116.932 28.3837V30.1877L109.804 30.1877Z" fill="white"/>
<defs>
<clipPath id="clip0_2926_1430">
<rect width="30" height="30" fill="white" transform="translate(16.4062 15.8337)"/>
</clipPath>
</defs>
</svg>
