<svg width="160" height="62" viewBox="0 0 160 62" fill="none" xmlns="http://www.w3.org/2000/svg">
<rect x="0.955566" y="0.765625" width="159" height="61" rx="30.5" fill="#222222"/>
<rect x="8.95557" y="8.76562" width="45" height="45" rx="22.5" fill="black"/>
<g clip-path="url(#clip0_2926_1973)">
<path d="M31.2835 40.2656C31.1838 40.2658 31.0857 40.2401 30.9994 40.1912L30.0947 39.6664C29.9591 39.5926 30.0269 39.5667 30.0703 39.5514C30.213 39.507 30.3496 39.4456 30.4772 39.3687C30.488 39.3637 30.4999 39.3615 30.5118 39.3625C30.5237 39.3634 30.5352 39.3674 30.545 39.374L31.2394 39.778C31.2522 39.7849 31.2666 39.7884 31.2811 39.7884C31.2957 39.7884 31.3101 39.7849 31.3228 39.778L34.0321 38.2459C34.0448 38.2386 34.0554 38.2281 34.0626 38.2155C34.0699 38.2029 34.0736 38.1886 34.0735 38.1742V35.1114C34.0736 35.0967 34.0698 35.0822 34.0624 35.0694C34.055 35.0566 34.0443 35.0458 34.0314 35.0383L31.3235 33.5102C31.3108 33.5031 31.2965 33.4993 31.2818 33.4993C31.2672 33.4993 31.2528 33.5031 31.2401 33.5102L28.5329 35.0383C28.5198 35.0456 28.5089 35.0562 28.5013 35.0689C28.4937 35.0816 28.4896 35.096 28.4895 35.1107V38.1735C28.4896 38.188 28.4936 38.2022 28.5011 38.2147C28.5086 38.2272 28.5193 38.2375 28.5322 38.2446L29.2748 38.6645C29.6776 38.8638 29.9238 38.6299 29.9238 38.3987V35.3725C29.9238 35.3624 29.9258 35.3524 29.9298 35.3431C29.9338 35.3338 29.9396 35.3253 29.9469 35.3182C29.9542 35.3111 29.9629 35.3055 29.9724 35.3017C29.9819 35.2979 29.9922 35.296 30.0025 35.2961H30.3463C30.367 35.2961 30.3869 35.3041 30.4017 35.3184C30.4164 35.3327 30.4248 35.3522 30.425 35.3725V38.3967C30.425 38.9236 30.132 39.2252 29.6227 39.2252C29.466 39.2252 29.3426 39.2252 28.9981 39.0591L28.2881 38.6605C28.2015 38.6113 28.1297 38.5406 28.0799 38.4556C28.03 38.3706 28.0038 38.2742 28.0039 38.1762V35.1134C28.0038 35.0154 28.0301 34.9192 28.0799 34.8343C28.1298 34.7494 28.2016 34.6789 28.2881 34.6297L31.0007 33.0957C31.0879 33.0489 31.1858 33.0244 31.2852 33.0244C31.3846 33.0244 31.4825 33.0489 31.5697 33.0957L34.2824 34.6297C34.3689 34.6788 34.4408 34.7494 34.4908 34.8342C34.5408 34.9191 34.5671 35.0154 34.5672 35.1134V38.1762C34.5671 38.2743 34.5407 38.3706 34.4908 38.4556C34.4408 38.5406 34.3689 38.6112 34.2824 38.6605L31.5697 40.1932C31.4826 40.2418 31.3838 40.2668 31.2835 40.2656Z" fill="#679E63"/>
<path d="M32.1213 38.155C30.9359 38.155 30.687 37.6235 30.687 37.175C30.687 37.1649 30.6891 37.155 30.693 37.1456C30.697 37.1363 30.7028 37.1279 30.7101 37.1208C30.7174 37.1137 30.7261 37.1081 30.7356 37.1043C30.7452 37.1005 30.7554 37.0985 30.7657 37.0986H31.1156C31.1346 37.0985 31.1531 37.1051 31.1675 37.1174C31.1818 37.1296 31.1911 37.1466 31.1936 37.1651C31.2465 37.5139 31.4045 37.6906 32.1213 37.6906C32.6917 37.6906 32.9351 37.5637 32.9351 37.2674C32.9351 37.0966 32.8673 36.9691 31.9789 36.884C31.2377 36.8123 30.7792 36.6522 30.7792 36.0708C30.7792 35.5353 31.2397 35.2164 32.0128 35.2164C32.8802 35.2164 33.3102 35.5114 33.3644 36.1466C33.3652 36.1572 33.3639 36.1678 33.3603 36.1779C33.3568 36.1879 33.3512 36.1971 33.3439 36.205C33.3366 36.2128 33.3277 36.2191 33.3178 36.2235C33.308 36.2278 33.2973 36.2301 33.2864 36.2303H32.9351C32.9174 36.2301 32.9002 36.224 32.8864 36.213C32.8726 36.2021 32.863 36.1868 32.8592 36.1698C32.7751 35.8024 32.5696 35.6848 32.0135 35.6848C31.3903 35.6848 31.3177 35.8974 31.3177 36.0569C31.3177 36.2502 31.4032 36.306 32.2448 36.4156C33.0864 36.5253 33.4722 36.6761 33.4722 37.2488C33.4722 37.8215 32.9792 38.155 32.1213 38.155ZM36.0269 34.9427C36.0269 35.0439 35.9963 35.1428 35.9389 35.2269C35.8815 35.3111 35.7999 35.3766 35.7045 35.4154C35.6091 35.4541 35.5041 35.4642 35.4028 35.4445C35.3015 35.4247 35.2085 35.376 35.1355 35.3045C35.0624 35.2329 35.0127 35.1418 34.9925 35.0425C34.9724 34.9433 34.9827 34.8404 35.0223 34.747C35.0618 34.6535 35.1287 34.5736 35.2146 34.5174C35.3005 34.4612 35.4014 34.4312 35.5047 34.4312C35.6431 34.4315 35.7757 34.4855 35.8735 34.5814C35.9714 34.6772 36.0265 34.8072 36.0269 34.9427ZM35.0673 34.9427C35.0669 35.0278 35.0923 35.111 35.1403 35.1819C35.1882 35.2528 35.2566 35.3081 35.3368 35.3408C35.4169 35.3736 35.5052 35.3822 35.5903 35.3658C35.6755 35.3493 35.7538 35.3083 35.8152 35.2482C35.8765 35.1881 35.9183 35.1114 35.9351 35.028C35.952 34.9445 35.9431 34.8581 35.9097 34.7796C35.8763 34.701 35.8199 34.634 35.7475 34.587C35.6751 34.54 35.5902 34.5151 35.5033 34.5155C35.3881 34.516 35.2777 34.561 35.1961 34.6408C35.1144 34.7205 35.0682 34.8285 35.0673 34.9414V34.9427ZM35.3087 34.657H35.5122C35.58 34.657 35.7156 34.657 35.7156 34.8092C35.718 34.8418 35.7081 34.8741 35.6877 34.9C35.6673 34.9258 35.6379 34.9434 35.6051 34.9494C35.6851 34.9553 35.6905 35.0065 35.702 35.0822C35.7049 35.1338 35.7149 35.1848 35.7319 35.2337H35.6071C35.6071 35.2065 35.5847 35.0603 35.5847 35.0523C35.5773 35.0198 35.5657 35.0038 35.5244 35.0038H35.422V35.2337H35.3087V34.657ZM35.4192 34.9088H35.5122C35.5236 34.9102 35.5352 34.9091 35.5462 34.9056C35.5572 34.9021 35.5672 34.8963 35.5756 34.8885C35.584 34.8808 35.5906 34.8714 35.5949 34.8609C35.5991 34.8504 35.601 34.8391 35.6003 34.8278C35.6003 34.7494 35.5447 34.7494 35.5149 34.7494H35.4206L35.4192 34.9088Z" fill="#679E63"/>
<path fill-rule="evenodd" clip-rule="evenodd" d="M22.8941 28.2816C22.8942 28.2217 22.8782 28.1629 22.8477 28.111C22.8173 28.0591 22.7734 28.0159 22.7205 27.9859L19.8464 26.3669C19.7983 26.3393 19.744 26.324 19.6884 26.3223H19.6585C19.6029 26.3243 19.5487 26.3395 19.5005 26.3669L16.6292 27.9859C16.5764 28.016 16.5326 28.0592 16.5021 28.1111C16.4716 28.1629 16.4556 28.2217 16.4556 28.2816L16.4617 32.6426C16.4615 32.6723 16.4694 32.7016 16.4847 32.7273C16.4999 32.753 16.522 32.7742 16.5485 32.7887C16.5744 32.8044 16.6042 32.8127 16.6346 32.8127C16.665 32.8127 16.6948 32.8044 16.7207 32.7887L18.4277 31.8327C18.4804 31.8027 18.5241 31.7596 18.5546 31.7079C18.5851 31.6561 18.6011 31.5974 18.6013 31.5377V29.4994C18.6011 29.4397 18.6171 29.381 18.6476 29.3293C18.6781 29.2776 18.722 29.2348 18.7749 29.2051L19.5019 28.7952C19.5545 28.7649 19.6145 28.749 19.6755 28.7493C19.7361 28.7489 19.7957 28.7648 19.8477 28.7952L20.5747 29.2051C20.6275 29.2349 20.6713 29.2778 20.7018 29.3295C20.7322 29.3811 20.7483 29.4397 20.7484 29.4994V31.5364C20.7483 31.5963 20.7643 31.6552 20.7948 31.7072C20.8253 31.7592 20.8691 31.8025 20.922 31.8327L22.6269 32.7887C22.6529 32.8044 22.6828 32.8126 22.7133 32.8126C22.7439 32.8126 22.7738 32.8044 22.7998 32.7887C22.826 32.774 22.8478 32.7527 22.8629 32.727C22.8781 32.7013 22.886 32.6722 22.8859 32.6426L22.8941 28.2816ZM36.7144 22.2869C36.688 22.2726 36.6582 22.2652 36.628 22.2656C36.5978 22.266 36.5682 22.2742 36.5421 22.2892C36.5161 22.3042 36.4945 22.3256 36.4796 22.3513C36.4646 22.377 36.4567 22.4061 36.4567 22.4357V26.7542C36.4567 26.7751 36.4511 26.7957 36.4405 26.8138C36.4298 26.8319 36.4144 26.847 36.3959 26.8574C36.3774 26.8679 36.3564 26.8733 36.3351 26.8733C36.3137 26.8732 36.2927 26.8677 36.2743 26.8572L35.5554 26.4512C35.5026 26.4214 35.4428 26.4057 35.3818 26.4057C35.3209 26.4057 35.261 26.4214 35.2082 26.4512L32.3348 28.0756C32.2821 28.1055 32.2383 28.1484 32.2079 28.2001C32.1774 28.2517 32.1613 28.3103 32.1612 28.37V31.6201C32.1613 31.6797 32.1774 31.7383 32.2079 31.79C32.2383 31.8416 32.2821 31.8845 32.3348 31.9144L35.2082 33.5401C35.2609 33.5702 35.3208 33.586 35.3818 33.586C35.4428 33.586 35.5027 33.5702 35.5554 33.5401L38.4281 31.9144C38.4807 31.8845 38.5244 31.8416 38.5548 31.7899C38.5851 31.7383 38.6011 31.6797 38.6011 31.6201V23.5187C38.6015 23.4586 38.5857 23.3995 38.5553 23.3474C38.525 23.2952 38.4811 23.2519 38.4281 23.2217L36.7144 22.2869ZM36.4479 30.5524C36.4479 30.5673 36.4439 30.5819 36.4363 30.5947C36.4287 30.6076 36.4177 30.6182 36.4045 30.6255L35.4184 31.1829C35.4053 31.1905 35.3903 31.1944 35.375 31.1944C35.3598 31.1944 35.3448 31.1905 35.3316 31.1829L34.3449 30.6255C34.3317 30.6182 34.3207 30.6076 34.3131 30.5947C34.3055 30.5819 34.3014 30.5673 34.3015 30.5524V29.4363C34.3014 29.4213 34.3054 29.4066 34.313 29.3937C34.3206 29.3807 34.3316 29.37 34.3449 29.3625L35.3316 28.8045C35.3448 28.7969 35.3598 28.793 35.375 28.793C35.3903 28.793 35.4053 28.7969 35.4184 28.8045L36.4045 29.3625C36.4177 29.37 36.4287 29.3807 36.4364 29.3937C36.444 29.4066 36.448 29.4213 36.4479 29.4363V30.5524ZM46.2833 29.4071C46.3358 29.377 46.3793 29.334 46.4095 29.2824C46.4397 29.2307 46.4556 29.1723 46.4556 29.1127V28.3254C46.4556 28.2659 46.4396 28.2075 46.4093 28.1559C46.3789 28.1044 46.3352 28.0615 46.2826 28.0318L43.4276 26.4074C43.3748 26.3775 43.3149 26.3618 43.2539 26.3618C43.193 26.3618 43.1331 26.3775 43.0803 26.4074L40.2076 28.0318C40.1549 28.0616 40.1111 28.1045 40.0806 28.1562C40.0501 28.2078 40.0341 28.2664 40.034 28.3261V31.5749C40.034 31.635 40.0503 31.694 40.0811 31.7459C40.112 31.7979 40.1563 31.8409 40.2097 31.8706L43.0641 33.4651C43.1158 33.4936 43.1742 33.5086 43.2336 33.5086C43.293 33.5086 43.3514 33.4936 43.4031 33.4651L45.1298 32.525C45.1564 32.51 45.1785 32.4885 45.1939 32.4624C45.2093 32.4364 45.2174 32.4069 45.2174 32.3768C45.2174 32.3468 45.2093 32.3172 45.1939 32.2912C45.1785 32.2652 45.1564 32.2436 45.1298 32.2287L42.2387 30.6036C42.2124 30.5886 42.1905 30.5671 42.1752 30.5412C42.16 30.5153 42.152 30.486 42.1519 30.4561V29.4409C42.1519 29.4111 42.16 29.3819 42.1752 29.3561C42.1905 29.3303 42.2124 29.3089 42.2387 29.2941L43.1414 28.7832C43.1677 28.7682 43.1977 28.7603 43.2282 28.7603C43.2587 28.7603 43.2886 28.7682 43.315 28.7832L44.2149 29.2914C44.2413 29.3063 44.2632 29.3277 44.2784 29.3534C44.2937 29.3792 44.3017 29.4085 44.3017 29.4383V30.2382C44.3016 30.2681 44.3095 30.2975 44.3248 30.3234C44.34 30.3493 44.3619 30.3708 44.3884 30.3857C44.4148 30.4006 44.4448 30.4084 44.4754 30.4083C44.5059 30.4082 44.5358 30.4001 44.5621 30.385L46.2833 29.4071Z" fill="white"/>
<path fill-rule="evenodd" clip-rule="evenodd" d="M43.212 29.255C43.2223 29.2492 43.234 29.2461 43.2459 29.2461C43.2578 29.2461 43.2695 29.2492 43.2798 29.255L43.8312 29.5666C43.8412 29.5724 43.8495 29.5807 43.8554 29.5906C43.8612 29.6004 43.8643 29.6116 43.8644 29.6231V30.2469C43.8643 30.2583 43.8612 30.2695 43.8554 30.2794C43.8495 30.2893 43.8412 30.2976 43.8312 30.3034L43.2798 30.615C43.2695 30.6208 43.2578 30.6239 43.2459 30.6239C43.234 30.6239 43.2223 30.6208 43.212 30.615L42.6607 30.3047C42.6506 30.2989 42.6423 30.2906 42.6365 30.2807C42.6307 30.2709 42.6276 30.2597 42.6274 30.2482V29.6244C42.6276 29.613 42.6307 29.6018 42.6365 29.5919C42.6423 29.582 42.6506 29.5737 42.6607 29.5679L43.212 29.255Z" fill="#679E63"/>
<path fill-rule="evenodd" clip-rule="evenodd" d="M27.7002 26.424C27.6479 26.3943 27.5885 26.3787 27.528 26.3787C27.4675 26.3787 27.4081 26.3943 27.3557 26.424L24.4979 28.0391C24.4456 28.0689 24.4021 28.1116 24.3718 28.163C24.3416 28.2144 24.3257 28.2727 24.3257 28.3321V31.5669C24.3257 31.6263 24.3416 31.6846 24.3718 31.736C24.4021 31.7874 24.4456 31.8301 24.4979 31.8599L27.355 33.4764C27.4076 33.5061 27.4673 33.5218 27.528 33.5218C27.5887 33.5218 27.6483 33.5061 27.7009 33.4764L30.5573 31.8599C30.6097 31.8301 30.6532 31.7874 30.6834 31.736C30.7137 31.6846 30.7296 31.6263 30.7296 31.5669V28.3321C30.7296 28.2727 30.7137 28.2144 30.6834 28.163C30.6532 28.1116 30.6097 28.0689 30.5573 28.0391L27.7002 26.424Z" fill="url(#paint0_linear_2926_1973)"/>
<mask id="mask0_2926_1973" style="mask-type:luminance" maskUnits="userSpaceOnUse" x="24" y="26" width="7" height="8">
<path d="M27.7002 26.424C27.6479 26.3943 27.5885 26.3787 27.528 26.3787C27.4675 26.3787 27.4081 26.3943 27.3557 26.424L24.4979 28.0391C24.4456 28.0689 24.4021 28.1116 24.3718 28.163C24.3416 28.2144 24.3257 28.2727 24.3257 28.3321V31.5669C24.3257 31.6263 24.3416 31.6846 24.3718 31.736C24.4021 31.7874 24.4456 31.8301 24.4979 31.8599L27.355 33.4764C27.4076 33.5061 27.4673 33.5218 27.528 33.5218C27.5887 33.5218 27.6483 33.5061 27.7009 33.4764L30.5573 31.8599C30.6097 31.8301 30.6532 31.7874 30.6834 31.736C30.7137 31.6846 30.7296 31.6263 30.7296 31.5669V28.3321C30.7296 28.2727 30.7137 28.2144 30.6834 28.163C30.6532 28.1116 30.6097 28.0689 30.5573 28.0391L27.7002 26.424Z" fill="white"/>
</mask>
<g mask="url(#mask0_2926_1973)">
<path d="M30.5614 28.0392L27.6975 26.4241C27.6694 26.4086 27.6393 26.3967 27.608 26.3889L24.3901 31.781C24.4179 31.8117 24.4504 31.8379 24.4864 31.8587L27.3564 33.4752C27.3965 33.4976 27.4406 33.512 27.4864 33.5176C27.5321 33.5231 27.5785 33.5198 27.623 33.5077L30.6388 28.0977C30.6159 28.0747 30.5899 28.0551 30.5614 28.0392Z" fill="url(#paint1_linear_2926_1973)"/>
<path d="M30.5649 31.8587C30.6479 31.8115 30.7086 31.7341 30.7338 31.6434L27.5925 26.3849C27.5096 26.3683 27.4233 26.3817 27.3498 26.4227L24.5015 28.0285L27.5776 33.517C27.622 33.5109 27.6648 33.4967 27.7038 33.4751L30.5649 31.8587Z" fill="url(#paint2_linear_2926_1973)"/>
<path d="M30.5648 31.8587L27.7043 33.4751C27.6653 33.4967 27.6225 33.5109 27.5781 33.517L27.6351 33.6186L30.8116 31.8168V31.775L30.7336 31.6421C30.7087 31.7333 30.648 31.8112 30.5648 31.8587Z" fill="url(#paint3_linear_2926_1973)"/>
<path d="M30.5648 31.8587L27.7043 33.4751C27.6653 33.4967 27.6225 33.5109 27.5781 33.517L27.6351 33.6186L30.8116 31.8168V31.775L30.7336 31.6421C30.7087 31.7333 30.648 31.8112 30.5648 31.8587Z" fill="url(#paint4_linear_2926_1973)"/>
</g>
</g>
<path d="M66.2423 39.2656V23.9976H67.6943L68.3103 26.3956V39.2656H66.2423ZM76.8023 39.2656L67.4303 26.7476L67.6943 23.9976L77.0883 36.4936L76.8023 39.2656ZM76.8023 39.2656L76.1863 36.9996V23.9976H78.2543V39.2656H76.8023ZM85.4035 39.4856C84.3768 39.4856 83.4528 39.2436 82.6315 38.7596C81.8101 38.2756 81.1575 37.623 80.6735 36.8016C80.1895 35.9656 79.9475 35.0343 79.9475 34.0076C79.9475 32.9956 80.1895 32.0863 80.6735 31.2796C81.1575 30.4583 81.8101 29.8056 82.6315 29.3216C83.4528 28.8376 84.3768 28.5956 85.4035 28.5956C86.4155 28.5956 87.3321 28.8376 88.1535 29.3216C88.9895 29.791 89.6495 30.4363 90.1335 31.2576C90.6175 32.079 90.8595 32.9956 90.8595 34.0076C90.8595 35.0343 90.6175 35.9656 90.1335 36.8016C89.6495 37.623 88.9895 38.2756 88.1535 38.7596C87.3321 39.2436 86.4155 39.4856 85.4035 39.4856ZM85.4035 37.5716C86.0635 37.5716 86.6501 37.4176 87.1635 37.1096C87.6768 36.8016 88.0801 36.3836 88.3735 35.8556C88.6668 35.313 88.8135 34.697 88.8135 34.0076C88.8135 33.333 88.6595 32.7316 88.3515 32.2036C88.0581 31.6756 87.6548 31.265 87.1415 30.9716C86.6428 30.6636 86.0635 30.5096 85.4035 30.5096C84.7435 30.5096 84.1568 30.6636 83.6435 30.9716C83.1301 31.265 82.7268 31.6756 82.4335 32.2036C82.1401 32.7316 81.9935 33.333 81.9935 34.0076C81.9935 34.697 82.1401 35.313 82.4335 35.8556C82.7268 36.3836 83.1301 36.8016 83.6435 37.1096C84.1568 37.4176 84.7435 37.5716 85.4035 37.5716ZM96.6324 39.4856C95.6644 39.4856 94.7991 39.251 94.0364 38.7816C93.2738 38.2976 92.6651 37.645 92.2104 36.8236C91.7704 36.0023 91.5504 35.0783 91.5504 34.0516C91.5504 33.025 91.7704 32.101 92.2104 31.2796C92.6651 30.4583 93.2738 29.8056 94.0364 29.3216C94.7991 28.8376 95.6644 28.5956 96.6324 28.5956C97.4098 28.5956 98.1138 28.7643 98.7444 29.1016C99.3751 29.4243 99.8811 29.879 100.262 30.4656C100.658 31.0376 100.878 31.705 100.922 32.4676V35.6136C100.878 36.3616 100.666 37.029 100.284 37.6156C99.9031 38.2023 99.3971 38.6643 98.7664 39.0016C98.1358 39.3243 97.4244 39.4856 96.6324 39.4856ZM96.9624 37.6156C97.6224 37.6156 98.1944 37.4616 98.6784 37.1536C99.1771 36.8456 99.5658 36.4276 99.8444 35.8996C100.123 35.357 100.262 34.741 100.262 34.0516C100.262 33.333 100.116 32.7096 99.8224 32.1816C99.5438 31.6536 99.1551 31.2356 98.6564 30.9276C98.1724 30.6196 97.6004 30.4656 96.9404 30.4656C96.2804 30.4656 95.7011 30.6196 95.2024 30.9276C94.7038 31.2356 94.3078 31.661 94.0144 32.2036C93.7358 32.7316 93.5964 33.3403 93.5964 34.0296C93.5964 34.7336 93.7358 35.357 94.0144 35.8996C94.3078 36.4276 94.7038 36.8456 95.2024 37.1536C95.7158 37.4616 96.3024 37.6156 96.9624 37.6156ZM102.132 39.2656H100.13V36.4496L100.504 33.8976L100.13 31.3676V23.5576H102.132V39.2656ZM108.975 39.4856C107.934 39.4856 106.995 39.251 106.159 38.7816C105.323 38.2976 104.663 37.645 104.179 36.8236C103.695 36.0023 103.453 35.071 103.453 34.0296C103.453 33.003 103.688 32.079 104.157 31.2576C104.641 30.4363 105.286 29.791 106.093 29.3216C106.914 28.8376 107.831 28.5956 108.843 28.5956C109.811 28.5956 110.662 28.8156 111.395 29.2556C112.143 29.6956 112.722 30.3043 113.133 31.0816C113.558 31.859 113.771 32.739 113.771 33.7216C113.771 33.8683 113.764 34.0296 113.749 34.2056C113.734 34.367 113.705 34.5576 113.661 34.7776H104.839V33.1276H112.605L111.879 33.7656C111.879 33.0616 111.754 32.4676 111.505 31.9836C111.256 31.485 110.904 31.1036 110.449 30.8396C109.994 30.561 109.444 30.4216 108.799 30.4216C108.124 30.4216 107.53 30.5683 107.017 30.8616C106.504 31.155 106.108 31.5656 105.829 32.0936C105.55 32.6216 105.411 33.245 105.411 33.9636C105.411 34.697 105.558 35.3423 105.851 35.8996C106.144 36.4423 106.562 36.8676 107.105 37.1756C107.648 37.469 108.271 37.6156 108.975 37.6156C109.562 37.6156 110.097 37.513 110.581 37.3076C111.08 37.1023 111.505 36.7943 111.857 36.3836L113.133 37.6816C112.634 38.2683 112.018 38.7156 111.285 39.0236C110.566 39.3316 109.796 39.4856 108.975 39.4856ZM116.788 39.4856C116.377 39.4856 116.033 39.3463 115.754 39.0676C115.49 38.7743 115.358 38.4296 115.358 38.0336C115.358 37.623 115.49 37.2856 115.754 37.0216C116.033 36.743 116.377 36.6036 116.788 36.6036C117.199 36.6036 117.536 36.743 117.8 37.0216C118.079 37.2856 118.218 37.623 118.218 38.0336C118.218 38.4296 118.079 38.7743 117.8 39.0676C117.536 39.3463 117.199 39.4856 116.788 39.4856ZM120.026 43.8636C119.351 43.8636 118.786 43.7536 118.332 43.5336C117.862 43.3136 117.444 42.9983 117.078 42.5876L118.354 41.2896C118.559 41.539 118.786 41.7223 119.036 41.8396C119.27 41.957 119.556 42.0156 119.894 42.0156C120.334 42.0156 120.715 41.8763 121.038 41.5976C121.36 41.3336 121.522 40.9303 121.522 40.3876V28.8156H123.502V40.3656C123.502 41.1283 123.34 41.7663 123.018 42.2796C122.695 42.793 122.27 43.1816 121.742 43.4456C121.214 43.7243 120.642 43.8636 120.026 43.8636ZM122.534 26.7256C122.182 26.7256 121.888 26.6083 121.654 26.3736C121.419 26.1243 121.302 25.8163 121.302 25.4496C121.302 25.0976 121.419 24.8043 121.654 24.5696C121.888 24.3203 122.182 24.1956 122.534 24.1956C122.9 24.1956 123.201 24.3203 123.436 24.5696C123.67 24.8043 123.788 25.0976 123.788 25.4496C123.788 25.8163 123.67 26.1243 123.436 26.3736C123.201 26.6083 122.9 26.7256 122.534 26.7256ZM128.858 39.4856C128.271 39.4856 127.714 39.4123 127.186 39.2656C126.673 39.1043 126.196 38.8843 125.756 38.6056C125.316 38.3123 124.935 37.9676 124.612 37.5716L125.888 36.2956C126.269 36.765 126.709 37.117 127.208 37.3516C127.707 37.5716 128.264 37.6816 128.88 37.6816C129.496 37.6816 129.973 37.579 130.31 37.3736C130.647 37.1536 130.816 36.853 130.816 36.4716C130.816 36.0903 130.677 35.797 130.398 35.5916C130.134 35.3716 129.789 35.1956 129.364 35.0636C128.939 34.917 128.484 34.7776 128 34.6456C127.531 34.499 127.083 34.3156 126.658 34.0956C126.233 33.8756 125.881 33.575 125.602 33.1936C125.338 32.8123 125.206 32.3063 125.206 31.6756C125.206 31.045 125.36 30.5023 125.668 30.0476C125.976 29.5783 126.401 29.219 126.944 28.9696C127.501 28.7203 128.169 28.5956 128.946 28.5956C129.767 28.5956 130.493 28.7423 131.124 29.0356C131.769 29.3143 132.297 29.7396 132.708 30.3116L131.432 31.5876C131.139 31.2063 130.772 30.913 130.332 30.7076C129.907 30.5023 129.423 30.3996 128.88 30.3996C128.308 30.3996 127.868 30.5023 127.56 30.7076C127.267 30.8983 127.12 31.1696 127.12 31.5216C127.12 31.8736 127.252 32.145 127.516 32.3356C127.78 32.5263 128.125 32.6876 128.55 32.8196C128.99 32.9516 129.445 33.091 129.914 33.2376C130.383 33.3696 130.831 33.553 131.256 33.7876C131.681 34.0223 132.026 34.3376 132.29 34.7336C132.569 35.1296 132.708 35.6503 132.708 36.2956C132.708 37.2783 132.356 38.0556 131.652 38.6276C130.963 39.1996 130.031 39.4856 128.858 39.4856Z" fill="white"/>
<defs>
<linearGradient id="paint0_linear_2926_1973" x1="28.6897" y1="27.6272" x2="26.1923" y2="32.8266" gradientUnits="userSpaceOnUse">
<stop stop-color="#3F873F"/>
<stop offset="0.33" stop-color="#3F8B3D"/>
<stop offset="0.64" stop-color="#3E9637"/>
<stop offset="0.93" stop-color="#3DA92E"/>
<stop offset="1" stop-color="#3DAE2B"/>
</linearGradient>
<linearGradient id="paint1_linear_2926_1973" x1="27.0926" y1="30.3274" x2="34.2304" y2="24.9439" gradientUnits="userSpaceOnUse">
<stop offset="0.14" stop-color="#3F873F"/>
<stop offset="0.4" stop-color="#529F44"/>
<stop offset="0.71" stop-color="#63B649"/>
<stop offset="0.91" stop-color="#6ABF4B"/>
</linearGradient>
<linearGradient id="paint2_linear_2926_1973" x1="24.2248" y1="29.9479" x2="30.8308" y2="29.9479" gradientUnits="userSpaceOnUse">
<stop offset="0.09" stop-color="#6ABF4B"/>
<stop offset="0.29" stop-color="#63B649"/>
<stop offset="0.6" stop-color="#529F44"/>
<stop offset="0.86" stop-color="#3F873F"/>
</linearGradient>
<linearGradient id="paint3_linear_2926_1973" x1="24.2246" y1="32.6307" x2="30.8306" y2="32.6307" gradientUnits="userSpaceOnUse">
<stop offset="0.09" stop-color="#6ABF4B"/>
<stop offset="0.29" stop-color="#63B649"/>
<stop offset="0.6" stop-color="#529F44"/>
<stop offset="0.86" stop-color="#3F873F"/>
</linearGradient>
<linearGradient id="paint4_linear_2926_1973" x1="31.7936" y1="27.4744" x2="27.8524" y2="35.6811" gradientUnits="userSpaceOnUse">
<stop stop-color="#3F873F"/>
<stop offset="0.33" stop-color="#3F8B3D"/>
<stop offset="0.64" stop-color="#3E9637"/>
<stop offset="0.93" stop-color="#3DA92E"/>
<stop offset="1" stop-color="#3DAE2B"/>
</linearGradient>
<clipPath id="clip0_2926_1973">
<rect width="30" height="18" fill="white" transform="translate(16.4556 22.2656)"/>
</clipPath>
</defs>
</svg>
