<svg width="200" height="62" viewBox="0 0 200 62" fill="none" xmlns="http://www.w3.org/2000/svg">
<rect x="0.277344" y="0.567383" width="199" height="61" rx="30.5" fill="#222222"/>
<rect x="8.27734" y="8.56738" width="45" height="45" rx="22.5" fill="black"/>
<g clip-path="url(#clip0_2926_2662)">
<path d="M38.2007 38.0812C38.3982 36.4504 38.3374 36.2109 39.5576 36.4756L39.8664 36.5033C40.803 36.5462 42.0308 36.3521 42.7522 36.0194C44.304 35.3035 45.2229 34.1062 43.6939 34.4213C40.2031 35.1372 39.9651 33.9625 39.9651 33.9625C43.6509 28.518 45.19 21.6065 43.861 19.9151C40.236 15.2999 33.958 17.4827 33.8517 17.5382L33.8188 17.5432C33.1303 17.3995 32.3582 17.3164 31.4899 17.3012C29.9103 17.276 28.7129 17.7146 27.8041 18.4002C27.8041 18.4002 16.6051 13.8051 17.1265 24.1775C17.2379 26.383 20.3035 40.8716 23.9589 36.4958C25.2955 34.8952 26.5865 33.5416 26.5865 33.5416C27.227 33.9651 27.9965 34.1818 28.8015 34.1037L28.8648 34.0508C28.8445 34.2499 28.8547 34.444 28.8901 34.6734C27.9484 35.7219 28.2243 35.9059 26.3435 36.2916C24.4373 36.6823 25.5587 37.378 26.2878 37.5595C27.1738 37.7813 29.2217 38.0913 30.609 36.163L30.5533 36.3823C30.9229 36.6773 30.8975 38.4971 30.9507 39.7978C31.0039 41.0984 31.0899 42.3134 31.3583 43.0292C31.6241 43.7451 31.938 45.5877 34.4137 45.0608C36.4819 44.6197 38.064 43.9845 38.2083 38.0762" fill="#040000"/>
<path d="M37.5523 15.6832C39.8273 15.7104 42.7462 16.3992 44.8826 19.1191L44.9397 19.1941C45.5134 19.9816 45.6438 21.0824 45.6284 22.0778C45.6114 23.1807 45.4064 24.479 45.0497 25.8543C44.4445 28.188 43.3716 30.8609 41.8832 33.3579C42.2526 33.3472 42.7567 33.2945 43.4322 33.156C43.6793 33.1052 43.942 33.0703 44.1998 33.079C44.4292 33.0867 44.8305 33.1333 45.1946 33.4086C45.6503 33.7533 45.8118 34.2698 45.7683 34.7225C45.7328 35.0929 45.5705 35.3808 45.4596 35.5474C45.2255 35.899 44.88 36.2101 44.5439 36.4594C44.233 36.6899 43.8681 36.9132 43.47 37.1093L43.2975 37.1915C42.3416 37.6323 40.8951 37.8436 39.8066 37.7938L39.7782 37.7923L39.7498 37.7899L39.5436 37.7712C39.5372 37.8248 39.5306 37.8811 39.5236 37.9413C39.5174 37.9942 39.5106 38.0497 39.5038 38.1074L39.5053 38.1077C39.4319 41.1099 38.9992 43.0785 38.094 44.3615C37.1172 45.7457 35.7604 46.0948 34.6854 46.324H34.6847C33.9118 46.4885 33.204 46.4901 32.5688 46.3073C31.9205 46.1207 31.4326 45.7663 31.0764 45.3567C30.4511 44.6377 30.1918 43.6134 30.1412 43.477V43.4768C29.9508 42.967 29.849 42.3581 29.7842 41.7746C29.7174 41.1725 29.681 40.5069 29.6542 39.8502C29.6368 39.4251 29.6279 39.0089 29.6146 38.6083C28.1331 39.2506 26.6387 38.9789 25.973 38.8124V38.8126C25.6911 38.7425 25.38 38.6265 25.0984 38.4732C24.9192 38.3756 24.6216 38.1942 24.3795 37.9021C23.8983 38.3022 23.3313 38.5762 22.6752 38.6039C21.7432 38.6432 20.9943 38.1703 20.4605 37.6535C19.4286 36.6547 18.6182 34.9354 17.996 33.2503C17.3515 31.5048 16.8291 29.5651 16.4611 27.9304C16.1219 26.4235 15.8943 25.0891 15.8394 24.3764L15.8307 24.2423V24.242C15.6895 21.4331 16.3321 19.3797 17.6324 18.0111C18.9215 16.6543 20.6473 16.1932 22.1993 16.1093C23.7532 16.0254 25.2816 16.3085 26.3876 16.5938C26.8842 16.7219 27.3091 16.8546 27.6303 16.9627C28.6838 16.341 29.9702 15.9851 31.5105 16.0096H31.5125L31.8601 16.0192C32.5296 16.0446 33.1556 16.1094 33.7413 16.213C33.7582 16.2078 33.7756 16.2023 33.7935 16.197C34.0126 16.132 34.3138 16.0515 34.6797 15.9737C35.4084 15.8188 36.4151 15.6697 37.5523 15.6832ZM37.5212 18.2669C36.6225 18.2562 35.8132 18.3747 35.2216 18.5005C34.9274 18.563 34.6924 18.6262 34.5336 18.6733C34.4648 18.6937 34.4119 18.7106 34.3762 18.7225L34.2622 18.7823L34.0489 18.8148L34.016 18.82L33.7831 18.8557L33.5527 18.8074C32.9559 18.6829 32.2663 18.6067 31.467 18.5928V18.5925C30.16 18.5721 29.2505 18.9297 28.5875 19.4299L27.9959 19.8762L27.3097 19.5946V19.5944H27.3092C27.3063 19.5932 27.3008 19.5909 27.2928 19.5877C27.2769 19.5814 27.2509 19.5713 27.2157 19.5579C27.1452 19.5312 27.0377 19.4915 26.8988 19.4435C26.6201 19.3473 26.2183 19.2189 25.7369 19.0947C24.7593 18.8425 23.5206 18.6252 22.34 18.689C21.1575 18.7529 20.1813 19.0878 19.5173 19.7866C18.8645 20.4737 18.3028 21.7355 18.4222 24.1125L18.4281 24.2029C18.4684 24.7004 18.6569 25.8722 18.993 27.3655C19.3454 28.9309 19.8386 30.7534 20.4313 32.3587C21.0463 34.0245 21.6946 35.2449 22.269 35.8009C22.4309 35.9576 22.5286 36.0048 22.5667 36.0183C22.6147 35.9988 22.748 35.9251 22.9615 35.6695C23.645 34.851 24.3147 34.0982 24.8123 33.5511C25.0615 33.2772 25.2685 33.0538 25.4138 32.8983C25.4865 32.8205 25.544 32.7596 25.5834 32.7179C25.6031 32.697 25.6184 32.6809 25.6289 32.6699C25.6341 32.6643 25.6382 32.66 25.641 32.6571C25.6424 32.6556 25.6434 32.6542 25.6442 32.6534L25.6454 32.6521H25.6457C25.6475 32.6538 25.6826 32.6869 26.3801 33.3465L25.6457 32.6519L26.3962 31.8652L27.304 32.4653C27.6128 32.6695 27.9581 32.7926 28.3175 32.821L30.4774 31.0147L30.1555 34.1808C30.1492 34.2432 30.1487 34.3238 30.1724 34.4769L30.2653 35.0797L29.8572 35.5344C29.8537 35.5382 29.8502 35.5421 29.8468 35.5459L30.8519 36.0107L31.3644 35.3741C31.6491 35.6013 31.794 35.8833 31.866 36.0501C31.9459 36.2351 31.9969 36.4235 32.0319 36.5847C32.1019 36.9074 32.14 37.2755 32.1646 37.6217C32.2125 38.2957 32.2231 39.163 32.2469 39.7453C32.2733 40.3892 32.3066 40.9814 32.3631 41.4908C32.4143 41.9515 32.4781 42.2808 32.5448 42.4934L32.5735 42.5773L32.575 42.5813C32.6192 42.7003 32.6656 42.8458 32.6969 42.9407C32.7335 43.0518 32.7675 43.1511 32.8056 43.2469C32.8835 43.4426 32.9601 43.576 33.0378 43.6653C33.1027 43.7399 33.1741 43.7922 33.2892 43.8253C33.4174 43.8622 33.6772 43.8963 34.1418 43.7975L34.322 43.7581C35.1932 43.5609 35.6265 43.364 35.9709 42.8759C36.4098 42.2539 36.8403 40.9505 36.9113 38.0446L38.1471 38.0744L36.9125 37.9265C36.9573 37.5566 36.997 37.1793 37.0443 36.8944C37.0865 36.64 37.168 36.2034 37.4324 35.827C37.7879 35.321 38.3062 35.126 38.776 35.0962C38.913 35.0875 39.0522 35.0925 39.1884 35.1053C39.131 35.047 39.0785 34.9868 39.0306 34.9251C38.9213 34.7844 38.8444 34.6467 38.7911 34.5236C38.7646 34.4625 38.7439 34.4054 38.728 34.354C38.7202 34.3284 38.7135 34.3041 38.7078 34.2814C38.7049 34.2701 38.7023 34.259 38.6999 34.2484C38.6987 34.2432 38.6975 34.238 38.6964 34.2329C38.6959 34.2304 38.6954 34.2278 38.6949 34.2253C38.6947 34.2241 38.6941 34.2222 38.6939 34.2216C38.6936 34.2198 38.6961 34.2173 39.9651 33.9624L38.6932 34.2179L38.5859 33.6884L38.8892 33.2404C40.6446 30.6475 41.8925 27.695 42.5373 25.2084C42.86 23.964 43.021 22.8769 43.034 22.038C43.0404 21.619 43.0094 21.2915 42.9578 21.0521C42.9324 20.9342 42.9043 20.8487 42.8797 20.7902C42.8567 20.7354 42.8405 20.713 42.8391 20.7112L42.8389 20.7109C41.3504 18.8158 39.3179 18.2883 37.5212 18.2669Z" fill="#040000"/>
<path d="M43.6965 34.4213C40.2056 35.1372 39.9677 33.9625 39.9677 33.9625C43.6534 28.518 45.1925 21.6065 43.8635 19.9151C40.236 15.2999 33.958 17.4827 33.8517 17.5382L33.8188 17.5432C33.1303 17.3995 32.3582 17.3164 31.4899 17.3012C29.9103 17.276 28.7129 17.7146 27.8041 18.4002C27.8041 18.4002 16.6051 13.8077 17.1265 24.1775C17.2379 26.383 20.3035 40.8716 23.9589 36.4958C25.2955 34.8952 26.5865 33.5416 26.5865 33.5416C27.227 33.9651 27.9965 34.1818 28.8015 34.1037L28.8648 34.0508C28.8445 34.2499 28.8547 34.444 28.8901 34.6734C27.9484 35.7219 28.2243 35.9059 26.3435 36.2916C24.4373 36.6823 25.5587 37.378 26.2878 37.5595C27.1738 37.7813 29.2243 38.0913 30.609 36.163L30.5533 36.3823C30.9229 36.6773 31.1811 38.2955 31.138 39.765C31.095 41.2345 31.0646 42.2428 31.3557 43.0292C31.6468 43.8157 31.9354 45.5877 34.4112 45.0608C36.4793 44.6197 37.5501 43.4754 37.6995 41.5673C37.8058 40.2112 38.0438 40.4103 38.059 39.1979L38.2513 38.6232C38.4716 36.7856 38.2868 36.1908 39.5601 36.468L39.8689 36.4958C40.8056 36.5386 42.0333 36.3445 42.7548 36.0118C44.3065 35.296 45.2254 34.0987 43.6965 34.4137V34.4213Z" fill="#33638B"/>
<path d="M30.7649 35.0441C31.0039 35.0508 31.1924 35.249 31.1857 35.4869C31.1378 37.1892 31.1441 38.8955 31.2037 40.2769C31.2335 40.9679 31.2765 41.5728 31.3318 42.0531C31.3886 42.5468 31.4541 42.8668 31.514 43.0176H31.5142C31.6821 43.4347 31.9136 43.9586 32.3547 44.3288C32.7697 44.677 33.4269 44.9344 34.5529 44.6948L34.7349 44.654C35.6227 44.445 36.1811 44.1588 36.5581 43.7686C36.9593 43.3532 37.2071 42.7662 37.3637 41.8621V41.8619L37.4107 41.5771C37.6578 40.0214 38.0671 36.6003 38.1231 35.8729L38.1288 35.8291C38.1677 35.6141 38.3645 35.4591 38.5879 35.4761C38.8114 35.4932 38.982 35.6764 38.9874 35.8948L38.9864 35.9389C38.9285 36.6909 38.5162 40.1371 38.2648 41.7186L38.2168 42.0086C38.0469 42.9898 37.7553 43.7728 37.182 44.3662C36.6095 44.9588 35.8081 45.3087 34.7344 45.5377H34.7341C33.3846 45.8248 32.4444 45.5315 31.7968 44.988C31.1755 44.4667 30.8794 43.7579 30.7106 43.3383L30.7101 43.3371C30.603 43.0689 30.5283 42.6447 30.4715 42.1513C30.413 41.6433 30.3691 41.0163 30.3387 40.3138C30.2781 38.908 30.2719 37.181 30.3202 35.4628C30.3269 35.2249 30.526 35.0375 30.7649 35.0441Z" fill="white"/>
<path d="M27.6227 18.726V18.7262V18.726C27.6225 18.7259 27.6221 18.7259 27.6217 18.7257C27.6207 18.7253 27.6192 18.7246 27.617 18.7238C27.6124 18.7219 27.6052 18.7192 27.5955 18.7154C27.576 18.7078 27.5465 18.6961 27.5075 18.6814C27.4293 18.652 27.3134 18.6095 27.1653 18.5588C26.8688 18.4574 26.4442 18.3233 25.9362 18.1938C24.9152 17.9336 23.579 17.6984 22.273 17.7729C20.9664 17.8473 19.739 18.228 18.8655 19.1494C17.9958 20.0668 17.4068 21.5948 17.5335 24.1155L17.5404 24.2204C17.5856 24.7896 17.787 26.0156 18.1241 27.5134C18.4817 29.102 18.9848 30.9635 19.5948 32.6155C20.2122 34.2877 20.9146 35.6742 21.6414 36.3777C21.9989 36.7237 22.3092 36.8535 22.5769 36.8422C22.8418 36.831 23.186 36.6763 23.6008 36.1798L23.8515 35.8817C24.4316 35.1968 24.9735 34.5899 25.3864 34.1375C25.6224 33.8788 25.8167 33.6703 25.952 33.5263C26.0197 33.4542 26.0728 33.3982 26.109 33.3601C26.127 33.3412 26.1409 33.3266 26.1503 33.3168C26.155 33.3119 26.1587 33.308 26.1612 33.3055C26.1624 33.3042 26.1632 33.3032 26.1639 33.3025C26.1642 33.3022 26.1647 33.302 26.1649 33.3018V33.3015H26.1651C26.1664 33.3027 26.1856 33.3212 26.4776 33.5996L26.7903 33.8977H26.7901C26.79 33.8978 26.7898 33.8982 26.7896 33.8984C26.789 33.899 26.7882 33.8998 26.7871 33.9009C26.7849 33.9032 26.7816 33.9066 26.7772 33.9112C26.7683 33.9205 26.7549 33.9347 26.7374 33.9531C26.7024 33.9899 26.6505 34.0444 26.5841 34.1151C26.4513 34.2564 26.2601 34.4619 26.0272 34.7172C25.5612 35.2278 24.9297 35.9368 24.2665 36.7309H24.2663C23.7673 37.3283 23.2162 37.6781 22.6134 37.7035C22.0134 37.7288 21.4837 37.4274 21.038 36.9961C20.1585 36.1448 19.402 34.5917 18.7822 32.9131C18.1549 31.2143 17.6422 29.3136 17.2794 27.702C16.9412 26.1996 16.7267 24.9192 16.6767 24.2782L16.669 24.1589V24.1586C16.535 21.4933 17.1512 19.702 18.2361 18.5576C19.3172 17.4172 20.7937 16.9936 22.2236 16.9121C23.654 16.8305 25.0868 17.0877 26.1508 17.3588C26.6852 17.495 27.1324 17.636 27.4467 17.7436C27.6039 17.7974 27.7282 17.843 27.814 17.8753C27.8569 17.8914 27.8902 17.9044 27.9131 17.9134C27.9245 17.9179 27.9334 17.9213 27.9396 17.9238C27.9427 17.925 27.9452 17.926 27.947 17.9267C27.9479 17.9271 27.9487 17.9275 27.9492 17.9277L27.9497 17.9279C27.95 17.928 27.9501 17.9282 27.7863 18.3272C27.7697 18.3677 27.7547 18.4041 27.7413 18.4367L27.9502 17.9282C28.1715 18.0183 28.2775 18.2698 28.187 18.4902C28.0966 18.7105 27.844 18.8161 27.6227 18.726ZM26.1651 33.3013C26.3305 33.1294 26.6046 33.1236 26.7772 33.2882C26.9498 33.4529 26.9557 33.7258 26.7903 33.8977L26.1651 33.3013Z" fill="white"/>
<path d="M40.3013 34.1579C40.1677 34.3553 39.8986 34.4074 39.7003 34.2743C39.5022 34.1412 39.4499 33.8735 39.5834 33.6762L40.3013 34.1579ZM37.2802 16.5005C39.4014 16.4809 42.0998 17.0492 44.0851 19.4866L44.1793 19.604L44.2186 19.6562C44.6172 20.205 44.7563 21.0602 44.7415 22.019C44.7258 23.0339 44.5353 24.2619 44.1899 25.5937C43.499 28.258 42.1734 31.3925 40.3013 34.1579L39.5834 33.6762C41.3971 30.997 42.6838 27.9534 43.3516 25.378C43.6857 24.09 43.8614 22.9326 43.8757 22.0057C43.8904 21.0538 43.7328 20.435 43.4972 20.1352C41.729 17.8854 39.2878 17.344 37.2881 17.3625C36.2889 17.3718 35.4125 17.5214 34.8098 17.6616C34.509 17.7316 34.2786 17.7989 34.1379 17.8437C34.0894 17.8592 34.0533 17.872 34.0293 17.8804C34.0107 17.8893 33.9915 17.8975 33.9713 17.9038L33.929 17.9156C33.9237 17.9169 33.915 17.9189 33.9043 17.9208C33.8971 17.9221 33.8723 17.9266 33.8405 17.9277C33.8221 17.9279 33.7736 17.9247 33.7436 17.9201C33.6882 17.9056 33.5423 17.8227 33.4679 17.7396C33.4069 17.6062 33.4124 17.3678 33.4504 17.2815C33.4764 17.2418 33.5248 17.1864 33.5443 17.1688C33.5765 17.1414 33.6058 17.1251 33.6116 17.1218C33.6226 17.1155 33.6318 17.1108 33.637 17.1082C33.6477 17.103 33.6571 17.0991 33.6622 17.0969C33.6734 17.0922 33.6846 17.0877 33.6941 17.0841C33.7324 17.0695 33.7937 17.0481 33.8736 17.0226C34.0356 16.9709 34.2885 16.8977 34.6128 16.8222C35.2604 16.6715 36.202 16.5105 37.2802 16.5005ZM33.728 17.0772C33.7204 17.079 33.7147 17.0807 33.7122 17.0814L33.7297 17.0767C33.7291 17.0769 33.7285 17.0771 33.728 17.0772Z" fill="white"/>
<path d="M24.8563 25.5353C24.498 25.5446 24.4981 25.5446 24.4981 25.5444V25.5419C24.498 25.5404 24.4979 25.5385 24.4978 25.536C24.4977 25.5311 24.4977 25.5241 24.4976 25.5153C24.4973 25.4976 24.4971 25.472 24.4971 25.4393C24.4971 25.3738 24.498 25.2793 24.5018 25.1601C24.5092 24.9219 24.5277 24.5838 24.5715 24.1792C24.6588 23.3725 24.8484 22.2895 25.2602 21.2034C25.6717 20.1183 26.3135 19.0084 27.3185 18.1755C28.3316 17.3358 29.6868 16.8007 31.4741 16.83L31.6392 16.8339C35.0912 16.9448 37.3796 18.7301 38.7633 20.4908C39.4646 21.3832 39.9383 22.2744 40.2211 22.9511C40.3621 23.2886 40.4589 23.5803 40.5121 23.7986C40.5379 23.9046 40.5577 24.0101 40.5625 24.1017C40.5647 24.1432 40.5659 24.2126 40.5477 24.2873C40.5371 24.3307 40.4707 24.5752 40.1979 24.6321L40.0407 24.6358C38.2661 24.3527 37.4529 24.6529 37.1001 25.055C36.7409 25.4644 36.6924 26.1638 36.9273 27.101C37.1552 28.0105 37.6152 29.0018 38.0565 29.8454C38.2759 30.2647 38.487 30.6409 38.659 30.9482C38.8225 31.2404 38.9685 31.5011 39.0333 31.6576L39.0748 31.7541C39.2852 32.2276 39.5393 32.5696 39.769 32.8584C39.8866 33.0062 40.0171 33.1633 40.117 33.3051C40.2149 33.444 40.3144 33.6105 40.3618 33.8031C40.3649 33.8084 40.3693 33.8165 40.3766 33.826C40.4045 33.8618 40.4809 33.9423 40.6641 34.0177C41.0434 34.174 41.8748 34.3058 43.5856 33.9537L43.7394 33.9254C43.889 33.9012 44.0266 33.8898 44.1503 33.8939C44.3056 33.8992 44.4953 33.9305 44.6516 34.0488C44.8385 34.1902 44.9062 34.3996 44.8875 34.5955C44.8713 34.7639 44.7946 34.9129 44.7189 35.0267C44.5633 35.2606 44.3064 35.5025 44.0074 35.7246C43.702 35.9514 43.3278 36.1758 42.9142 36.3673L42.9137 36.3675C42.2039 36.6949 41.1066 36.8853 40.1902 36.8955C39.7312 36.9006 39.2793 36.8614 38.9238 36.7515C38.6096 36.6544 38.156 36.4286 38.1277 35.9277L38.123 35.8216C38.106 35.2986 38.1898 34.8914 38.3626 34.576C38.5518 34.2307 38.8226 34.041 39.0736 33.9284C39.195 33.8739 39.3116 33.8374 39.4056 33.8102C39.4083 33.8095 39.4109 33.8085 39.4135 33.8078C39.4118 33.8053 39.4101 33.8027 39.4083 33.8001C39.3276 33.6856 39.2269 33.5656 39.0901 33.3937C38.8264 33.0622 38.4966 32.6203 38.2336 31.9875L38.2331 31.9865C38.1933 31.8902 38.0817 31.688 37.9025 31.3679C37.7315 31.0622 37.5146 30.6756 37.2887 30.2439C36.8396 29.3856 36.3407 28.321 36.0873 27.3098C35.8408 26.3263 35.7885 25.2398 36.4482 24.4879C37.0395 23.8139 38.0741 23.5518 39.5828 23.7063C39.5412 23.583 39.488 23.4405 39.4219 23.2822C39.1653 22.6681 38.7291 21.8461 38.0815 21.022C36.8095 19.4033 34.7402 17.7956 31.6096 17.6955L31.4597 17.6918C29.8689 17.6657 28.718 18.1369 27.8722 18.8379C27.0182 19.5457 26.4481 20.511 26.0701 21.5079C25.6924 22.5039 25.5148 23.5098 25.4323 24.2715C25.3912 24.6511 25.3741 24.9672 25.3673 25.1869C25.3638 25.2968 25.3628 25.3825 25.3628 25.4398C25.3628 25.4683 25.3631 25.4898 25.3633 25.5038C25.3634 25.5107 25.3632 25.5159 25.3633 25.519C25.3633 25.5205 25.3635 25.5217 25.3635 25.5222V25.5225C25.3697 25.7604 25.181 25.9583 24.942 25.9646C24.7031 25.9708 24.5043 25.7828 24.4981 25.5449L24.8563 25.5353ZM39.9002 34.5627C39.8186 34.5911 39.7131 34.6189 39.6471 34.6381C39.5668 34.6613 39.4956 34.6846 39.4293 34.7144C39.3046 34.7703 39.2 34.8474 39.1225 34.9888C39.0423 35.1353 38.9693 35.3914 38.9905 35.8432C39.0118 35.8601 39.0638 35.8921 39.1804 35.9281C39.4123 35.9998 39.7617 36.0382 40.1806 36.0335C41.0204 36.0242 41.9863 35.8454 42.5498 35.5855C42.9118 35.4179 43.2343 35.2234 43.4897 35.0336C43.6036 34.9491 43.6993 34.8682 43.778 34.7949L43.7612 34.7981C41.9814 35.1643 40.947 35.067 40.3334 34.8143C40.1549 34.7408 40.013 34.6536 39.9002 34.5627ZM24.9361 25.5333C24.9343 25.5333 24.9325 25.5335 24.9307 25.5335C24.9043 25.5342 24.8795 25.5347 24.8563 25.5353L24.9361 25.5333Z" fill="white"/>
<path d="M29.469 33.8249C29.7749 33.7983 30.0287 33.9066 30.1644 33.9625L30.1641 33.9628C30.5931 34.1393 30.9162 34.5424 31.0726 34.9629C31.2306 35.3876 31.2533 35.93 30.933 36.3756L30.9332 36.3758C29.3815 38.5395 27.0741 38.1697 26.1549 37.9397V37.9399C25.9394 37.8863 25.6977 37.7959 25.4852 37.6802C25.2895 37.5736 25.0469 37.4076 24.9186 37.1712C24.8473 37.0399 24.8029 36.8697 24.8462 36.6823C24.8884 36.4993 25.0006 36.3594 25.1265 36.2572C25.3632 36.0651 25.7382 35.932 26.2281 35.8316L26.5539 35.7619C27.2485 35.6054 27.502 35.4904 27.671 35.3563C27.7707 35.2772 27.8569 35.1785 27.9922 35.0087C28.124 34.8431 28.2933 34.6224 28.5395 34.3483L28.5719 34.3158C28.5722 34.3155 28.5725 34.3151 28.5729 34.3148C28.8562 34.0115 29.1543 33.8523 29.469 33.8249ZM29.5444 34.6838C29.4938 34.6882 29.3754 34.7139 29.1869 34.9233C29.1805 34.9304 29.1733 34.9368 29.1664 34.9435C28.9519 35.1838 28.8067 35.3733 28.6705 35.5443C28.5338 35.716 28.3948 35.8841 28.2107 36.0302C27.883 36.2903 27.4601 36.443 26.7334 36.6055L26.4028 36.6759C26.1797 36.7216 26.0121 36.7696 25.8894 36.816C25.8511 36.8304 25.8187 36.8445 25.7912 36.8573C25.8226 36.8787 25.859 36.9012 25.9005 36.9238C26.0259 36.992 26.1732 37.0502 26.3079 37.0885L26.3648 37.1035L26.3653 37.1037L26.5358 37.1438C27.4402 37.3416 29.0874 37.4662 30.2287 35.8749L30.2292 35.8742L30.2472 35.8466C30.3334 35.7049 30.3482 35.4972 30.2608 35.2622C30.1719 35.0232 30.0086 34.8455 29.8623 34.7724L29.8334 34.7593L29.8329 34.7591C29.6876 34.6992 29.6149 34.6777 29.5444 34.6838Z" fill="white"/>
<path d="M27.1343 23.932C27.7679 23.7865 28.4835 23.7397 29.1078 23.9797C29.7654 24.2326 30.2565 24.7787 30.4494 25.6669L30.4904 25.8606C30.8993 27.842 30.8458 29.195 30.6106 30.2286C30.4897 30.7597 30.3233 31.1951 30.1599 31.5741C29.9893 31.9699 29.8469 32.2524 29.7307 32.5629V32.5631C29.5663 33.0014 29.4207 33.3767 29.3246 33.7213C29.2286 34.0652 29.1957 34.3337 29.2292 34.5533C29.265 34.7886 29.1023 35.0084 28.866 35.0441C28.6297 35.0798 28.4089 34.9179 28.3731 34.6825C28.3645 34.6264 28.3589 34.5701 28.3553 34.5137C25.9633 34.4541 24.0613 32.1452 24.4283 29.5221L24.4523 29.3432C24.6847 27.5028 24.4949 26.006 24.4978 25.5335L24.4995 25.4953C24.5068 25.4085 24.5357 25.3394 24.5581 25.2957C24.5854 25.2426 24.6183 25.1978 24.6474 25.1627C24.7053 25.0929 24.7774 25.0273 24.8503 24.9683C24.9985 24.8484 25.1974 24.7188 25.4246 24.5929C25.8798 24.3407 26.4926 24.0793 27.1343 23.932ZM28.7958 24.7839C28.4031 24.633 27.8862 24.6441 27.3288 24.7721C26.7796 24.8982 26.2425 25.1261 25.8453 25.3461C25.6464 25.4563 25.4934 25.5587 25.3962 25.6373C25.3853 25.6461 25.3758 25.6546 25.3672 25.6619C25.3926 26.1758 25.5296 27.7168 25.3106 29.4552L25.2859 29.641C24.9781 31.8406 26.5908 33.6449 28.4482 33.6521C28.4614 33.598 28.4755 33.544 28.4905 33.4904C28.5993 33.1004 28.7623 32.6805 28.9194 32.2618L28.9683 32.1361C29.0873 31.8399 29.2381 31.5271 29.3644 31.2341C29.516 30.8825 29.661 30.4998 29.7661 30.0381C29.9686 29.1481 30.0322 27.9217 29.6425 26.0336L29.6032 25.849C29.4657 25.216 29.1552 24.9221 28.7958 24.7839Z" fill="white"/>
<path d="M27.7457 25.4729C27.7254 25.6141 28.0039 25.9896 28.3684 26.0401C28.7304 26.0905 29.0418 25.7956 29.062 25.6569C29.0823 25.5158 28.8038 25.362 28.4393 25.3116C28.0748 25.2612 27.7659 25.3343 27.7457 25.4754V25.4729Z" fill="white"/>
<path d="M27.9304 25.182C28.0772 25.1473 28.2641 25.1424 28.4594 25.1694C28.6546 25.1964 28.8335 25.2517 28.9654 25.3247C29.0309 25.361 29.0918 25.4056 29.1362 25.4594C29.1809 25.5134 29.2179 25.5888 29.2052 25.6772V25.6777C29.1947 25.7499 29.1527 25.8186 29.1086 25.8729C29.0613 25.931 28.9983 25.9886 28.9246 26.0383C28.7782 26.1372 28.5742 26.2138 28.3486 26.1823V26.1821C28.1245 26.151 27.9358 26.0228 27.8085 25.8897C27.7441 25.8223 27.6913 25.7495 27.6552 25.6799C27.6224 25.6166 27.5915 25.5333 27.603 25.4527H27.6038C27.6171 25.3661 27.6723 25.3046 27.7294 25.2652C27.7868 25.2255 27.8574 25.1992 27.9304 25.182ZM28.4198 25.454C28.2506 25.4306 28.1009 25.4371 27.9971 25.4616C27.9448 25.474 27.9116 25.4891 27.894 25.5012C27.8935 25.5016 27.893 25.5019 27.8925 25.5022C27.8953 25.5116 27.9008 25.5267 27.9118 25.548C27.9336 25.5901 27.9694 25.6411 28.0176 25.6915C28.1033 25.7811 28.2156 25.8569 28.3363 25.8875L28.3887 25.8978L28.4396 25.902C28.5578 25.905 28.671 25.8624 28.7627 25.8006C28.8146 25.7656 28.856 25.7266 28.8841 25.692C28.902 25.67 28.911 25.6539 28.9155 25.6447C28.9148 25.6439 28.9143 25.6428 28.9135 25.6418C28.9 25.6255 28.8721 25.6019 28.825 25.5758C28.7317 25.5241 28.5891 25.4774 28.4198 25.454Z" fill="white"/>
<path d="M38.8081 25.1856C38.8283 25.3267 38.5499 25.7023 38.1854 25.7527C37.8208 25.8031 37.512 25.5082 37.4918 25.3696C37.4715 25.2284 37.7525 25.0747 38.1145 25.0242C38.4765 24.9738 38.7878 25.0469 38.8081 25.1881V25.1856Z" fill="white"/>
<path d="M38.1045 24.9534C38.2921 24.9273 38.4698 24.9326 38.6061 24.9647C38.674 24.9807 38.7355 25.0041 38.7831 25.0368C38.8301 25.0692 38.8692 25.1151 38.8788 25.1757H38.8795C38.8878 25.2336 38.8656 25.3002 38.8348 25.3598C38.8022 25.4225 38.7537 25.4899 38.6934 25.553C38.5734 25.6786 38.3985 25.7959 38.1952 25.824C37.9908 25.8523 37.8048 25.7835 37.6689 25.6916C37.6008 25.6455 37.5433 25.5925 37.5011 25.5402C37.4603 25.4899 37.428 25.4334 37.4202 25.3802V25.38C37.4113 25.3178 37.4372 25.262 37.4741 25.2175C37.511 25.1732 37.5637 25.134 37.6247 25.1003C37.7472 25.0327 37.917 24.9795 38.1045 24.9534ZM38.5727 25.1045C38.4578 25.0775 38.2989 25.0714 38.1245 25.0957C37.95 25.12 37.798 25.1688 37.6946 25.2259C37.6428 25.2545 37.6065 25.2834 37.5851 25.3091C37.5638 25.3347 37.5619 25.3511 37.5631 25.3596L37.5671 25.3746C37.5736 25.3924 37.5879 25.4185 37.6135 25.4501C37.6463 25.4906 37.6928 25.5341 37.75 25.5727C37.8648 25.6503 38.0154 25.7039 38.1755 25.6818C38.3367 25.6594 38.4835 25.564 38.5888 25.4538C38.641 25.3992 38.6811 25.3428 38.7065 25.2938C38.7318 25.245 38.7375 25.2128 38.7366 25.1986L38.7344 25.1907C38.7307 25.1818 38.7218 25.1695 38.701 25.1552C38.6732 25.1361 38.6304 25.1181 38.5727 25.1045Z" fill="white"/>
<path d="M40.0833 23.7799C40.3071 23.7678 40.5004 23.927 40.5345 24.1428L40.5392 24.1866L40.5441 24.2976C40.5638 24.8468 40.5024 25.3147 40.4341 25.7647C40.3608 26.2478 40.2815 26.7015 40.2635 27.2589V27.2591C40.2508 27.6512 40.2912 28.066 40.3446 28.5197C40.3969 28.9642 40.4624 29.4507 40.4868 29.9434C40.5347 30.9131 40.4274 31.9596 39.7585 33.0093L39.692 33.1109C39.559 33.3087 39.2902 33.3617 39.0915 33.2293C38.8928 33.0969 38.8397 32.8293 38.9726 32.6314L39.0262 32.5494C39.567 31.7019 39.6649 30.853 39.622 29.9858C39.5995 29.5305 39.5395 29.0844 39.4848 28.6198C39.4313 28.1645 39.3832 27.6934 39.3983 27.231C39.4183 26.6114 39.5077 26.0998 39.578 25.636C39.64 25.2272 39.6888 24.8478 39.6814 24.4202L39.6747 24.2339L39.6744 24.1898C39.6846 23.9715 39.8595 23.7922 40.0833 23.7799Z" fill="white"/>
</g>
<path d="M66.5387 33.1274V31.3234H70.6967C71.2687 31.3234 71.7747 31.206 72.2147 30.9714C72.6693 30.7367 73.0213 30.4067 73.2707 29.9814C73.5347 29.556 73.6667 29.05 73.6667 28.4634C73.6667 27.8767 73.5347 27.3707 73.2707 26.9454C73.0213 26.52 72.6693 26.19 72.2147 25.9554C71.7747 25.7207 71.2687 25.6034 70.6967 25.6034H66.5387V23.7994H70.8287C71.7673 23.7994 72.6033 23.99 73.3367 24.3714C74.0847 24.7527 74.6713 25.2954 75.0967 25.9994C75.5367 26.6887 75.7567 27.51 75.7567 28.4634C75.7567 29.402 75.5367 30.2234 75.0967 30.9274C74.6713 31.6167 74.0847 32.1594 73.3367 32.5554C72.6033 32.9367 71.7673 33.1274 70.8287 33.1274H66.5387ZM65.1527 39.0674V23.7994H67.2207V39.0674H65.1527ZM81.4349 39.2874C80.4082 39.2874 79.4842 39.0454 78.6629 38.5614C77.8416 38.0774 77.1889 37.4247 76.7049 36.6034C76.2209 35.7674 75.9789 34.836 75.9789 33.8094C75.9789 32.7974 76.2209 31.888 76.7049 31.0814C77.1889 30.26 77.8416 29.6074 78.6629 29.1234C79.4842 28.6394 80.4082 28.3974 81.4349 28.3974C82.4469 28.3974 83.3636 28.6394 84.1849 29.1234C85.0209 29.5927 85.6809 30.238 86.1649 31.0594C86.6489 31.8807 86.8909 32.7974 86.8909 33.8094C86.8909 34.836 86.6489 35.7674 86.1649 36.6034C85.6809 37.4247 85.0209 38.0774 84.1849 38.5614C83.3636 39.0454 82.4469 39.2874 81.4349 39.2874ZM81.4349 37.3734C82.0949 37.3734 82.6816 37.2194 83.1949 36.9114C83.7082 36.6034 84.1116 36.1854 84.4049 35.6574C84.6982 35.1147 84.8449 34.4987 84.8449 33.8094C84.8449 33.1347 84.6909 32.5334 84.3829 32.0054C84.0896 31.4774 83.6862 31.0667 83.1729 30.7734C82.6742 30.4654 82.0949 30.3114 81.4349 30.3114C80.7749 30.3114 80.1882 30.4654 79.6749 30.7734C79.1616 31.0667 78.7582 31.4774 78.4649 32.0054C78.1716 32.5334 78.0249 33.1347 78.0249 33.8094C78.0249 34.4987 78.1716 35.1147 78.4649 35.6574C78.7582 36.1854 79.1616 36.6034 79.6749 36.9114C80.1882 37.2194 80.7749 37.3734 81.4349 37.3734ZM91.5638 39.2874C90.9772 39.2874 90.4198 39.214 89.8918 39.0674C89.3785 38.906 88.9018 38.686 88.4618 38.4074C88.0218 38.114 87.6405 37.7694 87.3178 37.3734L88.5938 36.0974C88.9752 36.5667 89.4152 36.9187 89.9138 37.1534C90.4125 37.3734 90.9698 37.4834 91.5858 37.4834C92.2018 37.4834 92.6785 37.3807 93.0158 37.1754C93.3532 36.9554 93.5218 36.6547 93.5218 36.2734C93.5218 35.892 93.3825 35.5987 93.1038 35.3934C92.8398 35.1734 92.4952 34.9974 92.0698 34.8654C91.6445 34.7187 91.1898 34.5794 90.7058 34.4474C90.2365 34.3007 89.7892 34.1174 89.3638 33.8974C88.9385 33.6774 88.5865 33.3767 88.3078 32.9954C88.0438 32.614 87.9118 32.108 87.9118 31.4774C87.9118 30.8467 88.0658 30.304 88.3738 29.8494C88.6818 29.38 89.1072 29.0207 89.6498 28.7714C90.2072 28.522 90.8745 28.3974 91.6518 28.3974C92.4732 28.3974 93.1992 28.544 93.8298 28.8374C94.4752 29.116 95.0032 29.5414 95.4138 30.1134L94.1378 31.3894C93.8445 31.008 93.4778 30.7147 93.0378 30.5094C92.6125 30.304 92.1285 30.2014 91.5858 30.2014C91.0138 30.2014 90.5738 30.304 90.2658 30.5094C89.9725 30.7 89.8258 30.9714 89.8258 31.3234C89.8258 31.6754 89.9578 31.9467 90.2218 32.1374C90.4858 32.328 90.8305 32.4894 91.2558 32.6214C91.6958 32.7534 92.1505 32.8927 92.6198 33.0394C93.0892 33.1714 93.5365 33.3547 93.9618 33.5894C94.3872 33.824 94.7318 34.1394 94.9958 34.5354C95.2745 34.9314 95.4138 35.452 95.4138 36.0974C95.4138 37.08 95.0618 37.8574 94.3578 38.4294C93.6685 39.0014 92.7372 39.2874 91.5638 39.2874ZM98.3565 39.0674V24.2394H100.337V39.0674H98.3565ZM95.7825 30.4214V28.6174H102.911V30.4214H95.7825ZM107.982 43.6654C106.911 43.6654 105.958 43.4674 105.122 43.0714C104.301 42.6754 103.641 42.118 103.142 41.3994L104.418 40.1014C104.843 40.644 105.349 41.0547 105.936 41.3334C106.523 41.6267 107.219 41.7734 108.026 41.7734C109.097 41.7734 109.94 41.4874 110.556 40.9154C111.187 40.358 111.502 39.6027 111.502 38.6494V36.0534L111.854 33.6994L111.502 31.3674V28.6174H113.482V38.6494C113.482 39.6467 113.247 40.5194 112.778 41.2674C112.323 42.0154 111.678 42.602 110.842 43.0274C110.021 43.4527 109.067 43.6654 107.982 43.6654ZM107.982 38.8914C107.029 38.8914 106.171 38.664 105.408 38.2094C104.66 37.7547 104.066 37.1314 103.626 36.3394C103.186 35.5327 102.966 34.6307 102.966 33.6334C102.966 32.636 103.186 31.7487 103.626 30.9714C104.066 30.1794 104.66 29.556 105.408 29.1014C106.171 28.632 107.029 28.3974 107.982 28.3974C108.803 28.3974 109.529 28.5587 110.16 28.8814C110.791 29.204 111.289 29.6587 111.656 30.2454C112.037 30.8174 112.243 31.492 112.272 32.2694V35.0414C112.228 35.804 112.015 36.4787 111.634 37.0654C111.267 37.6374 110.769 38.0847 110.138 38.4074C109.507 38.73 108.789 38.8914 107.982 38.8914ZM108.378 37.0214C109.023 37.0214 109.588 36.882 110.072 36.6034C110.571 36.3247 110.952 35.936 111.216 35.4374C111.48 34.924 111.612 34.33 111.612 33.6554C111.612 32.9807 111.473 32.394 111.194 31.8954C110.93 31.382 110.556 30.986 110.072 30.7074C109.588 30.414 109.016 30.2674 108.356 30.2674C107.696 30.2674 107.117 30.414 106.618 30.7074C106.119 30.986 105.723 31.382 105.43 31.8954C105.151 32.394 105.012 32.9734 105.012 33.6334C105.012 34.2934 105.151 34.88 105.43 35.3934C105.723 35.9067 106.119 36.31 106.618 36.6034C107.131 36.882 107.718 37.0214 108.378 37.0214ZM115.508 39.0674V28.6174H117.488V39.0674H115.508ZM117.488 33.1054L116.74 32.7754C116.74 31.4407 117.048 30.3774 117.664 29.5854C118.28 28.7934 119.167 28.3974 120.326 28.3974C120.854 28.3974 121.331 28.4927 121.756 28.6834C122.181 28.8594 122.577 29.16 122.944 29.5854L121.646 30.9274C121.426 30.6927 121.184 30.524 120.92 30.4214C120.656 30.3187 120.348 30.2674 119.996 30.2674C119.263 30.2674 118.661 30.502 118.192 30.9714C117.723 31.4407 117.488 32.152 117.488 33.1054ZM127.954 39.2874C126.913 39.2874 125.974 39.0527 125.138 38.5834C124.302 38.0994 123.642 37.4467 123.158 36.6254C122.674 35.804 122.432 34.8727 122.432 33.8314C122.432 32.8047 122.667 31.8807 123.136 31.0594C123.62 30.238 124.266 29.5927 125.072 29.1234C125.894 28.6394 126.81 28.3974 127.822 28.3974C128.79 28.3974 129.641 28.6174 130.374 29.0574C131.122 29.4974 131.702 30.106 132.112 30.8834C132.538 31.6607 132.75 32.5407 132.75 33.5234C132.75 33.67 132.743 33.8314 132.728 34.0074C132.714 34.1687 132.684 34.3594 132.64 34.5794H123.818V32.9294H131.584L130.858 33.5674C130.858 32.8634 130.734 32.2694 130.484 31.7854C130.235 31.2867 129.883 30.9054 129.428 30.6414C128.974 30.3627 128.424 30.2234 127.778 30.2234C127.104 30.2234 126.51 30.37 125.996 30.6634C125.483 30.9567 125.087 31.3674 124.808 31.8954C124.53 32.4234 124.39 33.0467 124.39 33.7654C124.39 34.4987 124.537 35.144 124.83 35.7014C125.124 36.244 125.542 36.6694 126.084 36.9774C126.627 37.2707 127.25 37.4174 127.954 37.4174C128.541 37.4174 129.076 37.3147 129.56 37.1094C130.059 36.904 130.484 36.596 130.836 36.1854L132.112 37.4834C131.614 38.07 130.998 38.5174 130.264 38.8254C129.546 39.1334 128.776 39.2874 127.954 39.2874ZM138.627 39.2874C137.425 39.2874 136.398 39.0674 135.547 38.6274C134.697 38.1874 133.941 37.5494 133.281 36.7134L134.689 35.3054C135.173 35.98 135.731 36.4934 136.361 36.8454C136.992 37.1827 137.769 37.3514 138.693 37.3514C139.603 37.3514 140.329 37.1534 140.871 36.7574C141.429 36.3614 141.707 35.8187 141.707 35.1294C141.707 34.5574 141.575 34.0954 141.311 33.7434C141.047 33.3914 140.688 33.1054 140.233 32.8854C139.793 32.6507 139.309 32.4454 138.781 32.2694C138.253 32.0787 137.725 31.8807 137.197 31.6754C136.669 31.4554 136.185 31.1914 135.745 30.8834C135.305 30.5607 134.946 30.1427 134.667 29.6294C134.403 29.116 134.271 28.4707 134.271 27.6934C134.271 26.828 134.477 26.0947 134.887 25.4934C135.313 24.8774 135.885 24.408 136.603 24.0854C137.337 23.748 138.158 23.5794 139.067 23.5794C140.065 23.5794 140.959 23.7774 141.751 24.1734C142.543 24.5547 143.189 25.0607 143.687 25.6914L142.279 27.0994C141.825 26.5714 141.333 26.1754 140.805 25.9114C140.292 25.6474 139.698 25.5154 139.023 25.5154C138.202 25.5154 137.549 25.6987 137.065 26.0654C136.581 26.4174 136.339 26.916 136.339 27.5614C136.339 28.0747 136.471 28.4927 136.735 28.8154C137.014 29.1234 137.373 29.3874 137.813 29.6074C138.253 29.8274 138.737 30.0327 139.265 30.2234C139.808 30.3994 140.343 30.5974 140.871 30.8174C141.399 31.0374 141.883 31.316 142.323 31.6534C142.763 31.9907 143.115 32.4307 143.379 32.9734C143.658 33.5014 143.797 34.1687 143.797 34.9754C143.797 36.3247 143.328 37.3807 142.389 38.1434C141.465 38.906 140.211 39.2874 138.627 39.2874ZM152.743 39.2874C151.658 39.2874 150.646 39.0894 149.707 38.6934C148.768 38.2827 147.947 37.718 147.243 36.9994C146.539 36.266 145.989 35.4227 145.593 34.4694C145.197 33.516 144.999 32.4967 144.999 31.4114C144.999 30.3114 145.197 29.292 145.593 28.3534C145.989 27.4 146.532 26.564 147.221 25.8454C147.925 25.1267 148.739 24.5694 149.663 24.1734C150.602 23.7774 151.614 23.5794 152.699 23.5794C153.784 23.5794 154.789 23.7774 155.713 24.1734C156.652 24.5694 157.473 25.1267 158.177 25.8454C158.881 26.564 159.424 27.4 159.805 28.3534C160.201 29.3067 160.399 30.3334 160.399 31.4334C160.399 32.5187 160.201 33.538 159.805 34.4914C159.424 35.4447 158.881 36.2807 158.177 36.9994C157.488 37.718 156.674 38.2827 155.735 38.6934C154.811 39.0894 153.814 39.2874 152.743 39.2874ZM160.047 40.1454L152.897 32.9954L154.239 31.6534L161.367 38.8034L160.047 40.1454ZM152.699 37.3074C153.784 37.3074 154.745 37.058 155.581 36.5594C156.417 36.046 157.07 35.3494 157.539 34.4694C158.023 33.5747 158.265 32.5554 158.265 31.4114C158.265 30.5607 158.126 29.7834 157.847 29.0794C157.583 28.3607 157.202 27.7374 156.703 27.2094C156.204 26.6814 155.618 26.278 154.943 25.9994C154.268 25.706 153.52 25.5594 152.699 25.5594C151.614 25.5594 150.653 25.8087 149.817 26.3074C148.981 26.806 148.321 27.4954 147.837 28.3754C147.368 29.2554 147.133 30.2674 147.133 31.4114C147.133 32.262 147.272 33.054 147.551 33.7874C147.83 34.506 148.211 35.1294 148.695 35.6574C149.194 36.1707 149.78 36.574 150.455 36.8674C151.144 37.1607 151.892 37.3074 152.699 37.3074ZM162.871 39.0674V23.7994H164.939V39.0674H162.871ZM164.279 39.0674V37.1754H172.463V39.0674H164.279Z" fill="white"/>
<defs>
<clipPath id="clip0_2926_2662">
<rect width="30" height="30.7692" fill="white" transform="translate(15.7773 15.6829)"/>
</clipPath>
</defs>
</svg>
