<svg width="169" height="62" viewBox="0 0 169 62" fill="none" xmlns="http://www.w3.org/2000/svg">
<rect x="0.936035" y="0.346924" width="168" height="61" rx="30.5" fill="#222222"/>
<rect x="8.93604" y="8.34692" width="45" height="45" rx="22.5" fill="black"/>
<g clip-path="url(#clip0_2926_2148)">
<path d="M26.394 48.1366C28.0188 48.7954 29.7453 49.1631 31.4956 49.223C33.8499 49.3076 36.1908 48.8319 38.3288 47.8346C35.8678 46.8584 33.6087 45.4285 31.6673 43.6182C30.4214 45.6295 28.5784 47.218 26.394 48.1366Z" fill="#FF9100"/>
<path d="M31.6669 43.6187C27.2792 39.5276 24.6171 33.6062 24.8422 27.1114C24.8494 26.9007 24.8606 26.69 24.8734 26.4792C22.9247 25.9697 20.8768 25.9912 18.9392 26.5417C17.7301 28.6738 17.0552 31.0711 16.9727 33.5257C16.7457 40.0864 20.6838 45.8189 26.3935 48.1372C28.5734 47.2185 30.4162 45.6396 31.6669 43.6187Z" fill="#FFC400"/>
<path d="M31.6675 43.6185C32.6875 41.9727 33.3061 40.0431 33.3781 37.9643C33.5676 32.4958 29.921 27.7916 24.874 26.479C24.861 26.6897 24.85 26.9005 24.8428 27.1112C24.6177 33.606 27.2798 39.5274 31.6675 43.6185Z" fill="#FF9100"/>
<path d="M32.8136 11.1074C29.9393 13.429 27.6693 16.4901 26.2961 20.0165C25.4916 22.0836 25.011 24.2643 24.8716 26.4803C29.9185 27.7929 33.5652 32.4971 33.3757 37.9656C33.3079 39.969 32.7179 41.9192 31.6651 43.6198C33.606 45.4309 35.8651 46.8608 38.3265 47.8362C43.3181 45.5102 46.8596 40.5047 47.0646 34.5843C47.1976 30.7484 45.7357 27.3297 43.67 24.444C41.4885 21.3923 32.8136 11.1074 32.8136 11.1074Z" fill="#DD2C00"/>
</g>
<path d="M66.0925 38.8469V23.5789H68.1605V38.8469H66.0925ZM67.5005 32.1369V30.2449H75.4645V32.1369H67.5005ZM67.5005 25.4709V23.5789H75.8385V25.4709H67.5005ZM77.3434 38.8469V28.3969H79.3234V38.8469H77.3434ZM78.3334 26.3069C77.9668 26.3069 77.6661 26.1896 77.4314 25.9549C77.1968 25.7056 77.0794 25.3976 77.0794 25.0309C77.0794 24.6789 77.1968 24.3856 77.4314 24.1509C77.6661 23.9016 77.9668 23.7769 78.3334 23.7769C78.7001 23.7769 79.0008 23.9016 79.2354 24.1509C79.4701 24.3856 79.5874 24.6789 79.5874 25.0309C79.5874 25.3976 79.4701 25.7056 79.2354 25.9549C79.0008 26.1896 78.7001 26.3069 78.3334 26.3069ZM81.3614 38.8469V28.3969H83.3414V38.8469H81.3614ZM83.3414 32.8849L82.5934 32.5549C82.5934 31.2203 82.9014 30.1569 83.5174 29.3649C84.1334 28.5729 85.0207 28.1769 86.1794 28.1769C86.7074 28.1769 87.184 28.2723 87.6094 28.4629C88.0347 28.6389 88.4307 28.9396 88.7974 29.3649L87.4994 30.7069C87.2794 30.4723 87.0374 30.3036 86.7734 30.2009C86.5094 30.0983 86.2014 30.0469 85.8494 30.0469C85.116 30.0469 84.5147 30.2816 84.0454 30.7509C83.576 31.2203 83.3414 31.9316 83.3414 32.8849ZM93.8077 39.0669C92.7664 39.0669 91.8277 38.8323 90.9917 38.3629C90.1557 37.8789 89.4957 37.2263 89.0117 36.4049C88.5277 35.5836 88.2857 34.6523 88.2857 33.6109C88.2857 32.5843 88.5204 31.6603 88.9897 30.8389C89.4737 30.0176 90.119 29.3723 90.9257 28.9029C91.747 28.4189 92.6637 28.1769 93.6757 28.1769C94.6437 28.1769 95.4944 28.3969 96.2277 28.8369C96.9757 29.2769 97.555 29.8856 97.9657 30.6629C98.391 31.4403 98.6037 32.3203 98.6037 33.3029C98.6037 33.4496 98.5964 33.6109 98.5817 33.7869C98.567 33.9483 98.5377 34.1389 98.4937 34.3589H89.6717V32.7089H97.4377L96.7117 33.3469C96.7117 32.6429 96.587 32.0489 96.3377 31.5649C96.0884 31.0663 95.7364 30.6849 95.2817 30.4209C94.827 30.1423 94.277 30.0029 93.6317 30.0029C92.957 30.0029 92.363 30.1496 91.8497 30.4429C91.3364 30.7363 90.9404 31.1469 90.6617 31.6749C90.383 32.2029 90.2437 32.8263 90.2437 33.5449C90.2437 34.2783 90.3904 34.9236 90.6837 35.4809C90.977 36.0236 91.395 36.4489 91.9377 36.7569C92.4804 37.0503 93.1037 37.1969 93.8077 37.1969C94.3944 37.1969 94.9297 37.0943 95.4137 36.8889C95.9124 36.6836 96.3377 36.3756 96.6897 35.9649L97.9657 37.2629C97.467 37.8496 96.851 38.2969 96.1177 38.6049C95.399 38.9129 94.629 39.0669 93.8077 39.0669ZM105.383 39.0669C104.591 39.0669 103.872 38.9056 103.227 38.5829C102.596 38.2456 102.09 37.7836 101.709 37.1969C101.327 36.6103 101.115 35.9429 101.071 35.1949V32.0489C101.115 31.2863 101.327 30.6189 101.709 30.0469C102.105 29.4603 102.618 29.0056 103.249 28.6829C103.894 28.3456 104.605 28.1769 105.383 28.1769C106.336 28.1769 107.194 28.4189 107.957 28.9029C108.734 29.3869 109.343 30.0396 109.783 30.8609C110.223 31.6823 110.443 32.6063 110.443 33.6329C110.443 34.6596 110.223 35.5836 109.783 36.4049C109.343 37.2263 108.734 37.8789 107.957 38.3629C107.194 38.8323 106.336 39.0669 105.383 39.0669ZM99.8826 38.8469V23.1389H101.863V30.9489L101.489 33.4789L101.863 36.0309V38.8469H99.8826ZM105.053 37.1969C105.713 37.1969 106.292 37.0429 106.791 36.7349C107.289 36.4269 107.685 36.0089 107.979 35.4809C108.272 34.9383 108.419 34.3149 108.419 33.6109C108.419 32.9216 108.272 32.3056 107.979 31.7629C107.685 31.2203 107.289 30.8023 106.791 30.5089C106.292 30.2009 105.72 30.0469 105.075 30.0469C104.415 30.0469 103.835 30.2009 103.337 30.5089C102.838 30.8023 102.449 31.2203 102.171 31.7629C101.892 32.3056 101.753 32.9289 101.753 33.6329C101.753 34.3223 101.885 34.9383 102.149 35.4809C102.427 36.0089 102.816 36.4269 103.315 36.7349C103.828 37.0429 104.407 37.1969 105.053 37.1969ZM116.251 39.0669C115.298 39.0669 114.433 38.8323 113.655 38.3629C112.878 37.8789 112.262 37.2263 111.807 36.4049C111.367 35.5836 111.147 34.6596 111.147 33.6329C111.147 32.6063 111.367 31.6823 111.807 30.8609C112.262 30.0396 112.871 29.3869 113.633 28.9029C114.411 28.4189 115.283 28.1769 116.251 28.1769C117.043 28.1769 117.747 28.3456 118.363 28.6829C118.994 29.0056 119.5 29.4603 119.881 30.0469C120.263 30.6189 120.475 31.2863 120.519 32.0489V35.1949C120.475 35.9429 120.263 36.6103 119.881 37.1969C119.515 37.7836 119.016 38.2456 118.385 38.5829C117.769 38.9056 117.058 39.0669 116.251 39.0669ZM116.581 37.1969C117.564 37.1969 118.356 36.8669 118.957 36.2069C119.559 35.5323 119.859 34.6743 119.859 33.6329C119.859 32.9143 119.72 32.2909 119.441 31.7629C119.177 31.2203 118.796 30.8023 118.297 30.5089C117.799 30.2009 117.219 30.0469 116.559 30.0469C115.899 30.0469 115.313 30.2009 114.799 30.5089C114.301 30.8169 113.905 31.2423 113.611 31.7849C113.333 32.3129 113.193 32.9216 113.193 33.6109C113.193 34.3149 113.333 34.9383 113.611 35.4809C113.905 36.0089 114.308 36.4269 114.821 36.7349C115.335 37.0429 115.921 37.1969 116.581 37.1969ZM119.727 38.8469V36.0309L120.101 33.4789L119.727 30.9489V28.3969H121.729V38.8469H119.727ZM127.054 39.0669C126.467 39.0669 125.91 38.9936 125.382 38.8469C124.869 38.6856 124.392 38.4656 123.952 38.1869C123.512 37.8936 123.131 37.5489 122.808 37.1529L124.084 35.8769C124.465 36.3463 124.905 36.6983 125.404 36.9329C125.903 37.1529 126.46 37.2629 127.076 37.2629C127.692 37.2629 128.169 37.1603 128.506 36.9549C128.843 36.7349 129.012 36.4343 129.012 36.0529C129.012 35.6716 128.873 35.3783 128.594 35.1729C128.33 34.9529 127.985 34.7769 127.56 34.6449C127.135 34.4983 126.68 34.3589 126.196 34.2269C125.727 34.0803 125.279 33.8969 124.854 33.6769C124.429 33.4569 124.077 33.1563 123.798 32.7749C123.534 32.3936 123.402 31.8876 123.402 31.2569C123.402 30.6263 123.556 30.0836 123.864 29.6289C124.172 29.1596 124.597 28.8003 125.14 28.5509C125.697 28.3016 126.365 28.1769 127.142 28.1769C127.963 28.1769 128.689 28.3236 129.32 28.6169C129.965 28.8956 130.493 29.3209 130.904 29.8929L129.628 31.1689C129.335 30.7876 128.968 30.4943 128.528 30.2889C128.103 30.0836 127.619 29.9809 127.076 29.9809C126.504 29.9809 126.064 30.0836 125.756 30.2889C125.463 30.4796 125.316 30.7509 125.316 31.1029C125.316 31.4549 125.448 31.7263 125.712 31.9169C125.976 32.1076 126.321 32.2689 126.746 32.4009C127.186 32.5329 127.641 32.6723 128.11 32.8189C128.579 32.9509 129.027 33.1343 129.452 33.3689C129.877 33.6036 130.222 33.9189 130.486 34.3149C130.765 34.7109 130.904 35.2316 130.904 35.8769C130.904 36.8596 130.552 37.6369 129.848 38.2089C129.159 38.7809 128.227 39.0669 127.054 39.0669ZM137.081 39.0669C136.039 39.0669 135.101 38.8323 134.265 38.3629C133.429 37.8789 132.769 37.2263 132.285 36.4049C131.801 35.5836 131.559 34.6523 131.559 33.6109C131.559 32.5843 131.793 31.6603 132.263 30.8389C132.747 30.0176 133.392 29.3723 134.199 28.9029C135.02 28.4189 135.937 28.1769 136.949 28.1769C137.917 28.1769 138.767 28.3969 139.501 28.8369C140.249 29.2769 140.828 29.8856 141.239 30.6629C141.664 31.4403 141.877 32.3203 141.877 33.3029C141.877 33.4496 141.869 33.6109 141.855 33.7869C141.84 33.9483 141.811 34.1389 141.767 34.3589H132.945V32.7089H140.711L139.985 33.3469C139.985 32.6429 139.86 32.0489 139.611 31.5649C139.361 31.0663 139.009 30.6849 138.555 30.4209C138.1 30.1423 137.55 30.0029 136.905 30.0029C136.23 30.0029 135.636 30.1496 135.123 30.4429C134.609 30.7363 134.213 31.1469 133.935 31.6749C133.656 32.2029 133.517 32.8263 133.517 33.5449C133.517 34.2783 133.663 34.9236 133.957 35.4809C134.25 36.0236 134.668 36.4489 135.211 36.7569C135.753 37.0503 136.377 37.1969 137.081 37.1969C137.667 37.1969 138.203 37.0943 138.687 36.8889C139.185 36.6836 139.611 36.3756 139.963 35.9649L141.239 37.2629C140.74 37.8496 140.124 38.2969 139.391 38.6049C138.672 38.9129 137.902 39.0669 137.081 39.0669Z" fill="white"/>
<defs>
<clipPath id="clip0_2926_2148">
<rect width="30" height="40" fill="white" transform="translate(16.436 10.8469)"/>
</clipPath>
</defs>
</svg>
