<svg width="186" height="62" viewBox="0 0 186 62" fill="none" xmlns="http://www.w3.org/2000/svg">
<rect x="0.353516" y="0.0568848" width="185" height="61" rx="30.5" fill="#222222"/>
<rect x="8.35352" y="8.05688" width="45" height="45" rx="22.5" fill="black"/>
<g clip-path="url(#clip0_2926_3342)">
<path d="M42.9238 15.5569L18.7832 15.5569C17.1652 15.5569 15.8535 16.8686 15.8535 18.4866L15.8535 42.6272C15.8535 44.2452 17.1652 45.5569 18.7832 45.5569H42.9238C44.5418 45.5569 45.8535 44.2452 45.8535 42.6272V18.4866C45.8535 16.8686 44.5418 15.5569 42.9238 15.5569Z" fill="black"/>
<path d="M42.9238 15.5569L18.7832 15.5569C17.1652 15.5569 15.8535 16.8686 15.8535 18.4866L15.8535 42.6272C15.8535 44.2452 17.1652 45.5569 18.7832 45.5569H42.9238C44.5418 45.5569 45.8535 44.2452 45.8535 42.6272V18.4866C45.8535 16.8686 44.5418 15.5569 42.9238 15.5569Z" fill="black"/>
<path fill-rule="evenodd" clip-rule="evenodd" d="M34.4242 39.4294V42.3626C34.901 42.6071 35.465 42.7904 36.1161 42.9126C37.0927 43.0959 37.4533 43.0959 38.1747 43.0959C38.8778 43.0959 39.5457 43.0287 40.1784 42.8943C40.8112 42.7599 41.366 42.5383 41.8428 42.2297C42.3197 41.9211 42.6972 41.5178 42.9753 41.0197C43.3926 40.2727 43.3926 39.906 43.3926 39.1727C43.3926 38.6411 43.3131 38.1751 43.1542 37.7749C42.9157 37.1745 42.766 37.0187 42.4664 36.707C42.1669 36.3953 41.8077 36.1157 41.3889 35.8682C40.7607 35.497 40.4979 35.387 39.9721 35.167C39.587 35.0081 39.2415 34.8538 38.9359 34.7042C38.6302 34.5544 38.3704 34.4016 38.1564 34.2458C37.9424 34.09 37.7774 33.925 37.6612 33.7508C37.5451 33.5767 37.487 33.3796 37.487 33.1596C37.487 32.9579 37.5389 32.7761 37.6429 32.6142C37.7988 32.3712 37.8936 32.3132 38.083 32.1971C38.2726 32.081 38.5049 31.9909 38.78 31.9267C39.0551 31.8625 39.3608 31.8305 39.697 31.8305C39.9415 31.8305 40.1998 31.8488 40.4719 31.8854C40.7439 31.9222 41.0175 31.9787 41.2926 32.055C41.5669 32.1311 41.8351 32.2277 42.095 32.3438C42.3548 32.4599 42.5948 32.5943 42.8148 32.7471V30.0063C42.3686 29.8352 41.8811 29.7084 41.3522 29.6259C40.559 29.5022 40.2166 29.5022 39.532 29.5022C38.835 29.5022 38.1747 29.5771 37.5512 29.7268C36.6159 29.9514 36.379 30.1102 35.9051 30.428C35.4313 30.7458 35.0569 31.1507 34.7818 31.6426C34.5067 32.1345 34.3691 32.7226 34.3691 33.4071C34.3691 34.2809 34.6213 35.0265 35.1257 35.6437C35.63 36.2609 36.3957 36.7834 37.4228 37.2111C37.8263 37.3761 38.2023 37.5381 38.5507 37.6969C39.0734 37.9352 39.2003 38.0208 39.454 38.1919C39.7077 38.363 39.9079 38.5494 40.0547 38.7511C40.2014 38.9527 40.2747 39.1819 40.2747 39.4386C40.2747 39.628 40.2289 39.8037 40.1372 39.9656C39.9996 40.2085 39.9064 40.2681 39.7199 40.3873C39.5335 40.5065 39.3012 40.5996 39.023 40.6668C38.7448 40.7341 38.4193 40.7677 38.0464 40.7677C37.4106 40.7677 36.7809 40.6561 36.1573 40.4331C35.5338 40.2101 34.956 39.8755 34.4242 39.4294ZM29.493 32.2023H33.2559V29.7952H22.7676V32.2023H26.5121V42.9202H29.493V32.2023Z" fill="white"/>
</g>
<path d="M69.2056 38.5569V23.7289H71.2736V38.5569H69.2056ZM64.0136 25.1809V23.2889H76.4436V25.1809H64.0136ZM78.4865 38.6449L73.9545 28.1069H76.1545L79.5205 36.3569H78.8165L82.3585 28.1069H84.5585L79.6745 38.6449H78.4865ZM75.4945 42.9349L78.5745 36.6209L79.6745 38.6449L77.6945 42.9349H75.4945ZM90.7174 38.7769C89.9254 38.7769 89.2068 38.6156 88.5614 38.2929C87.9308 37.9556 87.4248 37.4936 87.0434 36.9069C86.6621 36.3202 86.4494 35.6529 86.4054 34.9049V31.7589C86.4494 30.9962 86.6621 30.3289 87.0434 29.7569C87.4394 29.1702 87.9528 28.7156 88.5834 28.3929C89.2288 28.0556 89.9401 27.8869 90.7174 27.8869C91.6708 27.8869 92.5288 28.1289 93.2914 28.6129C94.0688 29.0969 94.6774 29.7496 95.1174 30.5709C95.5574 31.3922 95.7774 32.3162 95.7774 33.3429C95.7774 34.3696 95.5574 35.2936 95.1174 36.1149C94.6774 36.9362 94.0688 37.5889 93.2914 38.0729C92.5288 38.5422 91.6708 38.7769 90.7174 38.7769ZM85.2174 42.9349V28.1069H87.1974V30.8569L86.8234 33.3869L87.1974 35.9389V42.9349H85.2174ZM90.3874 36.9069C91.0474 36.9069 91.6268 36.7529 92.1254 36.4449C92.6241 36.1369 93.0201 35.7189 93.3134 35.1909C93.6068 34.6482 93.7534 34.0249 93.7534 33.3209C93.7534 32.6316 93.6068 32.0156 93.3134 31.4729C93.0201 30.9302 92.6241 30.5122 92.1254 30.2189C91.6268 29.9109 91.0548 29.7569 90.4094 29.7569C89.7494 29.7569 89.1701 29.9109 88.6714 30.2189C88.1728 30.5122 87.7841 30.9302 87.5054 31.4729C87.2268 32.0156 87.0874 32.6389 87.0874 33.3429C87.0874 34.0322 87.2194 34.6482 87.4834 35.1909C87.7621 35.7189 88.1508 36.1369 88.6494 36.4449C89.1628 36.7529 89.7421 36.9069 90.3874 36.9069ZM101.982 38.7769C100.941 38.7769 100.002 38.5422 99.1661 38.0729C98.3301 37.5889 97.6701 36.9362 97.1861 36.1149C96.7021 35.2936 96.4601 34.3622 96.4601 33.3209C96.4601 32.2942 96.6948 31.3702 97.1641 30.5489C97.6481 29.7276 98.2935 29.0822 99.1001 28.6129C99.9215 28.1289 100.838 27.8869 101.85 27.8869C102.818 27.8869 103.669 28.1069 104.402 28.5469C105.15 28.9869 105.729 29.5956 106.14 30.3729C106.565 31.1502 106.778 32.0302 106.778 33.0129C106.778 33.1596 106.771 33.3209 106.756 33.4969C106.741 33.6582 106.712 33.8489 106.668 34.0689H97.8461V32.4189H105.612L104.886 33.0569C104.886 32.3529 104.761 31.7589 104.512 31.2749C104.263 30.7762 103.911 30.3949 103.456 30.1309C103.001 29.8522 102.451 29.7129 101.806 29.7129C101.131 29.7129 100.537 29.8596 100.024 30.1529C99.5108 30.4462 99.1148 30.8569 98.8361 31.3849C98.5575 31.9129 98.4181 32.5362 98.4181 33.2549C98.4181 33.9882 98.5648 34.6336 98.8581 35.1909C99.1515 35.7336 99.5695 36.1589 100.112 36.4669C100.655 36.7602 101.278 36.9069 101.982 36.9069C102.569 36.9069 103.104 36.8042 103.588 36.5989C104.087 36.3936 104.512 36.0856 104.864 35.6749L106.14 36.9729C105.641 37.5596 105.025 38.0069 104.292 38.3149C103.573 38.6229 102.803 38.7769 101.982 38.7769ZM112.655 38.7769C111.452 38.7769 110.426 38.5569 109.575 38.1169C108.724 37.6769 107.969 37.0389 107.309 36.2029L108.717 34.7949C109.201 35.4696 109.758 35.9829 110.389 36.3349C111.02 36.6722 111.797 36.8409 112.721 36.8409C113.63 36.8409 114.356 36.6429 114.899 36.2469C115.456 35.8509 115.735 35.3082 115.735 34.6189C115.735 34.0469 115.603 33.5849 115.339 33.2329C115.075 32.8809 114.716 32.5949 114.261 32.3749C113.821 32.1402 113.337 31.9349 112.809 31.7589C112.281 31.5682 111.753 31.3702 111.225 31.1649C110.697 30.9449 110.213 30.6809 109.773 30.3729C109.333 30.0502 108.974 29.6322 108.695 29.1189C108.431 28.6056 108.299 27.9602 108.299 27.1829C108.299 26.3176 108.504 25.5842 108.915 24.9829C109.34 24.3669 109.912 23.8976 110.631 23.5749C111.364 23.2376 112.186 23.0689 113.095 23.0689C114.092 23.0689 114.987 23.2669 115.779 23.6629C116.571 24.0442 117.216 24.5502 117.715 25.1809L116.307 26.5889C115.852 26.0609 115.361 25.6649 114.833 25.4009C114.32 25.1369 113.726 25.0049 113.051 25.0049C112.23 25.0049 111.577 25.1882 111.093 25.5549C110.609 25.9069 110.367 26.4056 110.367 27.0509C110.367 27.5642 110.499 27.9822 110.763 28.3049C111.042 28.6129 111.401 28.8769 111.841 29.0969C112.281 29.3169 112.765 29.5222 113.293 29.7129C113.836 29.8889 114.371 30.0869 114.899 30.3069C115.427 30.5269 115.911 30.8056 116.351 31.1429C116.791 31.4802 117.143 31.9202 117.407 32.4629C117.686 32.9909 117.825 33.6582 117.825 34.4649C117.825 35.8142 117.356 36.8702 116.417 37.6329C115.493 38.3956 114.239 38.7769 112.655 38.7769ZM124.004 38.7769C122.977 38.7769 122.046 38.5349 121.21 38.0509C120.388 37.5669 119.736 36.9142 119.252 36.0929C118.782 35.2569 118.548 34.3329 118.548 33.3209C118.548 32.2942 118.782 31.3702 119.252 30.5489C119.736 29.7276 120.388 29.0822 121.21 28.6129C122.046 28.1289 122.977 27.8869 124.004 27.8869C124.81 27.8869 125.558 28.0409 126.248 28.3489C126.937 28.6422 127.531 29.0749 128.03 29.6469L126.71 30.9669C126.387 30.5856 125.991 30.2996 125.522 30.1089C125.067 29.9036 124.561 29.8009 124.004 29.8009C123.344 29.8009 122.757 29.9549 122.244 30.2629C121.73 30.5562 121.327 30.9669 121.034 31.4949C120.74 32.0229 120.594 32.6316 120.594 33.3209C120.594 34.0102 120.74 34.6189 121.034 35.1469C121.327 35.6749 121.73 36.0929 122.244 36.4009C122.757 36.7089 123.344 36.8629 124.004 36.8629C124.561 36.8629 125.067 36.7676 125.522 36.5769C125.991 36.3716 126.394 36.0782 126.732 35.6969L128.03 37.0169C127.546 37.5742 126.952 38.0069 126.248 38.3149C125.558 38.6229 124.81 38.7769 124.004 38.7769ZM129.113 38.5569V28.1069H131.093V38.5569H129.113ZM131.093 32.5949L130.345 32.2649C130.345 30.9302 130.653 29.8669 131.269 29.0749C131.885 28.2829 132.773 27.8869 133.931 27.8869C134.459 27.8869 134.936 27.9822 135.361 28.1729C135.787 28.3489 136.183 28.6496 136.549 29.0749L135.251 30.4169C135.031 30.1822 134.789 30.0136 134.525 29.9109C134.261 29.8082 133.953 29.7569 133.601 29.7569C132.868 29.7569 132.267 29.9916 131.797 30.4609C131.328 30.9302 131.093 31.6416 131.093 32.5949ZM137.086 38.5569V28.1069H139.066V38.5569H137.086ZM138.076 26.0169C137.709 26.0169 137.408 25.8996 137.174 25.6649C136.939 25.4156 136.822 25.1076 136.822 24.7409C136.822 24.3889 136.939 24.0956 137.174 23.8609C137.408 23.6116 137.709 23.4869 138.076 23.4869C138.442 23.4869 138.743 23.6116 138.978 23.8609C139.212 24.0956 139.33 24.3889 139.33 24.7409C139.33 25.1076 139.212 25.4156 138.978 25.6649C138.743 25.8996 138.442 26.0169 138.076 26.0169ZM146.603 38.7769C145.811 38.7769 145.093 38.6156 144.447 38.2929C143.817 37.9556 143.311 37.4936 142.929 36.9069C142.548 36.3202 142.335 35.6529 142.291 34.9049V31.7589C142.335 30.9962 142.548 30.3289 142.929 29.7569C143.325 29.1702 143.839 28.7156 144.469 28.3929C145.115 28.0556 145.826 27.8869 146.603 27.8869C147.557 27.8869 148.415 28.1289 149.177 28.6129C149.955 29.0969 150.563 29.7496 151.003 30.5709C151.443 31.3922 151.663 32.3162 151.663 33.3429C151.663 34.3696 151.443 35.2936 151.003 36.1149C150.563 36.9362 149.955 37.5889 149.177 38.0729C148.415 38.5422 147.557 38.7769 146.603 38.7769ZM141.103 42.9349V28.1069H143.083V30.8569L142.709 33.3869L143.083 35.9389V42.9349H141.103ZM146.273 36.9069C146.933 36.9069 147.513 36.7529 148.011 36.4449C148.51 36.1369 148.906 35.7189 149.199 35.1909C149.493 34.6482 149.639 34.0249 149.639 33.3209C149.639 32.6316 149.493 32.0156 149.199 31.4729C148.906 30.9302 148.51 30.5122 148.011 30.2189C147.513 29.9109 146.941 29.7569 146.295 29.7569C145.635 29.7569 145.056 29.9109 144.557 30.2189C144.059 30.5122 143.67 30.9302 143.391 31.4729C143.113 32.0156 142.973 32.6389 142.973 33.3429C142.973 34.0322 143.105 34.6482 143.369 35.1909C143.648 35.7189 144.037 36.1369 144.535 36.4449C145.049 36.7529 145.628 36.9069 146.273 36.9069ZM154.312 38.5569V23.7289H156.292V38.5569H154.312ZM151.738 29.9109V28.1069H158.866V29.9109H151.738Z" fill="white"/>
<defs>
<clipPath id="clip0_2926_3342">
<rect width="30" height="30" fill="white" transform="translate(15.8535 15.5569)"/>
</clipPath>
</defs>
</svg>
