<svg width="195" height="62" viewBox="0 0 195 62" fill="none" xmlns="http://www.w3.org/2000/svg">
<rect y="0.192627" width="195" height="61" rx="30.5" fill="#222222"/>
<rect x="8" y="8.19263" width="45" height="45" rx="22.5" fill="black"/>
<g clip-path="url(#clip0_2926_2838)">
<path d="M42.8121 17.7562C42.3951 18.7324 41.8555 19.6541 41.2055 20.5003C39.8139 19.0952 38.1477 17.9768 36.3054 17.2113C34.4632 16.4458 32.4823 16.0487 30.4801 16.0435C28.4778 16.0383 26.4948 16.4252 24.6484 17.1812C22.802 17.9372 21.1298 19.047 19.7306 20.4449C18.3314 21.8427 17.2337 23.5004 16.5025 25.3196C15.7712 27.1388 15.4213 29.0827 15.4733 31.0363C15.5254 32.9899 15.9784 34.9134 16.8055 36.6931C17.6327 38.4728 18.8172 40.0724 20.2889 41.3975L20.8451 41.8799C22.9555 43.6171 25.5173 44.7503 28.2469 45.1539C30.9766 45.5576 33.7674 45.2161 36.3103 44.1671C38.8533 43.1181 41.0492 41.4026 42.6548 39.2107C44.2604 37.0187 45.2131 34.4358 45.4074 31.748C45.8399 28.0691 44.6968 23.365 42.8121 17.7562ZM22.4516 41.5181C22.2928 41.7086 22.0796 41.8489 21.8391 41.9212C21.5986 41.9935 21.3415 41.9947 21.1003 41.9244C20.8592 41.8542 20.6447 41.7157 20.4842 41.5266C20.3236 41.3375 20.2241 41.1061 20.1982 40.8618C20.1723 40.6174 20.2212 40.3711 20.3387 40.1539C20.4562 39.9366 20.637 39.7583 20.8584 39.6414C21.0797 39.5244 21.3316 39.4741 21.5822 39.4969C21.8328 39.5196 22.0708 39.6144 22.2663 39.7691C22.5225 39.9809 22.6849 40.2812 22.7194 40.6072C22.754 40.9332 22.658 41.2596 22.4516 41.5181ZM42.7194 37.1457C39.0428 41.9402 31.1334 40.3119 26.0974 40.5531C26.0974 40.5531 25.2014 40.6134 24.3054 40.7341C24.3054 40.7341 24.6453 40.5833 25.0778 40.4325C28.6308 39.2263 30.2992 38.9851 32.4619 37.8995C36.5093 35.8792 40.5567 31.4464 41.36 26.8629C39.8152 31.2655 35.119 35.065 30.8554 36.6029C27.9202 37.6583 22.637 38.6835 22.637 38.6835L22.4207 38.5629C18.8368 36.8441 18.7132 29.2451 25.2632 26.8026C28.1365 25.717 30.8553 26.3201 33.9758 25.5964C37.2817 24.8426 41.1128 22.4302 42.6576 19.264C44.3878 24.3601 46.4887 32.2606 42.7194 37.1457Z" fill="#6DB33F"/>
</g>
<path d="M69.1834 38.9126C67.9807 38.9126 66.9541 38.6926 66.1034 38.2526C65.2527 37.8126 64.4974 37.1746 63.8374 36.3386L65.2454 34.9306C65.7294 35.6053 66.2867 36.1186 66.9174 36.4706C67.5481 36.808 68.3254 36.9766 69.2494 36.9766C70.1587 36.9766 70.8847 36.7786 71.4274 36.3826C71.9847 35.9866 72.2634 35.444 72.2634 34.7546C72.2634 34.1826 72.1314 33.7206 71.8674 33.3686C71.6034 33.0166 71.2441 32.7306 70.7894 32.5106C70.3494 32.276 69.8654 32.0706 69.3374 31.8946C68.8094 31.704 68.2814 31.506 67.7534 31.3006C67.2254 31.0806 66.7414 30.8166 66.3014 30.5086C65.8614 30.186 65.5021 29.768 65.2234 29.2546C64.9594 28.7413 64.8274 28.096 64.8274 27.3186C64.8274 26.4533 65.0327 25.72 65.4434 25.1186C65.8687 24.5026 66.4407 24.0333 67.1594 23.7106C67.8927 23.3733 68.7141 23.2046 69.6234 23.2046C70.6207 23.2046 71.5154 23.4026 72.3074 23.7986C73.0994 24.18 73.7447 24.686 74.2434 25.3166L72.8354 26.7246C72.3807 26.1966 71.8894 25.8006 71.3614 25.5366C70.8481 25.2726 70.2541 25.1406 69.5794 25.1406C68.7581 25.1406 68.1054 25.324 67.6214 25.6906C67.1374 26.0426 66.8954 26.5413 66.8954 27.1866C66.8954 27.7 67.0274 28.118 67.2914 28.4406C67.5701 28.7486 67.9294 29.0126 68.3694 29.2326C68.8094 29.4526 69.2934 29.658 69.8214 29.8486C70.3641 30.0246 70.8994 30.2226 71.4274 30.4426C71.9554 30.6626 72.4394 30.9413 72.8794 31.2786C73.3194 31.616 73.6714 32.056 73.9354 32.5986C74.2141 33.1266 74.3534 33.794 74.3534 34.6006C74.3534 35.95 73.8841 37.006 72.9454 37.7686C72.0214 38.5313 70.7674 38.9126 69.1834 38.9126ZM81.4085 38.9126C80.6165 38.9126 79.8979 38.7513 79.2525 38.4286C78.6219 38.0913 78.1159 37.6293 77.7345 37.0426C77.3532 36.456 77.1405 35.7886 77.0965 35.0406V31.8946C77.1405 31.132 77.3532 30.4646 77.7345 29.8926C78.1305 29.306 78.6439 28.8513 79.2745 28.5286C79.9199 28.1913 80.6312 28.0226 81.4085 28.0226C82.3619 28.0226 83.2199 28.2646 83.9825 28.7486C84.7599 29.2326 85.3685 29.8853 85.8085 30.7066C86.2485 31.528 86.4685 32.452 86.4685 33.4786C86.4685 34.5053 86.2485 35.4293 85.8085 36.2506C85.3685 37.072 84.7599 37.7246 83.9825 38.2086C83.2199 38.678 82.3619 38.9126 81.4085 38.9126ZM75.9085 43.0706V28.2426H77.8885V30.9926L77.5145 33.5226L77.8885 36.0746V43.0706H75.9085ZM81.0785 37.0426C81.7385 37.0426 82.3179 36.8886 82.8165 36.5806C83.3152 36.2726 83.7112 35.8546 84.0045 35.3266C84.2979 34.784 84.4445 34.1606 84.4445 33.4566C84.4445 32.7673 84.2979 32.1513 84.0045 31.6086C83.7112 31.066 83.3152 30.648 82.8165 30.3546C82.3179 30.0466 81.7459 29.8926 81.1005 29.8926C80.4405 29.8926 79.8612 30.0466 79.3625 30.3546C78.8639 30.648 78.4752 31.066 78.1965 31.6086C77.9179 32.1513 77.7785 32.7746 77.7785 33.4786C77.7785 34.168 77.9105 34.784 78.1745 35.3266C78.4532 35.8546 78.8419 36.2726 79.3405 36.5806C79.8539 36.8886 80.4332 37.0426 81.0785 37.0426ZM87.8332 38.6926V28.2426H89.8132V38.6926H87.8332ZM89.8132 32.7306L89.0652 32.4006C89.0652 31.066 89.3732 30.0026 89.9892 29.2106C90.6052 28.4186 91.4925 28.0226 92.6512 28.0226C93.1792 28.0226 93.6559 28.118 94.0812 28.3086C94.5065 28.4846 94.9025 28.7853 95.2692 29.2106L93.9712 30.5526C93.7512 30.318 93.5092 30.1493 93.2452 30.0466C92.9812 29.944 92.6732 29.8926 92.3212 29.8926C91.5879 29.8926 90.9865 30.1273 90.5172 30.5966C90.0479 31.066 89.8132 31.7773 89.8132 32.7306ZM95.8053 38.6926V28.2426H97.7853V38.6926H95.8053ZM96.7953 26.1526C96.4286 26.1526 96.128 26.0353 95.8933 25.8006C95.6586 25.5513 95.5413 25.2433 95.5413 24.8766C95.5413 24.5246 95.6586 24.2313 95.8933 23.9966C96.128 23.7473 96.4286 23.6226 96.7953 23.6226C97.162 23.6226 97.4626 23.7473 97.6973 23.9966C97.932 24.2313 98.0493 24.5246 98.0493 24.8766C98.0493 25.2433 97.932 25.5513 97.6973 25.8006C97.4626 26.0353 97.162 26.1526 96.7953 26.1526ZM107.215 38.6926V32.5986C107.215 31.8066 106.966 31.154 106.467 30.6406C105.969 30.1273 105.323 29.8706 104.531 29.8706C104.003 29.8706 103.534 29.988 103.123 30.2226C102.713 30.4573 102.39 30.78 102.155 31.1906C101.921 31.6013 101.803 32.0706 101.803 32.5986L100.989 32.1366C100.989 31.3446 101.165 30.6406 101.517 30.0246C101.869 29.4086 102.361 28.9246 102.991 28.5726C103.622 28.206 104.333 28.0226 105.125 28.0226C105.917 28.0226 106.614 28.2206 107.215 28.6166C107.831 29.0126 108.315 29.5333 108.667 30.1786C109.019 30.8093 109.195 31.484 109.195 32.2026V38.6926H107.215ZM99.8232 38.6926V28.2426H101.803V38.6926H99.8232ZM115.33 43.2906C114.259 43.2906 113.306 43.0926 112.47 42.6966C111.649 42.3006 110.989 41.7433 110.49 41.0246L111.766 39.7266C112.191 40.2693 112.697 40.68 113.284 40.9586C113.871 41.252 114.567 41.3986 115.374 41.3986C116.445 41.3986 117.288 41.1126 117.904 40.5406C118.535 39.9833 118.85 39.228 118.85 38.2746V35.6786L119.202 33.3246L118.85 30.9926V28.2426H120.83V38.2746C120.83 39.272 120.595 40.1446 120.126 40.8926C119.671 41.6406 119.026 42.2273 118.19 42.6526C117.369 43.078 116.415 43.2906 115.33 43.2906ZM115.33 38.5166C114.377 38.5166 113.519 38.2893 112.756 37.8346C112.008 37.38 111.414 36.7566 110.974 35.9646C110.534 35.158 110.314 34.256 110.314 33.2586C110.314 32.2613 110.534 31.374 110.974 30.5966C111.414 29.8046 112.008 29.1813 112.756 28.7266C113.519 28.2573 114.377 28.0226 115.33 28.0226C116.151 28.0226 116.877 28.184 117.508 28.5066C118.139 28.8293 118.637 29.284 119.004 29.8706C119.385 30.4426 119.591 31.1173 119.62 31.8946V34.6666C119.576 35.4293 119.363 36.104 118.982 36.6906C118.615 37.2626 118.117 37.71 117.486 38.0326C116.855 38.3553 116.137 38.5166 115.33 38.5166ZM115.726 36.6466C116.371 36.6466 116.936 36.5073 117.42 36.2286C117.919 35.95 118.3 35.5613 118.564 35.0626C118.828 34.5493 118.96 33.9553 118.96 33.2806C118.96 32.606 118.821 32.0193 118.542 31.5206C118.278 31.0073 117.904 30.6113 117.42 30.3326C116.936 30.0393 116.364 29.8926 115.704 29.8926C115.044 29.8926 114.465 30.0393 113.966 30.3326C113.467 30.6113 113.071 31.0073 112.778 31.5206C112.499 32.0193 112.36 32.5986 112.36 33.2586C112.36 33.9186 112.499 34.5053 112.778 35.0186C113.071 35.532 113.467 35.9353 113.966 36.2286C114.479 36.5073 115.066 36.6466 115.726 36.6466ZM128.29 38.6926V36.8886H132.91C133.79 36.8886 134.48 36.632 134.978 36.1186C135.477 35.5906 135.726 34.96 135.726 34.2266C135.726 33.728 135.616 33.2806 135.396 32.8846C135.176 32.474 134.854 32.1513 134.428 31.9166C134.018 31.682 133.534 31.5646 132.976 31.5646H128.29V29.7606H132.668C133.402 29.7606 133.981 29.57 134.406 29.1886C134.846 28.7926 135.066 28.228 135.066 27.4946C135.066 26.7613 134.839 26.204 134.384 25.8226C133.93 25.4266 133.328 25.2286 132.58 25.2286H128.29V23.4246H132.624C133.622 23.4246 134.45 23.608 135.11 23.9746C135.785 24.3266 136.291 24.796 136.628 25.3826C136.98 25.9693 137.156 26.6146 137.156 27.3186C137.156 28.14 136.929 28.8586 136.474 29.4746C136.034 30.0906 135.382 30.5746 134.516 30.9266L134.692 30.2666C135.675 30.6186 136.438 31.154 136.98 31.8726C137.538 32.5766 137.816 33.4126 137.816 34.3806C137.816 35.1873 137.618 35.9133 137.222 36.5586C136.826 37.204 136.254 37.7246 135.506 38.1206C134.773 38.502 133.871 38.6926 132.8 38.6926H128.29ZM126.904 38.6926V23.4246H128.972V38.6926H126.904ZM144.153 38.9126C143.127 38.9126 142.203 38.6706 141.381 38.1866C140.56 37.7026 139.907 37.05 139.423 36.2286C138.939 35.3926 138.697 34.4613 138.697 33.4346C138.697 32.4226 138.939 31.5133 139.423 30.7066C139.907 29.8853 140.56 29.2326 141.381 28.7486C142.203 28.2646 143.127 28.0226 144.153 28.0226C145.165 28.0226 146.082 28.2646 146.903 28.7486C147.739 29.218 148.399 29.8633 148.883 30.6846C149.367 31.506 149.609 32.4226 149.609 33.4346C149.609 34.4613 149.367 35.3926 148.883 36.2286C148.399 37.05 147.739 37.7026 146.903 38.1866C146.082 38.6706 145.165 38.9126 144.153 38.9126ZM144.153 36.9986C144.813 36.9986 145.4 36.8446 145.913 36.5366C146.427 36.2286 146.83 35.8106 147.123 35.2826C147.417 34.74 147.563 34.124 147.563 33.4346C147.563 32.76 147.409 32.1586 147.101 31.6306C146.808 31.1026 146.405 30.692 145.891 30.3986C145.393 30.0906 144.813 29.9366 144.153 29.9366C143.493 29.9366 142.907 30.0906 142.393 30.3986C141.88 30.692 141.477 31.1026 141.183 31.6306C140.89 32.1586 140.743 32.76 140.743 33.4346C140.743 34.124 140.89 34.74 141.183 35.2826C141.477 35.8106 141.88 36.2286 142.393 36.5366C142.907 36.8446 143.493 36.9986 144.153 36.9986ZM155.734 38.9126C154.708 38.9126 153.784 38.6706 152.962 38.1866C152.141 37.7026 151.488 37.05 151.004 36.2286C150.52 35.3926 150.278 34.4613 150.278 33.4346C150.278 32.4226 150.52 31.5133 151.004 30.7066C151.488 29.8853 152.141 29.2326 152.962 28.7486C153.784 28.2646 154.708 28.0226 155.734 28.0226C156.746 28.0226 157.663 28.2646 158.484 28.7486C159.32 29.218 159.98 29.8633 160.464 30.6846C160.948 31.506 161.19 32.4226 161.19 33.4346C161.19 34.4613 160.948 35.3926 160.464 36.2286C159.98 37.05 159.32 37.7026 158.484 38.1866C157.663 38.6706 156.746 38.9126 155.734 38.9126ZM155.734 36.9986C156.394 36.9986 156.981 36.8446 157.494 36.5366C158.008 36.2286 158.411 35.8106 158.704 35.2826C158.998 34.74 159.144 34.124 159.144 33.4346C159.144 32.76 158.99 32.1586 158.682 31.6306C158.389 31.1026 157.986 30.692 157.472 30.3986C156.974 30.0906 156.394 29.9366 155.734 29.9366C155.074 29.9366 154.488 30.0906 153.974 30.3986C153.461 30.692 153.058 31.1026 152.764 31.6306C152.471 32.1586 152.324 32.76 152.324 33.4346C152.324 34.124 152.471 34.74 152.764 35.2826C153.058 35.8106 153.461 36.2286 153.974 36.5366C154.488 36.8446 155.074 36.9986 155.734 36.9986ZM163.825 38.6926V23.8646H165.805V38.6926H163.825ZM161.251 30.0466V28.2426H168.379V30.0466H161.251Z" fill="white"/>
<defs>
<clipPath id="clip0_2926_2838">
<rect width="30" height="29.25" fill="white" transform="translate(15.5 16.0676)"/>
</clipPath>
</defs>
</svg>
