<svg width="149" height="62" viewBox="0 0 149 62" fill="none" xmlns="http://www.w3.org/2000/svg">
<rect y="0.192627" width="149" height="61" rx="30.5" fill="#222222"/>
<rect x="8" y="8.19263" width="45" height="45" rx="22.5" fill="black"/>
<g clip-path="url(#clip0_2926_3166)">
<mask id="mask0_2926_3166" style="mask-type:luminance" maskUnits="userSpaceOnUse" x="20" y="18" width="22" height="27">
<path d="M41.8082 30.5055L34.7738 37.5399L41.8082 44.576H33.7669L30.7523 41.5614L26.7308 37.5399L33.7669 30.5055H41.8082ZM33.7669 18.4426L20.7002 31.5093L24.7217 35.5308L41.8082 18.4426H33.7669Z" fill="white"/>
</mask>
<g mask="url(#mask0_2926_3166)">
<path d="M41.8083 30.5051H33.7669L26.7324 37.5411L30.7523 41.5611L41.8083 30.5051Z" fill="#54C5F8"/>
</g>
<mask id="mask1_2926_3166" style="mask-type:luminance" maskUnits="userSpaceOnUse" x="20" y="18" width="22" height="27">
<path d="M41.8082 30.5055L34.7738 37.5399L41.8082 44.576H33.7669L30.7523 41.5614L26.7308 37.5399L33.7669 30.5055H41.8082ZM33.7669 18.4426L20.7002 31.5093L24.7217 35.5308L41.8082 18.4426H33.7669Z" fill="white"/>
</mask>
<g mask="url(#mask1_2926_3166)">
<path d="M24.7217 35.5308L20.7002 31.5093L33.7669 18.4426H41.8082L24.7217 35.5308Z" fill="#54C5F8"/>
</g>
<mask id="mask2_2926_3166" style="mask-type:luminance" maskUnits="userSpaceOnUse" x="20" y="18" width="22" height="27">
<path d="M41.8082 30.5055L34.7738 37.5399L41.8082 44.576H33.7669L30.7523 41.5614L26.7308 37.5399L33.7669 30.5055H41.8082ZM33.7669 18.4426L20.7002 31.5093L24.7217 35.5308L41.8082 18.4426H33.7669Z" fill="white"/>
</mask>
<g mask="url(#mask2_2926_3166)">
<path d="M30.7524 41.5612L33.767 44.5757H41.8084L34.7708 37.5413L30.7524 41.5612Z" fill="#01579B"/>
</g>
<mask id="mask3_2926_3166" style="mask-type:luminance" maskUnits="userSpaceOnUse" x="20" y="18" width="22" height="27">
<path d="M41.8082 30.5055L34.7738 37.5399L41.8082 44.576H33.7669L30.7523 41.5614L26.7308 37.5399L33.7669 30.5055H41.8082ZM33.7669 18.4426L20.7002 31.5093L24.7217 35.5308L41.8082 18.4426H33.7669Z" fill="white"/>
</mask>
<g mask="url(#mask3_2926_3166)">
<path d="M30.7524 41.5612L36.7155 39.4966L34.7708 37.5413L30.7524 41.5612Z" fill="url(#paint0_linear_2926_3166)"/>
</g>
<mask id="mask4_2926_3166" style="mask-type:luminance" maskUnits="userSpaceOnUse" x="20" y="18" width="22" height="27">
<path d="M41.8082 30.5055L34.7738 37.5399L41.8082 44.576H33.7669L30.7523 41.5614L26.7308 37.5399L33.7669 30.5055H41.8082ZM33.7669 18.4426L20.7002 31.5093L24.7217 35.5308L41.8082 18.4426H33.7669Z" fill="white"/>
</mask>
<g mask="url(#mask4_2926_3166)">
<path d="M26.7305 37.5408L30.7502 33.521L34.7699 37.5408L30.7502 41.5605L26.7305 37.5408Z" fill="#29B6F6"/>
</g>
<path d="M42.4083 30.5055L35.3739 37.5399L42.4083 44.576H34.367L31.3524 41.5614L27.3309 37.5399L34.367 30.5055H42.4083ZM34.367 18.4426L21.3003 31.5093L25.3218 35.5308L42.4083 18.4426H34.367Z" fill="url(#paint1_radial_2926_3166)"/>
</g>
<path d="M65.1534 38.6926V23.4246H67.2214V38.6926H65.1534ZM66.5614 31.9826V30.0906H74.5254V31.9826H66.5614ZM66.5614 25.3166V23.4246H74.8994V25.3166H66.5614ZM76.3824 38.6926V22.9846H78.3624V38.6926H76.3824ZM84.5813 38.9126C83.7306 38.9126 82.9606 38.722 82.2713 38.3406C81.5966 37.9446 81.0686 37.402 80.6873 36.7126C80.306 36.0233 80.1153 35.224 80.1153 34.3146V28.2426H82.0953V34.2266C82.0953 34.7986 82.1906 35.2973 82.3813 35.7226C82.5866 36.1333 82.88 36.4486 83.2613 36.6686C83.6426 36.8886 84.09 36.9986 84.6033 36.9986C85.3806 36.9986 85.9893 36.7566 86.4293 36.2726C86.8693 35.774 87.0893 35.092 87.0893 34.2266V28.2426H89.0693V34.3146C89.0693 35.224 88.8786 36.0233 88.4973 36.7126C88.116 37.402 87.588 37.9446 86.9133 38.3406C86.2533 38.722 85.476 38.9126 84.5813 38.9126ZM92.4491 38.6926V23.8646H94.4291V38.6926H92.4491ZM89.8751 30.0466V28.2426H103.229V30.0466H89.8751ZM98.6751 38.6926V23.8646H100.655V38.6926H98.6751ZM108.811 38.9126C107.77 38.9126 106.831 38.678 105.995 38.2086C105.159 37.7246 104.499 37.072 104.015 36.2506C103.531 35.4293 103.289 34.498 103.289 33.4566C103.289 32.43 103.524 31.506 103.993 30.6846C104.477 29.8633 105.122 29.218 105.929 28.7486C106.75 28.2646 107.667 28.0226 108.679 28.0226C109.647 28.0226 110.498 28.2426 111.231 28.6826C111.979 29.1226 112.558 29.7313 112.969 30.5086C113.394 31.286 113.607 32.166 113.607 33.1486C113.607 33.2953 113.6 33.4566 113.585 33.6326C113.57 33.794 113.541 33.9846 113.497 34.2046H104.675V32.5546H112.441L111.715 33.1926C111.715 32.4886 111.59 31.8946 111.341 31.4106C111.092 30.912 110.74 30.5306 110.285 30.2666C109.83 29.988 109.28 29.8486 108.635 29.8486C107.96 29.8486 107.366 29.9953 106.853 30.2886C106.34 30.582 105.944 30.9926 105.665 31.5206C105.386 32.0486 105.247 32.672 105.247 33.3906C105.247 34.124 105.394 34.7693 105.687 35.3266C105.98 35.8693 106.398 36.2946 106.941 36.6026C107.484 36.896 108.107 37.0426 108.811 37.0426C109.398 37.0426 109.933 36.94 110.417 36.7346C110.916 36.5293 111.341 36.2213 111.693 35.8106L112.969 37.1086C112.47 37.6953 111.854 38.1426 111.121 38.4506C110.402 38.7586 109.632 38.9126 108.811 38.9126ZM114.886 38.6926V28.2426H116.866V38.6926H114.886ZM116.866 32.7306L116.118 32.4006C116.118 31.066 116.426 30.0026 117.042 29.2106C117.658 28.4186 118.545 28.0226 119.704 28.0226C120.232 28.0226 120.708 28.118 121.134 28.3086C121.559 28.4846 121.955 28.7853 122.322 29.2106L121.024 30.5526C120.804 30.318 120.562 30.1493 120.298 30.0466C120.034 29.944 119.726 29.8926 119.374 29.8926C118.64 29.8926 118.039 30.1273 117.57 30.5966C117.1 31.066 116.866 31.7773 116.866 32.7306Z" fill="white"/>
<defs>
<linearGradient id="paint0_linear_2926_3166" x1="31.9254" y1="42.3371" x2="34.9196" y2="39.3425" gradientUnits="userSpaceOnUse">
<stop stop-color="#1A237E" stop-opacity="0.4"/>
<stop offset="1" stop-color="#1A237E" stop-opacity="0"/>
</linearGradient>
<radialGradient id="paint1_radial_2926_3166" cx="0" cy="0" r="1" gradientUnits="userSpaceOnUse" gradientTransform="translate(21.8948 20.2239) scale(31.9726)">
<stop stop-color="white" stop-opacity="0.1"/>
<stop offset="1" stop-color="white" stop-opacity="0"/>
</radialGradient>
<clipPath id="clip0_2926_3166">
<rect width="19.6" height="24.5" fill="white" transform="translate(20.7002 18.4426)"/>
</clipPath>
</defs>
</svg>
